Outpost Mono (Autosaved).glyphspackage
{
glyphname = exclam;
lastChange = "2025-08-07 22:48:35 +0000";
layers = (
{
layerId = m01;
shapes = (
{
closed = 1;
nodes = (
(270,150,l),
(330,150,l),
(330,620,l),
(270,620,l)
);
},
{
ref = period;
}
);
width = 600;
},
{
layerId = "BDCBA76E-5474-4BD3-A1CC-9641C626CFE7";
shapes = (
{
closed = 1;
nodes = (
(255,150,l),
(345,150,l),
(345,620,l),
(255,620,l)
);
},
{
ref = period;
}
);
width = 600;
},
{
layerId = "D8CC3DFA-F3EA-4C7D-84FB-05FCEA5C6558";
shapes = (
{
closed = 1;
nodes = (
(285,150,l),
(315,150,l),
(315,620,l),
(285,620,l)
);
},
{
ref = period;
}
);
width = 600;
}
);
unicode = 33;
}
{
glyphname = numbersign;
lastChange = "2025-08-07 23:00:45 +0000";
layers = (
{
layerId = m01;
shapes = (
{
closed = 1;
nodes = (
(96,-16,l),
(157,-16,l),
(285,716,l),
(224,716,l)
);
},
{
closed = 1;
nodes = (
(316,-16,l),
(377,-16,l),
(505,716,l),
(444,716,l)
);
},
{
closed = 1;
nodes = (
(30,500,l),
(30,440,l),
(570,440,l),
(570,500,l)
);
},
{
closed = 1;
nodes = (
(30,260,l),
(30,200,l),
(570,200,l),
(570,260,l)
);
}
);
width = 600;
},
{
layerId = "BDCBA76E-5474-4BD3-A1CC-9641C626CFE7";
shapes = (
{
closed = 1;
nodes = (
(81,-16,l),
(172,-16,l),
(300,716,l),
(209,716,l)
);
},
{
closed = 1;
nodes = (
(301,-16,l),
(392,-16,l),
(520,716,l),
(429,716,l)
);
},
{
closed = 1;
nodes = (
(30,515,l),
(30,425,l),
(570,425,l),
(570,515,l)
);
},
{
closed = 1;
nodes = (
(30,275,l),
(30,185,l),
(570,185,l),
(570,275,l)
);
}
);
width = 600;
},
{
layerId = "D8CC3DFA-F3EA-4C7D-84FB-05FCEA5C6558";
shapes = (
{
closed = 1;
nodes = (
(112,-16,l),
(142,-16,l),
(270,716,l),
(240,716,l)
);
},
{
closed = 1;
nodes = (
(331,-16,l),
(361,-16,l),
(489,716,l),
(459,716,l)
);
},
{
closed = 1;
nodes = (
(30,485,l),
(30,455,l),
(570,455,l),
(570,485,l)
);
},
{
closed = 1;
nodes = (
(30,245,l),
(30,215,l),
(570,215,l),
(570,245,l)
);
}
);
width = 600;
}
);
unicode = 35;
}
{
glyphname = dollar;
lastChange = "2025-08-07 23:37:06 +0000";
layers = (
{
layerId = m01;
shapes = (
{
ref = S;
},
{
closed = 1;
nodes = (
(270,-100,l),
(330,-100,l),
(330,720,l),
(270,720,l)
);
}
);
width = 600;
},
{
layerId = "BDCBA76E-5474-4BD3-A1CC-9641C626CFE7";
shapes = (
{
ref = S;
},
{
closed = 1;
nodes = (
(258,-100,l),
(348,-100,l),
(348,720,l),
(258,720,l)
);
}
);
width = 600;
},
{
layerId = "D8CC3DFA-F3EA-4C7D-84FB-05FCEA5C6558";
shapes = (
{
ref = S;
},
{
closed = 1;
nodes = (
(297,-100,l),
(327,-100,l),
(327,720,l),
(297,720,l)
);
}
);
width = 600;
}
);
unicode = 36;
}
{
glyphname = percent;
lastChange = "2025-08-08 00:52:35 +0000";
layers = (
{
hints = (
{
name = _corner.round;
origin = (0,0);
scale = (1.2,1.2);
type = Corner;
},
{
name = _corner.round;
options = 2;
origin = (0,1);
scale = (1.2,1.2);
type = Corner;
},
{
name = _corner.round;
options = 2;
origin = (0,2);
scale = (1.2,1.2);
type = Corner;
},
{
name = _corner.round;
origin = (0,3);
scale = (1.2,1.2);
type = Corner;
},
{
name = _corner.round;
origin = (2,0);
scale = (1.2,1.2);
type = Corner;
},
{
name = _corner.round;
options = 2;
origin = (2,1);
scale = (1.2,1.2);
type = Corner;
},
{
name = _corner.round;
options = 2;
origin = (2,2);
scale = (1.2,1.2);
type = Corner;
},
{
name = _corner.round;
origin = (2,3);
scale = (1.2,1.2);
type = Corner;
},
{
name = _corner.round;
origin = (1,0,1,2);
scale = (0.5,0.5);
stem = 1000;
type = Corner;
},
{
name = _corner.round;
origin = (1,0,1,6);
scale = (0.5,0.5);
stem = 1000;
type = Corner;
},
{
name = _corner.round;
origin = (1,2,1,4);
scale = (0.5,0.5);
stem = 1000;
type = Corner;
},
{
name = _corner.round;
origin = (1,4,1,6);
scale = (0.5,0.5);
stem = 1000;
type = Corner;
},
{
name = _corner.round;
origin = (3,0,3,2);
scale = (0.5,0.5);
stem = 1000;
type = Corner;
},
{
name = _corner.round;
origin = (3,0,3,6);
scale = (0.5,0.5);
stem = 1000;
type = Corner;
},
{
name = _corner.round;
origin = (3,2,3,4);
scale = (0.5,0.5);
stem = 1000;
type = Corner;
},
{
name = _corner.round;
origin = (3,4,3,6);
scale = (0.5,0.5);
stem = 1000;
type = Corner;
}
);
layerId = m01;
shapes = (
{
closed = 1;
nodes = (
(72,700,l),
(72,445,l),
(303,445,l),
(303,700,l)
);
},
{
closed = 1;
nodes = (
(122,682,l),
(112,650,l),
(263,650,l),
(253,682,l),
(253,463,l),
(263,495,l),
(112,495,l),
(122,463,l)
);
},
{
closed = 1;
nodes = (
(297,255,l),
(297,0,l),
(528,0,l),
(528,255,l)
);
},
{
closed = 1;
nodes = (
(347,237,l),
(337,205,l),
(488,205,l),
(478,237,l),
(478,18,l),
(488,50,l),
(337,50,l),
(347,18,l)
);
},
{
closed = 1;
nodes = (
(106,121,l),
(530,545,l),
(495,581,l),
(71,157,l)
);
}
);
width = 600;
},
{
hints = (
{
name = _corner.round;
origin = (0,0);
scale = (1.2,1.2);
type = Corner;
},
{
name = _corner.round;
options = 2;
origin = (0,1);
scale = (1.2,1.2);
type = Corner;
},
{
name = _corner.round;
options = 2;
origin = (0,2);
scale = (1.2,1.2);
type = Corner;
},
{
name = _corner.round;
origin = (0,3);
scale = (1.2,1.2);
type = Corner;
},
{
name = _corner.round;
origin = (2,0);
scale = (1.2,1.2);
type = Corner;
},
{
name = _corner.round;
options = 2;
origin = (2,1);
scale = (1.2,1.2);
type = Corner;
},
{
name = _corner.round;
options = 2;
origin = (2,2);
scale = (1.2,1.2);
type = Corner;
},
{
name = _corner.round;
origin = (2,3);
scale = (1.2,1.2);
type = Corner;
},
{
name = _corner.round;
origin = (1,0,1,2);
scale = (0.3,0.3);
stem = 1000;
type = Corner;
},
{
name = _corner.round;
origin = (1,0,1,6);
scale = (0.3,0.3);
stem = 1000;
type = Corner;
},
{
name = _corner.round;
origin = (1,2,1,4);
scale = (0.3,0.3);
stem = 1000;
type = Corner;
},
{
name = _corner.round;
origin = (1,4,1,6);
scale = (0.3,0.3);
stem = 1000;
type = Corner;
},
{
name = _corner.round;
origin = (3,0,3,2);
scale = (0.3,0.3);
stem = 1000;
type = Corner;
},
{
name = _corner.round;
origin = (3,0,3,6);
scale = (0.3,0.3);
stem = 1000;
type = Corner;
},
{
name = _corner.round;
origin = (3,2,3,4);
scale = (0.3,0.3);
stem = 1000;
type = Corner;
},
{
name = _corner.round;
origin = (3,4,3,6);
scale = (0.3,0.3);
stem = 1000;
type = Corner;
}
);
layerId = "BDCBA76E-5474-4BD3-A1CC-9641C626CFE7";
shapes = (
{
closed = 1;
nodes = (
(72,700,l),
(72,445,l),
(303,445,l),
(303,700,l)
);
},
{
closed = 1;
nodes = (
(142,682,l),
(112,630,l),
(263,630,l),
(233,682,l),
(233,463,l),
(263,515,l),
(112,515,l),
(142,463,l)
);
},
{
closed = 1;
nodes = (
(297,255,l),
(297,0,l),
(528,0,l),
(528,255,l)
);
},
{
closed = 1;
nodes = (
(367,237,l),
(337,185,l),
(488,185,l),
(458,237,l),
(458,18,l),
(488,70,l),
(337,70,l),
(367,18,l)
);
},
{
closed = 1;
nodes = (
(113,114,l),
(537,537,l),
(488,588,l),
(64,165,l)
);
}
);
width = 600;
},
{
hints = (
{
name = _corner.round;
origin = (0,0);
scale = (1.2,1.2);
type = Corner;
},
{
name = _corner.round;
options = 2;
origin = (0,1);
scale = (1.2,1.2);
type = Corner;
},
{
name = _corner.round;
options = 2;
origin = (0,2);
scale = (1.2,1.2);
type = Corner;
},
{
name = _corner.round;
origin = (0,3);
scale = (1.2,1.2);
type = Corner;
},
{
name = _corner.round;
origin = (2,0);
scale = (1.2,1.2);
type = Corner;
},
{
name = _corner.round;
options = 2;
origin = (2,1);
scale = (1.2,1.2);
type = Corner;
},
{
name = _corner.round;
options = 2;
origin = (2,2);
scale = (1.2,1.2);
type = Corner;
},
{
name = _corner.round;
origin = (2,3);
scale = (1.2,1.2);
type = Corner;
},
{
name = _corner.round;
origin = (1,0,1,2);
scale = (0.75,0.75);
stem = 1000;
type = Corner;
},
{
name = _corner.round;
origin = (1,0,1,6);
scale = (0.75,0.75);
stem = 1000;
type = Corner;
},
{
name = _corner.round;
origin = (1,2,1,4);
scale = (0.75,0.75);
stem = 1000;
type = Corner;
},
{
name = _corner.round;
origin = (1,4,1,6);
scale = (0.75,0.75);
stem = 1000;
type = Corner;
},
{
name = _corner.round;
origin = (3,0,3,2);
scale = (0.75,0.75);
stem = 1000;
type = Corner;
},
{
name = _corner.round;
origin = (3,0,3,6);
scale = (0.75,0.75);
stem = 1000;
type = Corner;
},
{
name = _corner.round;
origin = (3,2,3,4);
scale = (0.75,0.75);
stem = 1000;
type = Corner;
},
{
name = _corner.round;
origin = (3,4,3,6);
scale = (0.75,0.75);
stem = 1000;
type = Corner;
}
);
layerId = "D8CC3DFA-F3EA-4C7D-84FB-05FCEA5C6558";
shapes = (
{
closed = 1;
nodes = (
(72,700,l),
(72,445,l),
(303,445,l),
(303,700,l)
);
},
{
closed = 1;
nodes = (
(102,682,l),
(96,670,l),
(273,670,l),
(273,682,l),
(273,463,l),
(287,475,l),
(87,475,l),
(102,463,l)
);
},
{
closed = 1;
nodes = (
(297,255,l),
(297,0,l),
(528,0,l),
(528,255,l)
);
},
{
closed = 1;
nodes = (
(327,237,l),
(317,225,l),
(508,225,l),
(498,237,l),
(498,18,l),
(508,30,l),
(317,30,l),
(327,18,l)
);
},
{
closed = 1;
nodes = (
(99,128,l),
(523,552,l),
(503,574,l),
(79,150,l)
);
}
);
width = 600;
}
);
unicode = 37;
}
{
glyphname = ampersand;
lastChange = "2025-08-07 23:27:38 +0000";
layers = (
{
layerId = m01;
shapes = (
{
closed = 1;
nodes = (
(518,0,l),
(518,60,l),
(201,60,ls),
(167,60,o),
(141,86,o),
(142,120,cs),
(142,323,ls),
(141,357,o),
(167,383,o),
(201,383,cs),
(518,383,l),
(518,443,l),
(201,443,ls),
(167,443,o),
(141,469,o),
(142,503,cs),
(142,580,ls),
(141,614,o),
(167,640,o),
(201,640,cs),
(390,640,l),
(390,700,l),
(201,700,ls),
(133,700,o),
(81,648,o),
(82,580,cs),
(82,503,ls),
(81,466,o),
(97,434,o),
(120,413,c),
(97,392,o),
(81,360,o),
(82,323,cs),
(82,120,ls),
(81,52,o),
(133,0,o),
(201,0,cs)
);
},
{
closed = 1;
nodes = (
(418,25,l),
(418,516,l),
(358,516,l),
(358,25,l)
);
}
);
width = 600;
},
{
layerId = "BDCBA76E-5474-4BD3-A1CC-9641C626CFE7";
shapes = (
{
closed = 1;
nodes = (
(518,0,l),
(518,90,l),
(202,90,ls),
(185,90,o),
(172,103,o),
(172,120,cs),
(172,290,ls),
(172,307,o),
(185,320,o),
(202,320,cs),
(518,320,l),
(518,410,l),
(202,410,ls),
(185,410,o),
(172,423,o),
(172,440,cs),
(172,500,ls),
(172,517,o),
(185,530,o),
(202,530,cs),
(398,530,l),
(398,620,l),
(202,620,ls),
(134,621,o),
(82,569,o),
(82,501,cs),
(82,440,ls),
(82,412,o),
(90,386,o),
(106,365,c),
(91,345,o),
(82,318,o),
(82,290,cs),
(82,119,ls),
(82,51,o),
(134,-1,o),
(202,0,cs)
);
},
{
closed = 1;
nodes = (
(442,25,l),
(442,476,l),
(353,476,l),
(353,25,l)
);
}
);
width = 600;
},
{
layerId = "D8CC3DFA-F3EA-4C7D-84FB-05FCEA5C6558";
shapes = (
{
closed = 1;
nodes = (
(518,0,l),
(518,30,l),
(201,30,ls),
(150,30,o),
(111,69,o),
(112,120,cs),
(112,323,ls),
(111,374,o),
(150,413,o),
(201,413,cs),
(518,413,l),
(518,443,l),
(201,443,ls),
(150,443,o),
(111,482,o),
(112,533,cs),
(112,580,ls),
(111,631,o),
(150,670,o),
(201,670,cs),
(388,670,l),
(388,700,l),
(201,700,ls),
(133,700,o),
(81,648,o),
(82,580,cs),
(82,533,ls),
(81,486,o),
(105,448,o),
(141,428,c),
(105,408,o),
(81,370,o),
(82,323,cs),
(82,120,ls),
(81,52,o),
(133,0,o),
(201,0,cs)
);
},
{
closed = 1;
nodes = (
(403,15,l),
(403,516,l),
(373,516,l),
(373,15,l)
);
}
);
width = 600;
}
);
unicode = 38;
}
{
glyphname = parenleft;
lastChange = "2025-08-07 23:04:15 +0000";
layers = (
{
guides = (
{
pos = (511,770);
},
{
pos = (478,-80);
},
{
pos = (205,345);
}
);
layerId = m01;
shapes = (
{
attr = {
strokeWidth = 60;
};
closed = 0;
nodes = (
(417,770,l),
(292,770,o),
(213,606,o),
(213,346,cs),
(213,84,o),
(292,-80,o),
(417,-80,cs)
);
}
);
width = 600;
},
{
guides = (
{
pos = (511,770);
},
{
pos = (478,-80);
},
{
pos = (205,345);
}
);
layerId = "BDCBA76E-5474-4BD3-A1CC-9641C626CFE7";
shapes = (
{
attr = {
strokeWidth = 90;
};
closed = 0;
nodes = (
(425,755,l),
(300,755,o),
(221,595,o),
(221,335,cs),
(221,73,o),
(300,-91,o),
(425,-91,cs)
);
}
);
width = 600;
},
{
guides = (
{
pos = (511,770);
},
{
pos = (478,-80);
},
{
pos = (205,345);
}
);
layerId = "D8CC3DFA-F3EA-4C7D-84FB-05FCEA5C6558";
shapes = (
{
attr = {
strokeWidth = 30;
};
closed = 0;
nodes = (
(410,785,l),
(285,785,o),
(206,615,o),
(206,346,cs),
(206,75,o),
(285,-95,o),
(410,-95,cs)
);
}
);
width = 600;
}
);
unicode = 40;
}
{
glyphname = asterisk;
lastChange = "2025-08-07 23:00:45 +0000";
layers = (
{
layerId = m01;
shapes = (
{
closed = 1;
nodes = (
(270,371,l),
(330,371,l),
(330,716,l),
(270,716,l)
);
},
{
closed = 1;
nodes = (
(166,656,l),
(136,604,l),
(434,431,l),
(464,483,l)
);
},
{
closed = 1;
nodes = (
(166,431,l),
(464,604,l),
(434,656,l),
(136,483,l)
);
}
);
width = 600;
},
{
layerId = "BDCBA76E-5474-4BD3-A1CC-9641C626CFE7";
shapes = (
{
closed = 1;
nodes = (
(255,371,l),
(345,371,l),
(345,716,l),
(255,716,l)
);
},
{
closed = 1;
nodes = (
(128,496,l),
(173,418,l),
(472,591,l),
(427,669,l)
);
},
{
closed = 1;
nodes = (
(173,669,l),
(128,591,l),
(427,418,l),
(472,496,l)
);
}
);
width = 600;
},
{
layerId = "D8CC3DFA-F3EA-4C7D-84FB-05FCEA5C6558";
shapes = (
{
closed = 1;
nodes = (
(285,371,l),
(315,371,l),
(315,716,l),
(285,716,l)
);
},
{
closed = 1;
nodes = (
(158,444,l),
(457,617,l),
(442,643,l),
(143,470,l)
);
},
{
closed = 1;
nodes = (
(143,617,l),
(442,444,l),
(457,470,l),
(158,643,l)
);
}
);
width = 600;
}
);
unicode = 42;
}
{
glyphname = plus;
lastChange = "2025-08-07 23:43:13 +0000";
layers = (
{
layerId = m01;
shapes = (
{
closed = 1;
nodes = (
(82,257,l),
(518,257,l),
(518,317,l),
(82,317,l)
);
},
{
closed = 1;
nodes = (
(270,505,l),
(270,69,l),
(330,69,l),
(330,505,l)
);
}
);
width = 600;
},
{
layerId = "BDCBA76E-5474-4BD3-A1CC-9641C626CFE7";
shapes = (
{
closed = 1;
nodes = (
(82,242,l),
(518,242,l),
(518,332,l),
(82,332,l)
);
},
{
closed = 1;
nodes = (
(255,505,l),
(255,69,l),
(345,69,l),
(345,505,l)
);
}
);
width = 600;
},
{
layerId = "D8CC3DFA-F3EA-4C7D-84FB-05FCEA5C6558";
shapes = (
{
closed = 1;
nodes = (
(82,272,l),
(518,272,l),
(518,302,l),
(82,302,l)
);
},
{
closed = 1;
nodes = (
(285,505,l),
(285,69,l),
(315,69,l),
(315,505,l)
);
}
);
width = 600;
}
);
unicode = 43;
}
{
glyphname = comma;
lastChange = "2025-08-07 22:47:29 +0000";
layers = (
{
layerId = m01;
shapes = (
{
closed = 1;
nodes = (
(263,-114,l),
(312,-124,l),
(340,31,l),
(291,41,l)
);
},
{
closed = 1;
nodes = (
(322,-5,o),
(340,13,o),
(340,35,cs),
(340,57,o),
(322,75,o),
(300,75,cs),
(278,75,o),
(260,57,o),
(260,35,cs),
(260,13,o),
(278,-5,o),
(300,-5,cs)
);
}
);
width = 600;
},
{
layerId = "BDCBA76E-5474-4BD3-A1CC-9641C626CFE7";
shapes = (
{
closed = 1;
nodes = (
(354,34,l),
(282,43,l),
(254,-112,l),
(326,-121,l)
);
},
{
closed = 1;
nodes = (
(331,-6,o),
(356,19,o),
(356,50,cs),
(356,81,o),
(331,106,o),
(300,106,cs),
(269,106,o),
(244,81,o),
(244,50,cs),
(244,19,o),
(269,-6,o),
(300,-6,cs)
);
}
);
width = 600;
},
{
layerId = "D8CC3DFA-F3EA-4C7D-84FB-05FCEA5C6558";
shapes = (
{
closed = 1;
nodes = (
(278,-88,l),
(307,-95,l),
(330,30,l),
(301,37,l)
);
},
{
closed = 1;
nodes = (
(317,5,o),
(330,19,o),
(330,35,cs),
(330,52,o),
(317,65,o),
(300,65,cs),
(284,65,o),
(270,52,o),
(270,35,cs),
(270,19,o),
(284,5,o),
(300,5,cs)
);
}
);
width = 600;
}
);
unicode = 44;
}
{
glyphname = hyphen;
lastChange = "2025-08-07 23:01:21 +0000";
layers = (
{
layerId = m01;
shapes = (
{
closed = 1;
nodes = (
(134,257,l),
(467,257,l),
(467,317,l),
(134,317,l)
);
}
);
width = 600;
},
{
layerId = "BDCBA76E-5474-4BD3-A1CC-9641C626CFE7";
shapes = (
{
closed = 1;
nodes = (
(134,242,l),
(467,242,l),
(467,332,l),
(134,332,l)
);
}
);
width = 600;
},
{
layerId = "D8CC3DFA-F3EA-4C7D-84FB-05FCEA5C6558";
shapes = (
{
closed = 1;
nodes = (
(134,272,l),
(467,272,l),
(467,302,l),
(134,302,l)
);
}
);
width = 600;
}
);
unicode = 45;
}
{
glyphname = period;
lastChange = "2025-08-10 19:28:41 +0000";
layers = (
{
layerId = m01;
shapes = (
{
closed = 1;
nodes = (
(328,0,o),
(350,23,o),
(350,50,cs),
(350,78,o),
(328,100,o),
(300,100,cs),
(273,100,o),
(250,78,o),
(250,50,cs),
(250,23,o),
(273,0,o),
(300,0,cs)
);
}
);
width = 600;
},
{
layerId = "BDCBA76E-5474-4BD3-A1CC-9641C626CFE7";
shapes = (
{
closed = 1;
nodes = (
(336,0,o),
(365,29,o),
(365,65,cs),
(365,101,o),
(336,130,o),
(300,130,cs),
(264,130,o),
(235,101,o),
(235,65,cs),
(235,29,o),
(264,0,o),
(300,0,cs)
);
}
);
width = 600;
},
{
layerId = "D8CC3DFA-F3EA-4C7D-84FB-05FCEA5C6558";
shapes = (
{
closed = 1;
nodes = (
(323,0,o),
(340,17,o),
(340,40,cs),
(340,63,o),
(323,80,o),
(300,80,cs),
(277,80,o),
(260,63,o),
(260,40,cs),
(260,17,o),
(277,0,o),
(300,0,cs)
);
}
);
width = 600;
}
);
unicode = 46;
}
{
glyphname = slash;
lastChange = "2025-08-07 23:00:45 +0000";
layers = (
{
layerId = m01;
shapes = (
{
closed = 1;
nodes = (
(108,-110,l),
(173,-110,l),
(493,800,l),
(428,800,l)
);
}
);
width = 600;
},
{
layerId = "BDCBA76E-5474-4BD3-A1CC-9641C626CFE7";
shapes = (
{
closed = 1;
nodes = (
(93,-110,l),
(188,-110,l),
(508,800,l),
(413,800,l)
);
}
);
width = 600;
},
{
layerId = "D8CC3DFA-F3EA-4C7D-84FB-05FCEA5C6558";
shapes = (
{
closed = 1;
nodes = (
(124,-110,l),
(156,-110,l),
(476,800,l),
(444,800,l)
);
}
);
width = 600;
}
);
unicode = 47;
}
{
glyphname = zero;
lastChange = "2025-08-06 01:47:48 +0000";
layers = (
{
hints = (
{
name = _corner.round;
origin = (0,0);
type = Corner;
},
{
name = _corner.round;
options = 2;
origin = (0,1);
type = Corner;
},
{
name = _corner.round;
origin = (0,2);
type = Corner;
},
{
name = _corner.round;
options = 2;
origin = (0,3);
type = Corner;
},
{
name = _corner.round;
origin = (1,0,1,2);
scale = (0.4,0.4);
stem = 1000;
type = Corner;
},
{
name = _corner.round;
origin = (1,4,1,6);
scale = (0.4,0.4);
stem = 1000;
type = Corner;
}
);
layerId = m01;
shapes = (
{
closed = 1;
nodes = (
(82,0,l),
(518,0,l),
(518,620,l),
(82,620,l)
);
},
{
closed = 1;
nodes = (
(142,585,l),
(117,560,l),
(483,560,l),
(458,585,l),
(458,35,l),
(483,60,l),
(117,60,l),
(142,35,l)
);
},
{
closed = 1;
nodes = (
(101,66,l),
(153,36,l),
(503,562,l),
(451,592,l)
);
}
);
width = 600;
},
{
hints = (
{
name = _corner.round;
origin = (0,0);
type = Corner;
},
{
name = _corner.round;
options = 2;
origin = (0,1);
type = Corner;
},
{
name = _corner.round;
origin = (0,2);
type = Corner;
},
{
name = _corner.round;
options = 2;
origin = (0,3);
type = Corner;
},
{
name = _corner.round;
origin = (1,0,1,2);
scale = (0.2,0.2);
stem = 1000;
type = Corner;
},
{
name = _corner.round;
origin = (1,4,1,6);
scale = (0.2,0.2);
stem = 1000;
type = Corner;
}
);
layerId = "BDCBA76E-5474-4BD3-A1CC-9641C626CFE7";
shapes = (
{
closed = 1;
nodes = (
(82,0,l),
(518,0,l),
(518,620,l),
(82,620,l)
);
},
{
closed = 1;
nodes = (
(172,585,l),
(117,530,l),
(483,530,l),
(428,585,l),
(428,35,l),
(483,90,l),
(117,90,l),
(172,35,l)
);
},
{
closed = 1;
nodes = (
(88,61,l),
(162,10,l),
(511,549,l),
(434,595,l)
);
}
);
width = 600;
},
{
hints = (
{
name = _corner.round;
origin = (0,0);
type = Corner;
},
{
name = _corner.round;
options = 2;
origin = (0,1);
type = Corner;
},
{
name = _corner.round;
origin = (0,2);
type = Corner;
},
{
name = _corner.round;
options = 2;
origin = (0,3);
type = Corner;
},
{
name = _corner.round;
origin = (1,0,1,2);
scale = (0.5,0.5);
stem = 1000;
type = Corner;
},
{
name = _corner.round;
origin = (1,4,1,6);
scale = (0.5,0.5);
stem = 1000;
type = Corner;
}
);
layerId = "D8CC3DFA-F3EA-4C7D-84FB-05FCEA5C6558";
shapes = (
{
closed = 1;
nodes = (
(82,0,l),
(518,0,l),
(518,620,l),
(82,620,l)
);
},
{
closed = 1;
nodes = (
(112,601,l),
(104,590,l),
(494,590,l),
(488,598,l),
(488,15,l),
(497,30,l),
(106,30,l),
(112,19,l)
);
},
{
closed = 1;
nodes = (
(97,32,l),
(123,17,l),
(503,591,l),
(477,606,l)
);
}
);
width = 600;
}
);
unicode = 48;
}
{
glyphname = one;
lastChange = "2025-08-06 01:48:13 +0000";
layers = (
{
layerId = m01;
shapes = (
{
closed = 1;
nodes = (
(82,60,l),
(82,0,l),
(518,0,l),
(518,60,l)
);
},
{
closed = 1;
nodes = (
(270,28,l),
(330,28,l),
(330,620,l),
(270,620,l)
);
},
{
closed = 1;
nodes = (
(159,516,l),
(291,563,l),
(270,620,l),
(138,572,l)
);
}
);
width = 600;
},
{
layerId = "BDCBA76E-5474-4BD3-A1CC-9641C626CFE7";
shapes = (
{
closed = 1;
nodes = (
(82,90,l),
(82,0,l),
(518,0,l),
(518,90,l)
);
},
{
closed = 1;
nodes = (
(255,28,l),
(345,28,l),
(345,620,l),
(255,620,l)
);
},
{
closed = 1;
nodes = (
(148,481,l),
(285,536,l),
(255,620,l),
(118,564,l)
);
}
);
width = 600;
},
{
layerId = "D8CC3DFA-F3EA-4C7D-84FB-05FCEA5C6558";
shapes = (
{
closed = 1;
nodes = (
(82,30,l),
(82,0,l),
(518,0,l),
(518,30,l)
);
},
{
closed = 1;
nodes = (
(285,18,l),
(315,18,l),
(315,620,l),
(285,620,l)
);
},
{
closed = 1;
nodes = (
(162,547,l),
(295,594,l),
(285,620,l),
(153,572,l)
);
}
);
width = 600;
}
);
unicode = 49;
}
{
glyphname = two;
lastChange = "2025-08-06 01:48:36 +0000";
layers = (
{
layerId = m01;
shapes = (
{
closed = 1;
nodes = (
(518,0,l),
(518,60,l),
(112,60,l),
(142,30,l),
(142,243,ls),
(142,277,o),
(167,303,o),
(201,303,cs),
(399,303,ls),
(467,303,o),
(519,355,o),
(518,423,cs),
(518,500,ls),
(519,568,o),
(467,620,o),
(399,620,cs),
(109,620,l),
(109,560,l),
(399,560,ls),
(433,560,o),
(459,534,o),
(458,500,cs),
(458,423,ls),
(459,389,o),
(433,363,o),
(399,363,cs),
(201,363,ls),
(133,363,o),
(81,311,o),
(82,243,cs),
(82,0,l)
);
}
);
width = 600;
},
{
layerId = "BDCBA76E-5474-4BD3-A1CC-9641C626CFE7";
shapes = (
{
closed = 1;
nodes = (
(518,0,l),
(518,90,l),
(127,90,l),
(172,45,l),
(172,260,ls),
(172,277,o),
(185,290,o),
(202,290,cs),
(399,290,ls),
(467,290,o),
(519,342,o),
(518,410,cs),
(518,500,ls),
(519,568,o),
(467,620,o),
(399,620,cs),
(109,620,l),
(109,530,l),
(398,530,ls),
(415,530,o),
(428,517,o),
(428,500,cs),
(428,410,ls),
(428,393,o),
(415,380,o),
(398,380,cs),
(201,380,ls),
(133,380,o),
(81,328,o),
(82,260,cs),
(82,0,l)
);
}
);
width = 600;
},
{
layerId = "D8CC3DFA-F3EA-4C7D-84FB-05FCEA5C6558";
shapes = (
{
closed = 1;
nodes = (
(518,0,l),
(518,30,l),
(96,30,l),
(112,15,l),
(112,260,ls),
(112,311,o),
(150,350,o),
(201,350,cs),
(398,350,ls),
(466,349,o),
(518,401,o),
(518,469,cs),
(518,501,ls),
(518,569,o),
(466,621,o),
(398,620,cs),
(109,620,l),
(109,590,l),
(398,590,ls),
(449,591,o),
(488,552,o),
(488,501,cs),
(488,469,ls),
(488,418,o),
(449,379,o),
(398,380,cs),
(201,380,ls),
(133,380,o),
(81,328,o),
(82,260,cs),
(82,0,l)
);
}
);
width = 600;
}
);
unicode = 50;
}
{
glyphname = three;
lastChange = "2025-08-06 01:49:14 +0000";
layers = (
{
layerId = m01;
shapes = (
{
closed = 1;
nodes = (
(386,0,ls),
(454,0,o),
(506,52,o),
(505,120,cs),
(505,243,ls),
(506,280,o),
(490,312,o),
(467,333,c),
(490,354,o),
(506,386,o),
(505,423,cs),
(505,500,ls),
(506,568,o),
(454,620,o),
(386,620,cs),
(96,620,l),
(96,560,l),
(386,560,ls),
(420,560,o),
(446,534,o),
(445,500,cs),
(445,423,ls),
(446,389,o),
(420,363,o),
(386,363,cs),
(157,363,l),
(157,303,l),
(386,303,ls),
(420,303,o),
(446,277,o),
(445,243,cs),
(445,120,ls),
(446,86,o),
(420,60,o),
(386,60,cs),
(96,60,l),
(96,0,l)
);
}
);
width = 600;
},
{
layerId = "BDCBA76E-5474-4BD3-A1CC-9641C626CFE7";
shapes = (
{
closed = 1;
nodes = (
(399,0,ls),
(467,0,o),
(519,52,o),
(518,120,cs),
(518,260,ls),
(518,288,o),
(510,314,o),
(494,335,c),
(509,355,o),
(518,382,o),
(518,410,cs),
(518,500,ls),
(519,568,o),
(467,620,o),
(399,620,cs),
(109,620,l),
(109,530,l),
(398,530,ls),
(415,530,o),
(428,517,o),
(428,500,cs),
(428,410,ls),
(428,393,o),
(415,380,o),
(398,380,cs),
(170,380,l),
(170,290,l),
(398,290,ls),
(415,290,o),
(428,277,o),
(428,260,cs),
(428,120,ls),
(428,103,o),
(415,90,o),
(398,90,cs),
(82,90,l),
(82,0,l)
);
}
);
width = 600;
},
{
layerId = "D8CC3DFA-F3EA-4C7D-84FB-05FCEA5C6558";
shapes = (
{
closed = 1;
nodes = (
(398,0,ls),
(466,-1,o),
(518,51,o),
(518,119,cs),
(518,261,ls),
(518,307,o),
(495,345,o),
(459,365,c),
(495,385,o),
(518,423,o),
(518,469,cs),
(518,501,ls),
(518,569,o),
(466,621,o),
(398,620,cs),
(109,620,l),
(109,590,l),
(398,590,ls),
(449,591,o),
(488,552,o),
(488,501,cs),
(488,469,ls),
(488,419,o),
(452,380,o),
(402,380,cs),
(170,380,l),
(170,350,l),
(402,350,ls),
(452,350,o),
(488,311,o),
(488,261,cs),
(488,119,ls),
(488,68,o),
(449,29,o),
(398,30,cs),
(82,30,l),
(82,0,l)
);
}
);
width = 600;
}
);
unicode = 51;
}
{
glyphname = four;
lastChange = "2025-08-06 01:49:51 +0000";
layers = (
{
guides = (
{
pos = (122,253);
}
);
layerId = m01;
shapes = (
{
closed = 1;
nodes = (
(382,0,l),
(442,0,l),
(442,620,l),
(382,620,l)
);
},
{
closed = 1;
nodes = (
(75,173,l),
(525,173,l),
(525,233,l),
(116,233,l),
(134,208,l),
(442,620,l),
(368,620,l),
(75,233,l)
);
}
);
width = 600;
},
{
guides = (
{
pos = (122,253);
}
);
layerId = "BDCBA76E-5474-4BD3-A1CC-9641C626CFE7";
shapes = (
{
closed = 1;
nodes = (
(363,0,l),
(453,0,l),
(453,620,l),
(363,620,l)
);
},
{
closed = 1;
nodes = (
(59,158,l),
(541,158,l),
(541,248,l),
(112,248,l),
(145,208,l),
(453,620,l),
(343,620,l),
(59,245,l)
);
}
);
width = 600;
},
{
guides = (
{
pos = (122,253);
}
);
layerId = "D8CC3DFA-F3EA-4C7D-84FB-05FCEA5C6558";
shapes = (
{
closed = 1;
nodes = (
(394,0,l),
(424,0,l),
(424,620,l),
(394,620,l)
);
},
{
closed = 1;
nodes = (
(79,188,l),
(522,188,l),
(522,218,l),
(90,218,l),
(109,208,l),
(420,620,l),
(383,620,l),
(79,217,l)
);
}
);
width = 600;
}
);
unicode = 52;
}
{
glyphname = five;
lastChange = "2025-08-06 01:50:16 +0000";
layers = (
{
layerId = m01;
shapes = (
{
closed = 1;
nodes = (
(399,0,ls),
(467,0,o),
(519,52,o),
(518,120,cs),
(518,243,ls),
(519,311,o),
(467,363,o),
(399,363,cs),
(112,363,l),
(142,335,l),
(142,590,l),
(112,560,l),
(498,560,l),
(498,620,l),
(82,620,l),
(82,303,l),
(399,303,ls),
(433,303,o),
(459,277,o),
(458,243,cs),
(458,120,ls),
(459,86,o),
(433,60,o),
(399,60,cs),
(82,60,l),
(82,0,l)
);
}
);
width = 600;
},
{
layerId = "BDCBA76E-5474-4BD3-A1CC-9641C626CFE7";
shapes = (
{
closed = 1;
nodes = (
(399,0,ls),
(467,0,o),
(519,52,o),
(518,120,cs),
(518,260,ls),
(519,328,o),
(467,380,o),
(399,380,cs),
(127,380,l),
(172,335,l),
(172,575,l),
(127,530,l),
(498,530,l),
(498,620,l),
(82,620,l),
(82,290,l),
(398,290,ls),
(415,290,o),
(428,277,o),
(428,260,cs),
(428,120,ls),
(428,103,o),
(415,90,o),
(398,90,cs),
(82,90,l),
(82,0,l)
);
}
);
width = 600;
},
{
layerId = "D8CC3DFA-F3EA-4C7D-84FB-05FCEA5C6558";
shapes = (
{
closed = 1;
nodes = (
(399,0,ls),
(467,0,o),
(519,52,o),
(518,120,cs),
(518,260,ls),
(519,328,o),
(467,380,o),
(399,380,cs),
(97,380,l),
(112,365,l),
(112,605,l),
(97,590,l),
(498,590,l),
(498,620,l),
(82,620,l),
(82,350,l),
(399,350,ls),
(450,350,o),
(489,311,o),
(488,260,cs),
(488,120,ls),
(489,69,o),
(450,30,o),
(399,30,cs),
(82,30,l),
(82,0,l)
);
}
);
width = 600;
}
);
unicode = 53;
}
{
glyphname = six;
lastChange = "2025-08-06 01:50:36 +0000";
layers = (
{
layerId = m01;
shapes = (
{
closed = 1;
nodes = (
(399,0,ls),
(467,0,o),
(519,52,o),
(518,120,cs),
(518,243,ls),
(519,311,o),
(467,363,o),
(399,363,cs),
(112,363,l),
(112,303,l),
(399,303,ls),
(433,303,o),
(459,277,o),
(458,243,cs),
(458,120,ls),
(459,86,o),
(433,60,o),
(399,60,cs),
(201,60,ls),
(167,60,o),
(141,86,o),
(142,120,cs),
(142,500,ls),
(141,534,o),
(167,560,o),
(201,560,cs),
(478,560,l),
(478,620,l),
(201,620,ls),
(133,620,o),
(81,568,o),
(82,500,cs),
(82,120,ls),
(81,52,o),
(133,0,o),
(201,0,cs)
);
}
);
width = 600;
},
{
layerId = "BDCBA76E-5474-4BD3-A1CC-9641C626CFE7";
shapes = (
{
closed = 1;
nodes = (
(399,0,ls),
(467,0,o),
(519,52,o),
(518,120,cs),
(518,260,ls),
(519,328,o),
(467,380,o),
(399,380,cs),
(127,380,l),
(127,290,l),
(398,290,ls),
(415,290,o),
(428,277,o),
(428,260,cs),
(428,120,ls),
(428,103,o),
(415,90,o),
(398,90,cs),
(202,90,ls),
(185,90,o),
(172,103,o),
(172,120,cs),
(172,500,ls),
(172,517,o),
(185,530,o),
(202,530,cs),
(478,530,l),
(478,620,l),
(201,620,ls),
(133,620,o),
(81,568,o),
(82,500,cs),
(82,120,ls),
(81,52,o),
(133,0,o),
(201,0,cs)
);
}
);
width = 600;
},
{
layerId = "D8CC3DFA-F3EA-4C7D-84FB-05FCEA5C6558";
shapes = (
{
closed = 1;
nodes = (
(399,0,ls),
(467,0,o),
(519,52,o),
(518,120,cs),
(518,260,ls),
(519,328,o),
(467,380,o),
(399,380,cs),
(97,380,l),
(97,350,l),
(399,350,ls),
(450,350,o),
(489,311,o),
(488,260,cs),
(488,120,ls),
(489,69,o),
(450,30,o),
(399,30,cs),
(201,30,ls),
(150,30,o),
(111,69,o),
(112,120,cs),
(112,500,ls),
(111,551,o),
(150,590,o),
(201,590,cs),
(478,590,l),
(478,620,l),
(201,620,ls),
(133,620,o),
(81,568,o),
(82,500,cs),
(82,120,ls),
(81,52,o),
(133,0,o),
(201,0,cs)
);
}
);
width = 600;
}
);
unicode = 54;
}
{
glyphname = seven;
lastChange = "2025-08-06 01:51:04 +0000";
layers = (
{
layerId = m01;
shapes = (
{
closed = 1;
nodes = (
(106,560,l),
(442,560,l),
(442,620,l),
(106,620,l)
);
},
{
closed = 1;
nodes = (
(182,0,l),
(248,0,l),
(494,620,l),
(428,620,l)
);
}
);
width = 600;
},
{
layerId = "BDCBA76E-5474-4BD3-A1CC-9641C626CFE7";
shapes = (
{
closed = 1;
nodes = (
(96,530,l),
(432,530,l),
(432,620,l),
(96,620,l)
);
},
{
closed = 1;
nodes = (
(162,0,l),
(259,0,l),
(505,620,l),
(408,620,l)
);
}
);
width = 600;
},
{
layerId = "D8CC3DFA-F3EA-4C7D-84FB-05FCEA5C6558";
shapes = (
{
closed = 1;
nodes = (
(106,590,l),
(472,590,l),
(472,620,l),
(106,620,l)
);
},
{
closed = 1;
nodes = (
(216,0,l),
(248,0,l),
(494,620,l),
(462,620,l)
);
}
);
width = 600;
}
);
unicode = 55;
}
{
glyphname = eight;
lastChange = "2025-08-06 01:51:28 +0000";
layers = (
{
layerId = m01;
shapes = (
{
closed = 1;
nodes = (
(399,0,ls),
(467,0,o),
(519,52,o),
(518,120,cs),
(518,242,ls),
(519,285,o),
(500,319,o),
(468,341,c),
(488,363,o),
(498,391,o),
(498,422,cs),
(498,499,ls),
(499,567,o),
(447,619,o),
(379,619,cs),
(221,619,ls),
(153,619,o),
(101,567,o),
(102,499,cs),
(102,422,ls),
(102,391,o),
(113,362,o),
(132,341,c),
(100,319,o),
(81,285,o),
(82,242,cs),
(82,120,ls),
(81,52,o),
(133,0,o),
(201,0,cs)
);
},
{
closed = 1;
nodes = (
(167,60,o),
(141,86,o),
(142,120,cs),
(142,242,ls),
(141,276,o),
(167,302,o),
(201,302,cs),
(399,302,ls),
(433,302,o),
(459,276,o),
(458,242,cs),
(458,120,ls),
(459,86,o),
(433,60,o),
(399,60,cs),
(201,60,ls)
);
},
{
closed = 1;
nodes = (
(187,362,o),
(161,388,o),
(162,422,cs),
(162,499,ls),
(161,533,o),
(187,559,o),
(221,559,cs),
(379,559,ls),
(413,559,o),
(439,533,o),
(438,499,cs),
(438,422,ls),
(439,388,o),
(413,362,o),
(379,362,cs),
(221,362,ls)
);
}
);
width = 600;
},
{
layerId = "BDCBA76E-5474-4BD3-A1CC-9641C626CFE7";
shapes = (
{
closed = 1;
nodes = (
(399,0,ls),
(467,0,o),
(519,52,o),
(518,120,cs),
(518,260,ls),
(519,296,o),
(504,327,o),
(482,348,c),
(492,365,o),
(498,388,o),
(498,410,cs),
(498,500,ls),
(499,568,o),
(447,620,o),
(379,620,cs),
(221,620,ls),
(153,620,o),
(101,568,o),
(102,500,cs),
(102,410,ls),
(102,388,o),
(108,365,o),
(118,348,c),
(95,326,o),
(81,296,o),
(82,260,cs),
(82,120,ls),
(81,52,o),
(133,0,o),
(201,0,cs)
);
},
{
closed = 1;
nodes = (
(185,90,o),
(172,103,o),
(172,120,cs),
(172,260,ls),
(172,277,o),
(185,290,o),
(202,290,cs),
(398,290,ls),
(415,290,o),
(428,277,o),
(428,260,cs),
(428,120,ls),
(428,103,o),
(415,90,o),
(398,90,cs),
(202,90,ls)
);
},
{
closed = 1;
nodes = (
(205,380,o),
(192,393,o),
(192,410,cs),
(192,500,ls),
(192,517,o),
(205,530,o),
(222,530,cs),
(378,530,ls),
(395,530,o),
(408,517,o),
(408,500,cs),
(408,410,ls),
(408,393,o),
(395,380,o),
(378,380,cs),
(222,380,ls)
);
}
);
width = 600;
},
{
layerId = "D8CC3DFA-F3EA-4C7D-84FB-05FCEA5C6558";
shapes = (
{
closed = 1;
nodes = (
(399,0,ls),
(467,0,o),
(519,52,o),
(518,120,cs),
(518,260,ls),
(519,311,o),
(490,352,o),
(447,370,c),
(478,391,o),
(499,427,o),
(498,470,cs),
(498,500,ls),
(499,568,o),
(447,620,o),
(379,620,cs),
(221,620,ls),
(153,620,o),
(101,568,o),
(102,500,cs),
(102,470,ls),
(101,427,o),
(122,391,o),
(153,370,c),
(109,352,o),
(81,311,o),
(82,260,cs),
(82,120,ls),
(81,52,o),
(133,0,o),
(201,0,cs)
);
},
{
closed = 1;
nodes = (
(150,30,o),
(112,69,o),
(112,119,cs),
(112,260,ls),
(111,311,o),
(150,350,o),
(201,350,cs),
(399,350,ls),
(450,350,o),
(489,311,o),
(488,260,cs),
(488,120,ls),
(489,69,o),
(450,30,o),
(399,30,cs),
(201,30,ls)
);
},
{
closed = 1;
nodes = (
(170,380,o),
(131,419,o),
(132,470,cs),
(132,500,ls),
(131,551,o),
(170,590,o),
(221,590,cs),
(379,590,ls),
(430,590,o),
(469,551,o),
(468,500,cs),
(468,470,ls),
(469,419,o),
(430,380,o),
(379,380,cs),
(221,380,ls)
);
}
);
width = 600;
}
);
unicode = 56;
}
{
glyphname = nine;
lastChange = "2025-08-06 01:51:55 +0000";
layers = (
{
layerId = m01;
shapes = (
{
closed = 1;
nodes = (
(399,0,ls),
(467,0,o),
(519,52,o),
(518,120,cs),
(518,500,ls),
(519,568,o),
(467,620,o),
(399,620,cs),
(201,620,ls),
(133,620,o),
(81,568,o),
(82,500,cs),
(82,423,ls),
(81,355,o),
(133,303,o),
(201,303,cs),
(488,303,l),
(488,363,l),
(201,363,ls),
(167,363,o),
(141,389,o),
(142,423,cs),
(142,500,ls),
(141,534,o),
(167,560,o),
(201,560,cs),
(399,560,ls),
(433,560,o),
(459,534,o),
(458,500,cs),
(458,120,ls),
(459,86,o),
(433,60,o),
(399,60,cs),
(102,60,l),
(102,0,l)
);
}
);
width = 600;
},
{
layerId = "BDCBA76E-5474-4BD3-A1CC-9641C626CFE7";
shapes = (
{
closed = 1;
nodes = (
(399,0,ls),
(467,0,o),
(519,52,o),
(518,120,cs),
(518,500,ls),
(519,568,o),
(467,620,o),
(399,620,cs),
(201,620,ls),
(133,620,o),
(81,568,o),
(82,500,cs),
(82,410,ls),
(81,342,o),
(133,290,o),
(201,290,cs),
(473,290,l),
(473,380,l),
(202,380,ls),
(185,380,o),
(172,393,o),
(172,410,cs),
(172,500,ls),
(172,517,o),
(185,530,o),
(202,530,cs),
(398,530,ls),
(415,530,o),
(428,517,o),
(428,500,cs),
(428,120,ls),
(428,103,o),
(415,90,o),
(398,90,cs),
(102,90,l),
(102,0,l)
);
}
);
width = 600;
},
{
layerId = "D8CC3DFA-F3EA-4C7D-84FB-05FCEA5C6558";
shapes = (
{
closed = 1;
nodes = (
(399,0,ls),
(467,0,o),
(519,52,o),
(518,120,cs),
(518,500,ls),
(519,568,o),
(467,620,o),
(399,620,cs),
(201,620,ls),
(133,620,o),
(81,568,o),
(82,500,cs),
(82,470,ls),
(81,402,o),
(133,350,o),
(201,350,cs),
(503,350,l),
(503,380,l),
(201,380,ls),
(150,380,o),
(111,419,o),
(112,470,cs),
(112,500,ls),
(111,551,o),
(150,590,o),
(201,590,cs),
(399,590,ls),
(450,590,o),
(489,551,o),
(488,500,cs),
(488,120,ls),
(489,69,o),
(450,30,o),
(399,30,cs),
(102,30,l),
(102,0,l)
);
}
);
width = 600;
}
);
unicode = 57;
}
{
glyphname = semicolon;
lastChange = "2025-08-07 22:47:33 +0000";
layers = (
{
guides = (
{
pos = (26,442);
}
);
layerId = m01;
shapes = (
{
closed = 1;
nodes = (
(323,311,o),
(341,329,o),
(341,351,cs),
(341,373,o),
(323,391,o),
(301,391,cs),
(279,391,o),
(261,373,o),
(261,351,cs),
(261,329,o),
(279,311,o),
(301,311,cs)
);
},
{
pos = (5,0);
ref = comma;
}
);
width = 600;
},
{
guides = (
{
pos = (26,442);
}
);
layerId = "BDCBA76E-5474-4BD3-A1CC-9641C626CFE7";
shapes = (
{
closed = 1;
nodes = (
(295,295,o),
(320,320,o),
(320,351,cs),
(320,382,o),
(295,407,o),
(264,407,cs),
(233,407,o),
(208,382,o),
(208,351,cs),
(208,320,o),
(233,295,o),
(264,295,cs)
);
},
{
pos = (-35,0);
ref = comma;
}
);
width = 536;
},
{
guides = (
{
pos = (26,442);
}
);
layerId = "D8CC3DFA-F3EA-4C7D-84FB-05FCEA5C6558";
shapes = (
{
closed = 1;
nodes = (
(316,321,o),
(329,335,o),
(329,351,cs),
(329,368,o),
(316,381,o),
(299,381,cs),
(283,381,o),
(269,368,o),
(269,351,cs),
(269,335,o),
(283,321,o),
(299,321,cs)
);
},
{
pos = (1,0);
ref = comma;
}
);
width = 600;
}
);
unicode = 59;
}
{
glyphname = less;
lastChange = "2025-08-08 00:40:10 +0000";
layers = (
{
hints = (
{
name = _corner.round;
origin = (0,1);
type = Corner;
}
);
layerId = m01;
shapes = (
{
attr = {
lineCapEnd = 4;
lineCapStart = 4;
strokeWidth = 60;
};
closed = 0;
nodes = (
(518,38,l),
(82,274,l),
(518,533,l)
);
}
);
width = 600;
},
{
hints = (
{
name = _corner.round;
origin = (0,1);
type = Corner;
}
);
layerId = "BDCBA76E-5474-4BD3-A1CC-9641C626CFE7";
shapes = (
{
attr = {
lineCapEnd = 4;
lineCapStart = 4;
strokeWidth = 90;
};
closed = 0;
nodes = (
(525,51,l),
(89,274,l),
(525,523,l)
);
}
);
width = 600;
},
{
hints = (
{
name = _corner.round;
origin = (0,1);
type = Corner;
}
);
layerId = "D8CC3DFA-F3EA-4C7D-84FB-05FCEA5C6558";
shapes = (
{
attr = {
lineCapEnd = 4;
lineCapStart = 4;
strokeWidth = 30;
};
closed = 0;
nodes = (
(510,38,l),
(74,274,l),
(510,533,l)
);
}
);
width = 600;
}
);
unicode = 60;
}
{
glyphname = equal;
lastChange = "2025-08-07 23:44:52 +0000";
layers = (
{
layerId = m01;
shapes = (
{
closed = 1;
nodes = (
(82,138,l),
(518,138,l),
(518,198,l),
(82,198,l)
);
},
{
closed = 1;
nodes = (
(82,358,l),
(518,358,l),
(518,418,l),
(82,418,l)
);
}
);
width = 600;
},
{
layerId = "BDCBA76E-5474-4BD3-A1CC-9641C626CFE7";
shapes = (
{
closed = 1;
nodes = (
(82,138,l),
(518,138,l),
(518,228,l),
(82,228,l)
);
},
{
closed = 1;
nodes = (
(82,328,l),
(518,328,l),
(518,418,l),
(82,418,l)
);
}
);
width = 600;
},
{
layerId = "D8CC3DFA-F3EA-4C7D-84FB-05FCEA5C6558";
shapes = (
{
closed = 1;
nodes = (
(82,153,l),
(518,153,l),
(518,183,l),
(82,183,l)
);
},
{
closed = 1;
nodes = (
(82,373,l),
(518,373,l),
(518,403,l),
(82,403,l)
);
}
);
width = 600;
}
);
unicode = 61;
}
{
glyphname = question;
lastChange = "2025-08-07 23:00:45 +0000";
layers = (
{
layerId = m01;
shapes = (
{
closed = 1;
nodes = (
(302,145,l),
(302,223,ls),
(301,257,o),
(327,283,o),
(361,283,cs),
(366,283,ls),
(434,283,o),
(486,335,o),
(485,403,cs),
(485,500,ls),
(486,568,o),
(434,620,o),
(366,620,cs),
(116,620,l),
(116,560,l),
(366,560,ls),
(400,560,o),
(426,534,o),
(425,500,cs),
(425,403,ls),
(426,369,o),
(400,343,o),
(366,343,cs),
(361,343,ls),
(293,343,o),
(241,291,o),
(242,223,cs),
(242,145,l)
);
},
{
pos = (-27,0);
ref = period;
}
);
width = 600;
},
{
layerId = "BDCBA76E-5474-4BD3-A1CC-9641C626CFE7";
shapes = (
{
closed = 1;
nodes = (
(317,145,l),
(317,253,ls),
(317,270,o),
(330,283,o),
(347,283,cs),
(366,283,ls),
(434,283,o),
(486,335,o),
(485,403,cs),
(485,501,ls),
(485,569,o),
(433,621,o),
(365,620,cs),
(116,620,l),
(116,530,l),
(365,530,ls),
(382,530,o),
(395,517,o),
(395,500,cs),
(395,403,ls),
(395,386,o),
(382,373,o),
(365,373,cs),
(347,373,ls),
(279,374,o),
(227,322,o),
(227,254,cs),
(227,145,l)
);
},
{
pos = (-25,0);
ref = period;
}
);
width = 600;
},
{
layerId = "D8CC3DFA-F3EA-4C7D-84FB-05FCEA5C6558";
shapes = (
{
closed = 1;
nodes = (
(276,130,l),
(276,193,ls),
(275,244,o),
(314,283,o),
(365,283,cs),
(366,283,ls),
(434,283,o),
(486,335,o),
(485,403,cs),
(485,500,ls),
(486,568,o),
(434,620,o),
(366,620,cs),
(116,620,l),
(116,590,l),
(366,590,ls),
(417,590,o),
(456,551,o),
(455,500,cs),
(455,403,ls),
(456,352,o),
(417,313,o),
(366,313,cs),
(365,313,ls),
(297,313,o),
(245,261,o),
(246,193,cs),
(246,130,l)
);
},
{
pos = (-37,0);
ref = period;
}
);
width = 600;
}
);
unicode = 63;
}
{
glyphname = at;
lastChange = "2025-08-07 23:27:07 +0000";
layers = (
{
layerId = m01;
shapes = (
{
closed = 1;
nodes = (
(407,-16,ls),
(475,-16,o),
(527,36,o),
(527,104,cs),
(527,441,ls),
(527,543,o),
(449,621,o),
(347,621,cs),
(104,621,l),
(104,561,l),
(347,561,ls),
(415,561,o),
(467,509,o),
(467,441,cs),
(467,104,ls),
(467,70,o),
(441,44,o),
(407,44,cs),
(194,44,ls),
(160,44,o),
(134,70,o),
(134,104,cs),
(134,396,ls),
(134,422,o),
(154,441,o),
(179,441,cs),
(302,441,ls),
(328,441,o),
(347,422,o),
(347,396,cs),
(347,176,ls),
(347,169,o),
(342,164,o),
(335,164,cs),
(266,164,ls),
(259,164,o),
(254,169,o),
(254,176,cs),
(254,309,ls),
(254,316,o),
(259,321,o),
(266,321,cs),
(381,321,l),
(381,381,l),
(230,381,ls),
(210,381,o),
(194,365,o),
(194,345,cs),
(194,140,ls),
(194,120,o),
(210,104,o),
(230,104,cs),
(371,104,ls),
(391,104,o),
(407,120,o),
(407,140,cs),
(407,411,ls),
(407,462,o),
(368,501,o),
(317,501,cs),
(164,501,ls),
(113,501,o),
(74,462,o),
(74,411,cs),
(74,104,ls),
(74,36,o),
(126,-16,o),
(194,-16,cs)
);
}
);
width = 600;
},
{
layerId = "BDCBA76E-5474-4BD3-A1CC-9641C626CFE7";
shapes = (
{
closed = 1;
nodes = (
(436,-16,l),
(504,-16,o),
(556,51,o),
(556,119,c),
(556,509,l),
(556,611,o),
(478,689,o),
(376,689,c),
(104,689,l),
(104,599,l),
(376,599,l),
(427,599,o),
(466,560,o),
(466,509,c),
(466,104,l),
(466,87,o),
(453,74,o),
(436,74,c),
(165,74,l),
(148,74,o),
(135,87,o),
(135,104,c),
(135,435,l),
(135,452,o),
(148,465,o),
(165,465,c),
(302,465,l),
(319,465,o),
(332,452,o),
(332,435,c),
(332,220,l),
(332,213,o),
(327,208,o),
(320,208,c),
(281,208,l),
(274,208,o),
(269,213,o),
(269,220,c),
(269,319,l),
(269,326,o),
(274,331,o),
(281,331,c),
(381,331,l),
(381,421,l),
(215,421,l),
(195,421,o),
(179,405,o),
(179,385,c),
(179,154,l),
(179,134,o),
(195,118,o),
(215,118,c),
(386,118,l),
(406,118,o),
(422,134,o),
(422,154,c),
(422,465,l),
(422,516,o),
(383,555,o),
(332,555,c),
(135,555,l),
(84,555,o),
(45,516,o),
(45,465,c),
(45,119,l),
(45,51,o),
(97,-16,o),
(165,-16,c)
);
}
);
width = 600;
},
{
layerId = "D8CC3DFA-F3EA-4C7D-84FB-05FCEA5C6558";
shapes = (
{
closed = 1;
nodes = (
(347,-16,l),
(449,-16,o),
(527,62,o),
(527,164,c),
(527,441,l),
(527,543,o),
(449,621,o),
(347,621,c),
(104,621,l),
(104,591,l),
(345,591,l),
(430,591,o),
(495,526,o),
(496,441,c),
(497,164,l),
(497,79,o),
(432,14,o),
(347,14,c),
(254,14,l),
(169,14,o),
(104,79,o),
(104,164,c),
(104,351,l),
(104,419,o),
(156,471,o),
(224,471,c),
(317,471,l),
(351,471,o),
(377,445,o),
(377,411,c),
(377,164,l),
(377,147,o),
(364,134,o),
(347,134,c),
(254,134,l),
(237,134,o),
(224,147,o),
(224,164,c),
(224,321,l),
(224,338,o),
(237,351,o),
(254,351,c),
(391,351,l),
(391,381,l),
(254,381,l),
(220,381,o),
(194,355,o),
(194,321,c),
(194,164,l),
(194,130,o),
(220,104,o),
(254,104,c),
(347,104,l),
(381,104,o),
(407,130,o),
(407,164,c),
(407,411,l),
(407,462,o),
(368,501,o),
(317,501,c),
(224,501,l),
(139,501,o),
(74,436,o),
(74,351,c),
(74,164,l),
(74,62,o),
(152,-16,o),
(254,-16,c)
);
}
);
width = 600;
}
);
unicode = 64;
}
{
color = 4;
glyphname = A;
lastChange = "2025-08-10 18:31:08 +0000";
layers = (
{
anchors = (
{
name = bottom;
pos = (300,0);
},
{
name = ogonek;
pos = (481,0);
},
{
name = top;
pos = (300,620);
}
);
layerId = m01;
shapes = (
{
closed = 1;
nodes = (
(110,330,l),
(488,330,l),
(488,390,l),
(110,390,l)
);
},
{
closed = 1;
nodes = (
(458,0,l),
(518,0,l),
(517,500,l),
(518,568,o),
(466,620,o),
(398,620,cs),
(201,620,ls),
(133,620,o),
(81,568,o),
(82,500,c),
(83,0,l),
(143,0,l),
(142,500,l),
(141,534,o),
(167,560,o),
(201,560,cs),
(398,560,ls),
(432,560,o),
(458,534,o),
(457,500,c)
);
}
);
width = 600;
},
{
anchors = (
{
name = bottom;
pos = (300,0);
},
{
name = ogonek;
pos = (467,0);
},
{
name = top;
pos = (300,620);
}
);
layerId = "BDCBA76E-5474-4BD3-A1CC-9641C626CFE7";
shapes = (
{
closed = 1;
nodes = (
(127,290,l),
(479,290,l),
(479,380,l),
(127,380,l)
);
},
{
closed = 1;
nodes = (
(429,0,l),
(519,0,l),
(518,500,ls),
(519,568,o),
(467,620,o),
(399,620,cs),
(201,620,ls),
(133,620,o),
(81,568,o),
(82,500,cs),
(83,0,l),
(173,0,l),
(172,500,ls),
(172,517,o),
(185,530,o),
(202,530,cs),
(398,530,ls),
(415,530,o),
(428,517,o),
(428,500,cs)
);
}
);
width = 600;
},
{
anchors = (
{
name = bottom;
pos = (300,0);
},
{
name = ogonek;
pos = (504,0);
},
{
name = top;
pos = (300,620);
}
);
layerId = "D8CC3DFA-F3EA-4C7D-84FB-05FCEA5C6558";
shapes = (
{
closed = 1;
nodes = (
(98,350,l),
(505,350,l),
(505,380,l),
(98,380,l)
);
},
{
closed = 1;
nodes = (
(489,0,l),
(519,0,l),
(518,500,ls),
(519,568,o),
(467,620,o),
(399,620,cs),
(201,620,ls),
(133,620,o),
(81,568,o),
(82,500,cs),
(83,0,l),
(113,0,l),
(112,500,ls),
(111,551,o),
(150,590,o),
(201,590,cs),
(399,590,ls),
(450,590,o),
(488,551,o),
(488,500,cs)
);
}
);
width = 600;
}
);
unicode = 65;
}
{
color = 4;
glyphname = B;
lastChange = "2025-08-02 18:24:22 +0000";
layers = (
{
anchors = (
{
name = bottom;
pos = (300,0);
},
{
name = center;
pos = (150,155);
},
{
name = top;
pos = (300,620);
}
);
layerId = m01;
shapes = (
{
closed = 1;
nodes = (
(399,0,ls),
(467,0,o),
(519,52,o),
(518,120,cs),
(518,270,ls),
(519,307,o),
(503,339,o),
(480,360,c),
(503,381,o),
(519,413,o),
(518,450,cs),
(518,500,ls),
(519,568,o),
(467,620,o),
(399,620,cs),
(82,620,l),
(82,0,l)
);
},
{
closed = 1;
nodes = (
(142,587,l),
(114,560,l),
(399,560,ls),
(433,560,o),
(459,534,o),
(458,500,cs),
(458,450,ls),
(459,416,o),
(433,390,o),
(399,390,cs),
(112,390,l),
(112,330,l),
(399,330,ls),
(433,330,o),
(459,304,o),
(458,270,cs),
(458,120,ls),
(459,86,o),
(433,60,o),
(399,60,cs),
(112,60,l),
(142,30,l)
);
}
);
width = 600;
},
{
anchors = (
{
name = bottom;
pos = (300,0);
},
{
name = center;
pos = (150,155);
},
{
name = top;
pos = (300,620);
}
);
layerId = "BDCBA76E-5474-4BD3-A1CC-9641C626CFE7";
shapes = (
{
closed = 1;
nodes = (
(399,0,ls),
(467,0,o),
(519,52,o),
(518,120,cs),
(518,260,ls),
(518,288,o),
(510,314,o),
(494,335,c),
(509,355,o),
(518,382,o),
(518,410,cs),
(518,500,ls),
(519,568,o),
(467,620,o),
(399,620,cs),
(82,620,l),
(82,0,l)
);
},
{
closed = 1;
nodes = (
(172,575,l),
(127,530,l),
(398,530,ls),
(415,530,o),
(428,517,o),
(428,500,cs),
(428,410,ls),
(428,393,o),
(415,380,o),
(398,380,cs),
(128,380,l),
(128,290,l),
(398,290,ls),
(415,290,o),
(428,277,o),
(428,260,cs),
(428,120,ls),
(428,103,o),
(415,90,o),
(398,90,cs),
(127,90,l),
(172,45,l)
);
}
);
width = 600;
},
{
anchors = (
{
name = bottom;
pos = (300,0);
},
{
name = center;
pos = (150,155);
},
{
name = top;
pos = (300,620);
}
);
layerId = "D8CC3DFA-F3EA-4C7D-84FB-05FCEA5C6558";
shapes = (
{
closed = 1;
nodes = (
(399,0,ls),
(467,0,o),
(519,52,o),
(518,120,cs),
(518,270,ls),
(519,317,o),
(495,355,o),
(459,375,c),
(495,395,o),
(519,433,o),
(518,480,cs),
(518,500,ls),
(519,568,o),
(467,620,o),
(399,620,cs),
(82,620,l),
(82,0,l)
);
},
{
closed = 1;
nodes = (
(112,606,l),
(97,590,l),
(399,590,ls),
(450,590,o),
(489,551,o),
(488,500,cs),
(488,480,ls),
(489,429,o),
(450,390,o),
(399,390,cs),
(97,390,l),
(97,360,l),
(399,360,ls),
(450,360,o),
(489,321,o),
(488,270,cs),
(488,120,ls),
(489,69,o),
(450,30,o),
(399,30,cs),
(96,30,l),
(112,14,l)
);
}
);
width = 600;
}
);
unicode = 66;
}
{
color = 4;
glyphname = C;
lastChange = "2025-08-02 18:24:29 +0000";
layers = (
{
anchors = (
{
name = bottom;
pos = (300,0);
},
{
name = top;
pos = (300,620);
}
);
layerId = m01;
shapes = (
{
closed = 1;
nodes = (
(133,620,o),
(81,568,o),
(82,500,cs),
(82,120,ls),
(81,52,o),
(133,0,o),
(201,0,cs),
(518,0,l),
(518,60,l),
(201,60,ls),
(167,60,o),
(141,86,o),
(142,120,cs),
(142,500,ls),
(141,534,o),
(167,560,o),
(201,560,cs),
(518,560,l),
(518,620,l),
(201,620,ls)
);
}
);
width = 600;
},
{
anchors = (
{
name = bottom;
pos = (300,0);
},
{
name = top;
pos = (300,620);
}
);
layerId = "BDCBA76E-5474-4BD3-A1CC-9641C626CFE7";
shapes = (
{
closed = 1;
nodes = (
(133,620,o),
(81,568,o),
(82,500,cs),
(82,120,ls),
(81,52,o),
(133,0,o),
(201,0,cs),
(518,0,l),
(518,90,l),
(202,90,ls),
(185,90,o),
(172,103,o),
(172,120,cs),
(172,500,ls),
(172,517,o),
(185,530,o),
(202,530,cs),
(518,530,l),
(518,620,l),
(201,620,ls)
);
}
);
width = 600;
},
{
anchors = (
{
name = bottom;
pos = (300,0);
},
{
name = top;
pos = (300,620);
}
);
layerId = "D8CC3DFA-F3EA-4C7D-84FB-05FCEA5C6558";
shapes = (
{
closed = 1;
nodes = (
(133,620,o),
(81,568,o),
(82,500,cs),
(82,120,ls),
(81,52,o),
(133,0,o),
(201,0,cs),
(518,0,l),
(518,30,l),
(201,30,ls),
(150,30,o),
(111,69,o),
(112,120,cs),
(112,500,ls),
(111,551,o),
(150,590,o),
(201,590,cs),
(518,590,l),
(518,620,l),
(201,620,ls)
);
}
);
width = 600;
}
);
unicode = 67;
}
{
color = 4;
glyphname = E;
lastChange = "2025-08-10 18:41:47 +0000";
layers = (
{
anchors = (
{
name = bottom;
pos = (300,0);
},
{
name = ogonek;
pos = (481,0);
},
{
name = top;
pos = (300,620);
},
{
name = topleft;
pos = (20,620);
}
);
layerId = m01;
shapes = (
{
closed = 1;
nodes = (
(82,0,l),
(518,0,l),
(518,60,l),
(108,60,l),
(142,28,l),
(142,590,l),
(108,560,l),
(518,560,l),
(518,620,l),
(82,620,l)
);
},
{
closed = 1;
nodes = (
(108,330,l),
(442,330,l),
(442,390,l),
(108,390,l)
);
}
);
width = 600;
},
{
anchors = (
{
name = bottom;
pos = (300,0);
},
{
name = ogonek;
pos = (467,0);
},
{
name = top;
pos = (300,620);
},
{
name = topleft;
pos = (20,620);
}
);
layerId = "BDCBA76E-5474-4BD3-A1CC-9641C626CFE7";
shapes = (
{
closed = 1;
nodes = (
(82,0,l),
(518,0,l),
(518,90,l),
(148,90,l),
(172,28,l),
(172,590,l),
(148,530,l),
(518,530,l),
(518,620,l),
(82,620,l)
);
},
{
closed = 1;
nodes = (
(148,290,l),
(442,290,l),
(442,380,l),
(148,380,l)
);
}
);
width = 600;
},
{
anchors = (
{
name = bottom;
pos = (300,0);
},
{
name = ogonek;
pos = (503,0);
},
{
name = top;
pos = (300,620);
},
{
name = topleft;
pos = (20,620);
}
);
layerId = "D8CC3DFA-F3EA-4C7D-84FB-05FCEA5C6558";
shapes = (
{
closed = 1;
nodes = (
(82,0,l),
(518,0,l),
(518,30,l),
(98,30,l),
(112,12,l),
(112,607,l),
(98,590,l),
(518,590,l),
(518,620,l),
(82,620,l)
);
},
{
closed = 1;
nodes = (
(98,360,l),
(442,360,l),
(442,390,l),
(98,390,l)
);
}
);
width = 600;
}
);
unicode = 69;
}
{
color = 4;
glyphname = F;
lastChange = "2025-08-02 18:24:43 +0000";
layers = (
{
anchors = (
{
name = bottom;
pos = (300,0);
},
{
name = top;
pos = (300,620);
}
);
layerId = m01;
shapes = (
{
closed = 1;
nodes = (
(82,0,l),
(142,0,l),
(142,595,l),
(113,560,l),
(518,560,l),
(518,620,l),
(82,620,l)
);
},
{
closed = 1;
nodes = (
(113,330,l),
(442,330,l),
(442,390,l),
(113,390,l)
);
}
);
width = 600;
},
{
anchors = (
{
name = bottom;
pos = (300,0);
},
{
name = top;
pos = (300,620);
}
);
layerId = "BDCBA76E-5474-4BD3-A1CC-9641C626CFE7";
shapes = (
{
closed = 1;
nodes = (
(82,0,l),
(172,0,l),
(172,571,l),
(133,530,l),
(518,530,l),
(518,620,l),
(82,620,l)
);
},
{
closed = 1;
nodes = (
(133,290,l),
(442,290,l),
(442,380,l),
(133,380,l)
);
}
);
width = 600;
},
{
anchors = (
{
name = bottom;
pos = (300,0);
},
{
name = top;
pos = (300,620);
}
);
layerId = "D8CC3DFA-F3EA-4C7D-84FB-05FCEA5C6558";
shapes = (
{
closed = 1;
nodes = (
(82,0,l),
(112,0,l),
(112,605,l),
(96,590,l),
(518,590,l),
(518,620,l),
(82,620,l)
);
},
{
closed = 1;
nodes = (
(96,360,l),
(442,360,l),
(442,390,l),
(96,390,l)
);
}
);
width = 600;
}
);
unicode = 70;
}
{
color = 4;
glyphname = H;
lastChange = "2025-08-02 18:24:52 +0000";
layers = (
{
anchors = (
{
name = bottom;
pos = (300,0);
},
{
name = center;
pos = (300,465);
},
{
name = top;
pos = (300,620);
},
{
name = topleft;
pos = (20,620);
}
);
layerId = m01;
shapes = (
{
closed = 1;
nodes = (
(82,0,l),
(142,0,l),
(142,620,l),
(82,620,l)
);
},
{
closed = 1;
nodes = (
(458,0,l),
(518,0,l),
(518,620,l),
(458,620,l)
);
},
{
closed = 1;
nodes = (
(114,330,l),
(489,330,l),
(489,390,l),
(114,390,l)
);
}
);
width = 600;
},
{
anchors = (
{
name = bottom;
pos = (300,0);
},
{
name = center;
pos = (300,465);
},
{
name = top;
pos = (300,620);
},
{
name = topleft;
pos = (20,620);
}
);
layerId = "BDCBA76E-5474-4BD3-A1CC-9641C626CFE7";
shapes = (
{
closed = 1;
nodes = (
(82,0,l),
(172,0,l),
(172,620,l),
(82,620,l)
);
},
{
closed = 1;
nodes = (
(428,0,l),
(518,0,l),
(518,620,l),
(428,620,l)
);
},
{
closed = 1;
nodes = (
(114,300,l),
(489,300,l),
(489,390,l),
(114,390,l)
);
}
);
width = 600;
},
{
anchors = (
{
name = bottom;
pos = (300,0);
},
{
name = center;
pos = (300,465);
},
{
name = top;
pos = (300,620);
},
{
name = topleft;
pos = (20,620);
}
);
layerId = "D8CC3DFA-F3EA-4C7D-84FB-05FCEA5C6558";
shapes = (
{
closed = 1;
nodes = (
(82,0,l),
(112,0,l),
(112,620,l),
(82,620,l)
);
},
{
closed = 1;
nodes = (
(488,0,l),
(518,0,l),
(518,620,l),
(488,620,l)
);
},
{
closed = 1;
nodes = (
(97,360,l),
(502,360,l),
(502,390,l),
(97,390,l)
);
}
);
width = 600;
}
);
unicode = 72;
}
{
color = 4;
glyphname = I;
lastChange = "2025-08-02 18:24:57 +0000";
layers = (
{
anchors = (
{
name = bottom;
pos = (300,0);
},
{
name = ogonek;
pos = (540,10);
},
{
name = top;
pos = (300,620);
},
{
name = topleft;
pos = (20,620);
}
);
layerId = m01;
shapes = (
{
closed = 1;
nodes = (
(518,620,l),
(82,620,l),
(82,560,l),
(518,560,l)
);
},
{
closed = 1;
nodes = (
(82,60,l),
(82,0,l),
(518,0,l),
(518,60,l)
);
},
{
closed = 1;
nodes = (
(270,592,l),
(270,27,l),
(330,27,l),
(330,592,l)
);
}
);
width = 600;
},
{
anchors = (
{
name = bottom;
pos = (300,0);
},
{
name = ogonek;
pos = (540,10);
},
{
name = top;
pos = (300,620);
},
{
name = topleft;
pos = (20,620);
}
);
layerId = "BDCBA76E-5474-4BD3-A1CC-9641C626CFE7";
shapes = (
{
closed = 1;
nodes = (
(518,620,l),
(82,620,l),
(82,530,l),
(518,530,l)
);
},
{
closed = 1;
nodes = (
(82,90,l),
(82,0,l),
(518,0,l),
(518,90,l)
);
},
{
closed = 1;
nodes = (
(255,576,l),
(255,48,l),
(345,48,l),
(345,576,l)
);
}
);
width = 600;
},
{
anchors = (
{
name = bottom;
pos = (300,0);
},
{
name = ogonek;
pos = (540,10);
},
{
name = top;
pos = (300,620);
},
{
name = topleft;
pos = (20,620);
}
);
layerId = "D8CC3DFA-F3EA-4C7D-84FB-05FCEA5C6558";
shapes = (
{
closed = 1;
nodes = (
(518,620,l),
(82,620,l),
(82,590,l),
(518,590,l)
);
},
{
closed = 1;
nodes = (
(82,30,l),
(82,0,l),
(518,0,l),
(518,30,l)
);
},
{
closed = 1;
nodes = (
(285,605,l),
(285,13,l),
(315,13,l),
(315,605,l)
);
}
);
width = 600;
}
);
unicode = 73;
}
{
color = 4;
glyphname = J;
lastChange = "2025-08-02 18:25:08 +0000";
layers = (
{
anchors = (
{
name = bottom;
pos = (300,0);
},
{
name = top;
pos = (300,620);
}
);
layerId = m01;
shapes = (
{
closed = 1;
nodes = (
(82,240,l),
(82,120,ls),
(81,52,o),
(133,0,o),
(201,0,cs),
(399,0,ls),
(467,0,o),
(519,52,o),
(518,120,cs),
(518,620,l),
(458,620,l),
(458,120,ls),
(459,86,o),
(433,60,o),
(399,60,cs),
(201,60,ls),
(167,60,o),
(141,86,o),
(142,120,cs),
(142,240,l)
);
}
);
width = 600;
},
{
anchors = (
{
name = bottom;
pos = (300,0);
},
{
name = top;
pos = (300,620);
}
);
layerId = "BDCBA76E-5474-4BD3-A1CC-9641C626CFE7";
shapes = (
{
closed = 1;
nodes = (
(62,240,l),
(62,119,ls),
(62,51,o),
(114,-1,o),
(182,0,cs),
(378,0,ls),
(446,-1,o),
(498,51,o),
(498,119,cs),
(498,620,l),
(408,620,l),
(408,120,ls),
(408,103,o),
(395,90,o),
(378,90,cs),
(182,90,ls),
(165,90,o),
(152,103,o),
(152,120,cs),
(152,240,l)
);
}
);
width = 600;
},
{
anchors = (
{
name = bottom;
pos = (300,0);
},
{
name = top;
pos = (300,620);
}
);
layerId = "D8CC3DFA-F3EA-4C7D-84FB-05FCEA5C6558";
shapes = (
{
closed = 1;
nodes = (
(82,240,l),
(82,120,ls),
(81,52,o),
(133,0,o),
(201,0,cs),
(399,0,ls),
(467,0,o),
(519,52,o),
(518,120,cs),
(518,620,l),
(488,620,l),
(488,120,ls),
(489,69,o),
(450,30,o),
(399,30,cs),
(201,30,ls),
(150,30,o),
(111,69,o),
(112,120,cs),
(112,240,l)
);
}
);
width = 600;
}
);
unicode = 74;
}
{
color = 4;
glyphname = K;
lastChange = "2025-08-10 16:15:40 +0000";
layers = (
{
anchors = (
{
name = bottom;
pos = (300,0);
},
{
name = top;
pos = (300,620);
}
);
layerId = m01;
shapes = (
{
closed = 1;
nodes = (
(91,0,l),
(151,0,l),
(151,620,l),
(91,620,l)
);
},
{
closed = 1;
nodes = (
(265,332,l),
(478,0,l),
(550,0,l),
(302,393,l)
);
},
{
closed = 1;
nodes = (
(507,620,l),
(435,620,l),
(120,232,l),
(119,123,l)
);
}
);
width = 600;
},
{
anchors = (
{
name = bottom;
pos = (300,0);
},
{
name = top;
pos = (300,620);
}
);
layerId = "BDCBA76E-5474-4BD3-A1CC-9641C626CFE7";
shapes = (
{
closed = 1;
nodes = (
(90,0,l),
(180,0,l),
(180,620,l),
(90,620,l)
);
},
{
closed = 1;
nodes = (
(231,332,l),
(443,0,l),
(550,0,l),
(299,393,l)
);
},
{
closed = 1;
nodes = (
(516,620,l),
(402,620,l),
(111,236,l),
(138,123,l)
);
}
);
width = 600;
},
{
anchors = (
{
name = bottom;
pos = (300,0);
},
{
name = top;
pos = (300,620);
}
);
layerId = "D8CC3DFA-F3EA-4C7D-84FB-05FCEA5C6558";
shapes = (
{
closed = 1;
nodes = (
(91,0,l),
(121,0,l),
(121,620,l),
(91,620,l)
);
},
{
closed = 1;
nodes = (
(285,363,l),
(515,0,l),
(550,0,l),
(302,393,l)
);
},
{
closed = 1;
nodes = (
(507,620,l),
(469,620,l),
(105,154,l),
(105,105,l)
);
}
);
width = 600;
}
);
unicode = 75;
}
{
color = 4;
glyphname = L;
lastChange = "2025-08-02 18:25:18 +0000";
layers = (
{
anchors = (
{
name = bottom;
pos = (300,0);
},
{
name = center;
pos = (300,310);
},
{
name = top;
pos = (300,620);
},
{
name = topright;
pos = (580,620);
}
);
layerId = m01;
shapes = (
{
closed = 1;
nodes = (
(82,620,l),
(82,0,l),
(518,0,l),
(518,60,l),
(111,60,l),
(142,31,l),
(142,620,l)
);
}
);
width = 600;
},
{
anchors = (
{
name = bottom;
pos = (300,0);
},
{
name = center;
pos = (300,310);
},
{
name = top;
pos = (300,620);
},
{
name = topright;
pos = (580,620);
}
);
layerId = "BDCBA76E-5474-4BD3-A1CC-9641C626CFE7";
shapes = (
{
closed = 1;
nodes = (
(82,620,l),
(82,0,l),
(518,0,l),
(518,90,l),
(111,90,l),
(172,31,l),
(172,620,l)
);
}
);
width = 600;
},
{
anchors = (
{
name = bottom;
pos = (300,0);
},
{
name = center;
pos = (300,310);
},
{
name = top;
pos = (300,620);
},
{
name = topright;
pos = (580,620);
}
);
layerId = "D8CC3DFA-F3EA-4C7D-84FB-05FCEA5C6558";
shapes = (
{
closed = 1;
nodes = (
(82,620,l),
(82,0,l),
(518,0,l),
(518,30,l),
(96,30,l),
(112,12,l),
(112,620,l)
);
}
);
width = 600;
}
);
unicode = 76;
}
{
color = 4;
glyphname = M;
lastChange = "2025-08-02 18:25:23 +0000";
layers = (
{
anchors = (
{
name = bottom;
pos = (300,0);
},
{
name = top;
pos = (300,620);
}
);
guides = (
{
pos = (-199,630);
}
);
layerId = m01;
shapes = (
{
closed = 1;
nodes = (
(122,0,l),
(122,588,l),
(91,588,l),
(266,237,l),
(334,237,l),
(512,594,l),
(478,594,l),
(478,0,l),
(538,0,l),
(538,620,l),
(458,620,l),
(279,261,l),
(321,261,l),
(142,620,l),
(62,620,l),
(62,0,l)
);
}
);
width = 600;
},
{
anchors = (
{
name = bottom;
pos = (300,0);
},
{
name = top;
pos = (300,620);
}
);
guides = (
{
pos = (-199,630);
}
);
layerId = "BDCBA76E-5474-4BD3-A1CC-9641C626CFE7";
shapes = (
{
closed = 1;
nodes = (
(350,270,l),
(511,594,l),
(448,594,l),
(448,0,l),
(538,0,l),
(538,620,l),
(424,620,l),
(264,299,l),
(336,299,l),
(176,620,l),
(62,620,l),
(62,0,l),
(152,0,l),
(152,588,l),
(91,588,l),
(249,270,l)
);
}
);
width = 600;
},
{
anchors = (
{
name = bottom;
pos = (300,0);
},
{
name = top;
pos = (300,620);
}
);
guides = (
{
pos = (-199,630);
}
);
layerId = "D8CC3DFA-F3EA-4C7D-84FB-05FCEA5C6558";
shapes = (
{
closed = 1;
nodes = (
(92,0,l),
(92,611,l),
(83,610,l),
(286,203,l),
(317,203,l),
(521,613,l),
(508,613,l),
(508,0,l),
(538,0,l),
(538,620,l),
(494,620,l),
(292,222,l),
(310,222,l),
(109,620,l),
(62,620,l),
(62,0,l)
);
}
);
width = 600;
}
);
unicode = 77;
}
{
color = 4;
glyphname = N;
lastChange = "2025-08-02 18:25:28 +0000";
layers = (
{
anchors = (
{
name = bottom;
pos = (300,0);
},
{
name = top;
pos = (300,620);
}
);
layerId = m01;
shapes = (
{
closed = 1;
nodes = (
(518,0,l),
(518,620,l),
(458,620,l),
(458,20,l),
(478,20,l),
(177,620,l),
(86,620,l),
(82,0,l),
(142,0,l),
(146,589,l),
(126,589,l),
(421,0,l)
);
}
);
width = 600;
},
{
anchors = (
{
name = bottom;
pos = (300,0);
},
{
name = top;
pos = (300,620);
}
);
layerId = "BDCBA76E-5474-4BD3-A1CC-9641C626CFE7";
shapes = (
{
closed = 1;
nodes = (
(518,0,l),
(518,620,l),
(428,620,l),
(428,56,l),
(485,56,l),
(202,620,l),
(86,620,l),
(82,0,l),
(172,0,l),
(176,562,l),
(131,562,l),
(412,0,l)
);
}
);
width = 600;
},
{
anchors = (
{
name = bottom;
pos = (300,0);
},
{
name = top;
pos = (300,620);
}
);
layerId = "D8CC3DFA-F3EA-4C7D-84FB-05FCEA5C6558";
shapes = (
{
closed = 1;
nodes = (
(518,0,l),
(518,620,l),
(488,620,l),
(488,21,l),
(501,21,l),
(127,620,l),
(86,620,l),
(82,0,l),
(112,0,l),
(115,607,l),
(99,607,l),
(478,0,l)
);
}
);
width = 600;
}
);
unicode = 78;
}
{
color = 4;
glyphname = O;
lastChange = "2025-08-03 15:55:51 +0000";
layers = (
{
anchors = (
{
name = bottom;
pos = (300,0);
},
{
name = center;
pos = (300,310);
},
{
name = ogonek;
pos = (540,10);
},
{
name = top;
pos = (300,620);
},
{
name = topleft;
pos = (20,620);
},
{
name = topright;
pos = (580,620);
}
);
layerId = m01;
shapes = (
{
closed = 1;
nodes = (
(399,0,ls),
(467,0,o),
(519,52,o),
(518,120,cs),
(518,500,ls),
(519,568,o),
(467,620,o),
(399,620,cs),
(201,620,ls),
(133,620,o),
(81,568,o),
(82,500,cs),
(82,120,ls),
(81,52,o),
(133,0,o),
(201,0,cs)
);
},
{
closed = 1;
nodes = (
(167,60,o),
(141,86,o),
(142,120,cs),
(142,500,ls),
(141,534,o),
(167,560,o),
(201,560,cs),
(399,560,ls),
(433,560,o),
(459,534,o),
(458,500,cs),
(458,120,ls),
(459,86,o),
(433,60,o),
(399,60,cs),
(201,60,ls)
);
}
);
width = 600;
},
{
anchors = (
{
name = bottom;
pos = (300,0);
},
{
name = center;
pos = (300,310);
},
{
name = ogonek;
pos = (540,10);
},
{
name = top;
pos = (300,620);
},
{
name = topleft;
pos = (20,620);
},
{
name = topright;
pos = (580,620);
}
);
layerId = "BDCBA76E-5474-4BD3-A1CC-9641C626CFE7";
shapes = (
{
closed = 1;
nodes = (
(399,0,ls),
(467,0,o),
(519,52,o),
(518,120,cs),
(518,500,ls),
(519,568,o),
(467,620,o),
(399,620,cs),
(201,620,ls),
(133,620,o),
(82,568,o),
(82,500,cs),
(82,120,ls),
(82,52,o),
(133,0,o),
(201,0,cs)
);
},
{
closed = 1;
nodes = (
(185,90,o),
(172,103,o),
(172,120,cs),
(172,500,ls),
(172,517,o),
(185,530,o),
(202,530,cs),
(398,530,ls),
(415,530,o),
(428,517,o),
(428,500,cs),
(428,120,ls),
(428,103,o),
(415,90,o),
(398,90,cs),
(202,90,ls)
);
}
);
width = 600;
},
{
anchors = (
{
name = bottom;
pos = (300,0);
},
{
name = center;
pos = (300,310);
},
{
name = ogonek;
pos = (540,10);
},
{
name = top;
pos = (300,620);
},
{
name = topleft;
pos = (20,620);
},
{
name = topright;
pos = (580,620);
}
);
layerId = "D8CC3DFA-F3EA-4C7D-84FB-05FCEA5C6558";
shapes = (
{
closed = 1;
nodes = (
(399,0,ls),
(467,0,o),
(519,52,o),
(518,120,cs),
(518,500,ls),
(519,568,o),
(467,620,o),
(399,620,cs),
(201,620,ls),
(133,620,o),
(81,568,o),
(82,500,c),
(82,120,ls),
(81,52,o),
(133,0,o),
(201,0,cs)
);
},
{
closed = 1;
nodes = (
(150,30,o),
(111,69,o),
(112,120,cs),
(112,500,ls),
(111,551,o),
(150,590,o),
(201,590,cs),
(399,590,ls),
(450,590,o),
(488,551,o),
(488,500,cs),
(488,120,ls),
(488,69,o),
(450,30,o),
(399,30,cs),
(201,30,ls)
);
}
);
width = 600;
}
);
unicode = 79;
}
{
color = 4;
glyphname = P;
lastChange = "2025-08-02 18:25:39 +0000";
layers = (
{
anchors = (
{
name = bottom;
pos = (300,0);
},
{
name = top;
pos = (300,620);
}
);
layerId = m01;
shapes = (
{
closed = 1;
nodes = (
(399,330,ls),
(467,330,o),
(519,382,o),
(518,450,cs),
(518,500,ls),
(519,568,o),
(467,620,o),
(399,620,cs),
(82,620,l),
(82,0,l),
(142,0,l),
(142,590,l),
(112,560,l),
(399,560,ls),
(433,560,o),
(459,534,o),
(458,500,cs),
(458,450,ls),
(459,416,o),
(433,390,o),
(399,390,cs),
(112,390,l),
(112,330,l)
);
}
);
width = 600;
},
{
anchors = (
{
name = bottom;
pos = (300,0);
},
{
name = top;
pos = (300,620);
}
);
layerId = "BDCBA76E-5474-4BD3-A1CC-9641C626CFE7";
shapes = (
{
closed = 1;
nodes = (
(398,290,ls),
(466,290,o),
(518,341,o),
(518,409,cs),
(518,501,ls),
(518,569,o),
(466,621,o),
(398,620,cs),
(82,620,l),
(82,0,l),
(172,0,l),
(172,575,l),
(127,530,l),
(398,530,ls),
(415,530,o),
(428,517,o),
(428,500,cs),
(428,410,ls),
(428,393,o),
(415,380,o),
(398,380,cs),
(127,380,l),
(127,290,l)
);
}
);
width = 600;
},
{
anchors = (
{
name = bottom;
pos = (300,0);
},
{
name = top;
pos = (300,620);
}
);
layerId = "D8CC3DFA-F3EA-4C7D-84FB-05FCEA5C6558";
shapes = (
{
closed = 1;
nodes = (
(399,360,ls),
(467,360,o),
(519,412,o),
(518,480,cs),
(518,500,ls),
(519,568,o),
(467,620,o),
(399,620,cs),
(82,620,l),
(82,0,l),
(112,0,l),
(112,607,l),
(97,590,l),
(399,590,ls),
(450,590,o),
(489,551,o),
(488,500,cs),
(488,480,ls),
(489,429,o),
(450,390,o),
(399,390,cs),
(97,390,l),
(97,360,l)
);
}
);
width = 600;
}
);
unicode = 80;
}
{
color = 4;
glyphname = R;
lastChange = "2025-08-02 18:31:19 +0000";
layers = (
{
anchors = (
{
name = bottom;
pos = (300,0);
},
{
name = top;
pos = (300,620);
}
);
layerId = m01;
shapes = (
{
closed = 1;
nodes = (
(399,330,ls),
(433,330,o),
(459,304,o),
(458,270,cs),
(458,0,l),
(518,0,l),
(518,270,ls),
(519,307,o),
(503,339,o),
(480,360,c),
(503,381,o),
(519,413,o),
(518,450,cs),
(518,500,ls),
(519,568,o),
(467,620,o),
(399,620,cs),
(82,620,l),
(82,0,l),
(142,0,l),
(142,590,l),
(112,560,l),
(399,560,ls),
(433,560,o),
(459,534,o),
(458,500,cs),
(458,450,ls),
(459,416,o),
(433,390,o),
(399,390,cs),
(112,390,l),
(112,330,l)
);
}
);
width = 600;
},
{
anchors = (
{
name = bottom;
pos = (300,0);
},
{
name = top;
pos = (300,620);
}
);
layerId = "BDCBA76E-5474-4BD3-A1CC-9641C626CFE7";
shapes = (
{
closed = 1;
nodes = (
(398,290,ls),
(415,290,o),
(428,277,o),
(428,260,cs),
(428,0,l),
(518,0,l),
(518,261,ls),
(518,289,o),
(509,315,o),
(494,335,c),
(509,355,o),
(518,381,o),
(518,409,cs),
(518,501,ls),
(518,569,o),
(466,621,o),
(398,620,cs),
(82,620,l),
(82,0,l),
(172,0,l),
(172,575,l),
(127,530,l),
(398,530,ls),
(415,530,o),
(428,517,o),
(428,500,cs),
(428,410,ls),
(428,393,o),
(415,380,o),
(398,380,cs),
(127,380,l),
(127,290,l)
);
}
);
width = 600;
},
{
anchors = (
{
name = bottom;
pos = (300,0);
},
{
name = top;
pos = (300,620);
}
);
layerId = "D8CC3DFA-F3EA-4C7D-84FB-05FCEA5C6558";
shapes = (
{
closed = 1;
nodes = (
(397,360,ls),
(448,360,o),
(487,321,o),
(486,270,cs),
(486,0,l),
(516,0,l),
(516,270,ls),
(517,317,o),
(493,355,o),
(457,375,c),
(493,395,o),
(517,433,o),
(516,480,cs),
(516,500,ls),
(517,568,o),
(465,620,o),
(397,620,cs),
(80,620,l),
(80,0,l),
(110,0,l),
(110,605,l),
(95,590,l),
(397,590,ls),
(448,590,o),
(487,551,o),
(486,500,cs),
(486,480,ls),
(487,429,o),
(448,390,o),
(397,390,cs),
(95,390,l),
(95,360,l)
);
}
);
width = 600;
}
);
unicode = 82;
}
{
color = 4;
glyphname = S;
lastChange = "2025-08-02 18:31:24 +0000";
layers = (
{
anchors = (
{
name = bottom;
pos = (300,0);
},
{
name = top;
pos = (300,620);
}
);
layerId = m01;
shapes = (
{
closed = 1;
nodes = (
(488,620,l),
(201,620,ls),
(133,620,o),
(81,568,o),
(82,500,cs),
(82,450,ls),
(81,382,o),
(133,330,o),
(201,330,cs),
(399,330,ls),
(433,330,o),
(459,304,o),
(458,270,cs),
(458,120,ls),
(459,86,o),
(433,60,o),
(399,60,cs),
(82,60,l),
(82,0,l),
(399,0,ls),
(467,0,o),
(519,52,o),
(518,120,cs),
(518,270,ls),
(519,338,o),
(467,390,o),
(399,390,cs),
(201,390,ls),
(167,390,o),
(141,416,o),
(142,450,cs),
(142,500,ls),
(141,534,o),
(167,560,o),
(201,560,cs),
(488,560,l)
);
}
);
width = 600;
},
{
anchors = (
{
name = bottom;
pos = (268,0);
},
{
name = top;
pos = (268,620);
}
);
layerId = "BDCBA76E-5474-4BD3-A1CC-9641C626CFE7";
shapes = (
{
closed = 1;
nodes = (
(488,620,l),
(201,620,ls),
(133,620,o),
(81,568,o),
(82,500,cs),
(82,410,ls),
(81,342,o),
(133,290,o),
(201,290,cs),
(398,290,ls),
(415,290,o),
(428,277,o),
(428,260,cs),
(428,120,ls),
(428,103,o),
(415,90,o),
(398,90,cs),
(82,90,l),
(82,0,l),
(399,0,ls),
(467,0,o),
(519,52,o),
(518,120,cs),
(518,261,ls),
(518,329,o),
(466,381,o),
(398,380,cs),
(202,380,ls),
(185,380,o),
(172,393,o),
(172,410,cs),
(172,500,ls),
(172,517,o),
(185,530,o),
(202,530,cs),
(488,530,l)
);
}
);
width = 600;
},
{
anchors = (
{
name = bottom;
pos = (300,0);
},
{
name = top;
pos = (300,620);
}
);
layerId = "D8CC3DFA-F3EA-4C7D-84FB-05FCEA5C6558";
shapes = (
{
closed = 1;
nodes = (
(488,620,l),
(201,620,ls),
(133,620,o),
(81,568,o),
(82,500,cs),
(82,480,ls),
(81,412,o),
(133,360,o),
(201,360,cs),
(399,360,ls),
(450,360,o),
(489,321,o),
(488,270,cs),
(488,120,ls),
(489,69,o),
(450,30,o),
(399,30,cs),
(82,30,l),
(82,0,l),
(399,0,ls),
(467,0,o),
(519,52,o),
(518,120,cs),
(518,270,ls),
(519,338,o),
(467,390,o),
(399,390,cs),
(201,390,ls),
(150,390,o),
(111,429,o),
(112,480,cs),
(112,500,ls),
(111,551,o),
(150,590,o),
(201,590,cs),
(488,590,l)
);
}
);
width = 600;
}
);
unicode = 83;
}
{
color = 4;
glyphname = T;
lastChange = "2025-08-02 18:31:33 +0000";
layers = (
{
anchors = (
{
name = bottom;
pos = (300,0);
},
{
name = center;
pos = (300,310);
},
{
name = top;
pos = (300,620);
}
);
layerId = m01;
shapes = (
{
closed = 1;
nodes = (
(548,560,l),
(548,620,l),
(52,620,l),
(52,560,l)
);
},
{
closed = 1;
nodes = (
(270,0,l),
(330,0,l),
(330,585,l),
(270,585,l)
);
}
);
width = 600;
},
{
anchors = (
{
name = bottom;
pos = (300,0);
},
{
name = center;
pos = (300,310);
},
{
name = top;
pos = (300,620);
}
);
layerId = "BDCBA76E-5474-4BD3-A1CC-9641C626CFE7";
shapes = (
{
closed = 1;
nodes = (
(548,530,l),
(548,620,l),
(52,620,l),
(52,530,l)
);
},
{
closed = 1;
nodes = (
(255,0,l),
(345,0,l),
(345,585,l),
(255,585,l)
);
}
);
width = 600;
},
{
anchors = (
{
name = bottom;
pos = (300,0);
},
{
name = center;
pos = (300,310);
},
{
name = top;
pos = (300,620);
}
);
layerId = "D8CC3DFA-F3EA-4C7D-84FB-05FCEA5C6558";
shapes = (
{
closed = 1;
nodes = (
(548,590,l),
(548,620,l),
(52,620,l),
(52,590,l)
);
},
{
closed = 1;
nodes = (
(285,0,l),
(315,0,l),
(315,607,l),
(285,607,l)
);
}
);
width = 600;
}
);
unicode = 84;
}
{
color = 4;
glyphname = U;
lastChange = "2025-08-02 18:31:43 +0000";
layers = (
{
anchors = (
{
name = bottom;
pos = (300,0);
},
{
name = ogonek;
pos = (540,10);
},
{
name = top;
pos = (300,620);
},
{
name = topright;
pos = (580,620);
}
);
layerId = m01;
shapes = (
{
closed = 1;
nodes = (
(518,620,l),
(458,620,l),
(458,120,ls),
(459,86,o),
(433,60,o),
(399,60,cs),
(201,60,ls),
(167,60,o),
(141,86,o),
(142,120,cs),
(142,620,l),
(82,620,l),
(82,120,ls),
(81,52,o),
(133,0,o),
(201,0,cs),
(399,0,ls),
(467,0,o),
(519,52,o),
(518,120,cs)
);
}
);
width = 600;
},
{
anchors = (
{
name = bottom;
pos = (300,0);
},
{
name = ogonek;
pos = (540,10);
},
{
name = top;
pos = (300,620);
},
{
name = topright;
pos = (580,620);
}
);
layerId = "BDCBA76E-5474-4BD3-A1CC-9641C626CFE7";
shapes = (
{
closed = 1;
nodes = (
(518,620,l),
(428,620,l),
(428,120,ls),
(428,103,o),
(415,90,o),
(398,90,cs),
(202,90,ls),
(185,90,o),
(172,103,o),
(172,120,cs),
(172,620,l),
(82,620,l),
(82,120,ls),
(81,52,o),
(133,0,o),
(201,0,cs),
(399,0,ls),
(467,0,o),
(519,52,o),
(518,120,cs)
);
}
);
width = 600;
},
{
anchors = (
{
name = bottom;
pos = (300,0);
},
{
name = ogonek;
pos = (540,10);
},
{
name = top;
pos = (300,620);
},
{
name = topright;
pos = (580,620);
}
);
layerId = "D8CC3DFA-F3EA-4C7D-84FB-05FCEA5C6558";
shapes = (
{
closed = 1;
nodes = (
(518,620,l),
(488,620,l),
(488,120,ls),
(489,69,o),
(450,30,o),
(399,30,cs),
(201,30,ls),
(150,30,o),
(111,69,o),
(112,120,cs),
(112,620,l),
(82,620,l),
(82,120,ls),
(81,52,o),
(133,0,o),
(201,0,cs),
(399,0,ls),
(467,0,o),
(519,52,o),
(518,120,cs)
);
}
);
width = 600;
}
);
unicode = 85;
}
{
color = 4;
glyphname = V;
lastChange = "2025-08-02 18:31:48 +0000";
layers = (
{
anchors = (
{
name = bottom;
pos = (268,0);
},
{
name = top;
pos = (268,620);
}
);
layerId = m01;
shapes = (
{
closed = 1;
nodes = (
(347,0,l),
(518,620,l),
(456,620,l),
(289,17,l),
(311,17,l),
(144,620,l),
(82,620,l),
(253,0,l)
);
}
);
width = 600;
},
{
anchors = (
{
name = bottom;
pos = (300,0);
},
{
name = top;
pos = (300,620);
}
);
layerId = "BDCBA76E-5474-4BD3-A1CC-9641C626CFE7";
shapes = (
{
closed = 1;
nodes = (
(367,0,l),
(538,620,l),
(445,620,l),
(278,17,l),
(322,17,l),
(155,620,l),
(62,620,l),
(233,0,l)
);
}
);
width = 600;
},
{
anchors = (
{
name = bottom;
pos = (300,0);
},
{
name = top;
pos = (300,620);
}
);
layerId = "D8CC3DFA-F3EA-4C7D-84FB-05FCEA5C6558";
shapes = (
{
closed = 1;
nodes = (
(321,0,l),
(534,620,l),
(503,620,l),
(296,19,l),
(304,19,l),
(97,620,l),
(66,620,l),
(279,0,l)
);
}
);
width = 600;
}
);
unicode = 86;
}
{
color = 4;
glyphname = W;
lastChange = "2025-08-02 18:31:53 +0000";
layers = (
{
anchors = (
{
name = bottom;
pos = (300,0);
},
{
name = top;
pos = (300,620);
}
);
guides = (
{
pos = (404,132);
}
);
layerId = m01;
shapes = (
{
closed = 1;
nodes = (
(62,0,l),
(142,0,l),
(321,339,l),
(279,339,l),
(458,0,l),
(538,0,l),
(538,620,l),
(478,620,l),
(478,27,l),
(501,46,l),
(334,363,l),
(266,363,l),
(97,44,l),
(122,29,l),
(122,620,l),
(62,620,l)
);
}
);
width = 600;
},
{
anchors = (
{
name = bottom;
pos = (300,0);
},
{
name = top;
pos = (300,620);
}
);
guides = (
{
pos = (404,132);
}
);
layerId = "BDCBA76E-5474-4BD3-A1CC-9641C626CFE7";
shapes = (
{
closed = 1;
nodes = (
(62,0,l),
(167,0,l),
(346,339,l),
(253,339,l),
(432,0,l),
(538,0,l),
(538,620,l),
(448,620,l),
(448,27,l),
(509,46,l),
(342,363,l),
(257,363,l),
(88,44,l),
(152,29,l),
(152,620,l),
(62,620,l)
);
}
);
width = 600;
},
{
anchors = (
{
name = bottom;
pos = (300,0);
},
{
name = top;
pos = (300,620);
}
);
guides = (
{
pos = (404,132);
}
);
layerId = "D8CC3DFA-F3EA-4C7D-84FB-05FCEA5C6558";
shapes = (
{
closed = 1;
nodes = (
(282,340,l),
(83,17,l),
(92,8,l),
(92,620,l),
(62,620,l),
(62,0,l),
(108,0,l),
(308,323,l),
(292,323,l),
(492,0,l),
(538,0,l),
(538,620,l),
(508,620,l),
(508,17,l),
(520,11,l),
(318,340,l)
);
}
);
width = 600;
}
);
unicode = 87;
}
{
color = 4;
glyphname = X;
lastChange = "2025-08-02 18:32:02 +0000";
layers = (
{
anchors = (
{
name = bottom;
pos = (268,0);
},
{
name = top;
pos = (268,620);
}
);
layerId = m01;
shapes = (
{
closed = 1;
nodes = (
(77,620,l),
(475,0,l),
(546,0,l),
(148,620,l)
);
},
{
closed = 1;
nodes = (
(337,311,l),
(525,620,l),
(457,620,l),
(269,311,l)
);
},
{
closed = 1;
nodes = (
(276,332,l),
(54,0,l),
(122,0,l),
(331,310,l)
);
}
);
width = 600;
},
{
anchors = (
{
name = bottom;
pos = (300,0);
},
{
name = top;
pos = (300,620);
}
);
layerId = "BDCBA76E-5474-4BD3-A1CC-9641C626CFE7";
shapes = (
{
closed = 1;
nodes = (
(104,620,l),
(438,0,l),
(540,0,l),
(206,620,l)
);
},
{
closed = 1;
nodes = (
(335,267,l),
(526,620,l),
(423,620,l),
(270,337,l)
);
},
{
closed = 1;
nodes = (
(272,367,l),
(60,0,l),
(164,0,l),
(324,276,l)
);
}
);
width = 600;
},
{
anchors = (
{
name = bottom;
pos = (300,0);
},
{
name = top;
pos = (300,620);
}
);
layerId = "D8CC3DFA-F3EA-4C7D-84FB-05FCEA5C6558";
shapes = (
{
closed = 1;
nodes = (
(75,620,l),
(505,0,l),
(541,0,l),
(111,620,l)
);
},
{
closed = 1;
nodes = (
(315,308,l),
(531,620,l),
(495,620,l),
(288,321,l)
);
},
{
closed = 1;
nodes = (
(283,321,l),
(60,0,l),
(96,0,l),
(319,321,l)
);
}
);
width = 600;
}
);
unicode = 88;
}
{
color = 4;
glyphname = Y;
lastChange = "2025-08-10 18:47:12 +0000";
layers = (
{
anchors = (
{
name = bottom;
pos = (300,0);
},
{
name = top;
pos = (300,620);
},
{
name = topleft;
pos = (20,620);
}
);
layerId = m01;
shapes = (
{
closed = 1;
nodes = (
(272,0,l),
(332,0,l),
(332,256,l),
(518,620,l),
(450,620,l),
(281,288,l),
(322,288,l),
(151,620,l),
(82,620,l),
(272,255,l)
);
}
);
width = 600;
},
{
anchors = (
{
name = bottom;
pos = (300,0);
},
{
name = top;
pos = (300,620);
},
{
name = topleft;
pos = (20,620);
}
);
layerId = "BDCBA76E-5474-4BD3-A1CC-9641C626CFE7";
shapes = (
{
closed = 1;
nodes = (
(257,265,l),
(257,0,l),
(347,0,l),
(347,266,l),
(526,620,l),
(425,620,l),
(282,335,l),
(322,335,l),
(177,620,l),
(74,620,l)
);
}
);
width = 600;
},
{
anchors = (
{
name = bottom;
pos = (300,0);
},
{
name = top;
pos = (300,620);
},
{
name = topleft;
pos = (20,620);
}
);
layerId = "D8CC3DFA-F3EA-4C7D-84FB-05FCEA5C6558";
shapes = (
{
closed = 1;
nodes = (
(287,269,l),
(287,0,l),
(317,0,l),
(317,269,l),
(516,620,l),
(481,620,l),
(291,284,l),
(313,284,l),
(120,620,l),
(84,620,l)
);
}
);
width = 600;
}
);
unicode = 89;
}
{
color = 4;
glyphname = Z;
lastChange = "2025-08-02 18:32:13 +0000";
layers = (
{
anchors = (
{
name = bottom;
pos = (268,0);
},
{
name = center;
pos = (268,310);
},
{
name = top;
pos = (268,620);
}
);
layerId = m01;
shapes = (
{
closed = 1;
nodes = (
(107,560,l),
(446,560,l),
(445,600,l),
(82,60,l),
(82,0,l),
(518,0,l),
(518,60,l),
(129,60,l),
(128,20,l),
(492,560,l),
(492,620,l),
(107,620,l)
);
}
);
width = 600;
},
{
anchors = (
{
name = bottom;
pos = (300,0);
},
{
name = center;
pos = (300,310);
},
{
name = top;
pos = (300,620);
}
);
layerId = "BDCBA76E-5474-4BD3-A1CC-9641C626CFE7";
shapes = (
{
closed = 1;
nodes = (
(83,0,l),
(517,0,l),
(517,90,l),
(157,90,l),
(140,20,l),
(501,532,l),
(501,620,l),
(106,620,l),
(106,530,l),
(437,530,l),
(439,600,l),
(83,95,l)
);
}
);
width = 600;
},
{
anchors = (
{
name = bottom;
pos = (300,0);
},
{
name = center;
pos = (300,310);
},
{
name = top;
pos = (300,620);
}
);
layerId = "D8CC3DFA-F3EA-4C7D-84FB-05FCEA5C6558";
shapes = (
{
closed = 1;
nodes = (
(492,620,l),
(107,620,l),
(107,590,l),
(474,590,l),
(465,606,l),
(82,31,l),
(82,0,l),
(518,0,l),
(518,30,l),
(100,30,l),
(110,20,l),
(492,591,l)
);
}
);
width = 600;
}
);
unicode = 90;
}
{
glyphname = bracketleft;
lastChange = "2025-08-07 23:06:46 +0000";
layers = (
{
layerId = m01;
shapes = (
{
closed = 1;
nodes = (
(171,-110,l),
(429,-110,l),
(429,-50,l),
(196,-50,l),
(231,-80,l),
(231,770,l),
(216,740,l),
(429,740,l),
(429,800,l),
(171,800,l)
);
}
);
width = 600;
},
{
layerId = "BDCBA76E-5474-4BD3-A1CC-9641C626CFE7";
shapes = (
{
closed = 1;
nodes = (
(164,-110,l),
(437,-110,l),
(437,-20,l),
(204,-20,l),
(254,-80,l),
(254,770,l),
(224,710,l),
(437,710,l),
(437,800,l),
(164,800,l)
);
}
);
width = 600;
},
{
layerId = "D8CC3DFA-F3EA-4C7D-84FB-05FCEA5C6558";
shapes = (
{
closed = 1;
nodes = (
(171,-110,l),
(429,-110,l),
(429,-80,l),
(185,-80,l),
(201,-94,l),
(201,785,l),
(185,770,l),
(429,770,l),
(429,800,l),
(171,800,l)
);
}
);
width = 600;
}
);
unicode = 91;
}
{
glyphname = asciicircum;
lastChange = "2025-08-08 00:45:58 +0000";
layers = (
{
hints = (
{
name = _corner.round;
origin = (0,1);
type = Corner;
}
);
layerId = m01;
shapes = (
{
attr = {
lineCapEnd = 4;
lineCapStart = 4;
strokeWidth = 60;
};
closed = 0;
nodes = (
(139,450,l),
(302,706,l),
(463,450,l)
);
}
);
width = 600;
},
{
hints = (
{
name = _corner.round;
origin = (0,1);
type = Corner;
}
);
layerId = "BDCBA76E-5474-4BD3-A1CC-9641C626CFE7";
shapes = (
{
attr = {
lineCapEnd = 4;
lineCapStart = 4;
strokeWidth = 90;
};
closed = 0;
nodes = (
(139,450,l),
(302,686,l),
(463,450,l)
);
}
);
width = 600;
},
{
hints = (
{
name = _corner.round;
origin = (0,1);
type = Corner;
}
);
layerId = "D8CC3DFA-F3EA-4C7D-84FB-05FCEA5C6558";
shapes = (
{
attr = {
lineCapEnd = 4;
lineCapStart = 4;
strokeWidth = 30;
};
closed = 0;
nodes = (
(138,450,l),
(301,706,l),
(462,450,l)
);
}
);
width = 600;
}
);
unicode = 94;
}
{
glyphname = underscore;
lastChange = "2025-08-07 23:02:46 +0000";
layers = (
{
layerId = m01;
shapes = (
{
closed = 1;
nodes = (
(52,-110,l),
(548,-110,l),
(548,-50,l),
(52,-50,l)
);
}
);
width = 600;
},
{
layerId = "BDCBA76E-5474-4BD3-A1CC-9641C626CFE7";
shapes = (
{
closed = 1;
nodes = (
(52,-110,l),
(548,-110,l),
(548,-20,l),
(52,-20,l)
);
}
);
width = 600;
},
{
layerId = "D8CC3DFA-F3EA-4C7D-84FB-05FCEA5C6558";
shapes = (
{
closed = 1;
nodes = (
(52,-95,l),
(548,-95,l),
(548,-65,l),
(52,-65,l)
);
}
);
width = 600;
}
);
unicode = 95;
}
{
color = 4;
glyphname = a;
lastChange = "2025-08-10 18:48:17 +0000";
layers = (
{
anchors = (
{
name = bottom;
pos = (300,0);
},
{
name = ogonek;
pos = (481,0);
},
{
name = top;
pos = (300,452);
}
);
layerId = m01;
shapes = (
{
closed = 1;
nodes = (
(488,270,l),
(201,270,ls),
(133,270,o),
(81,218,o),
(82,150,cs),
(82,120,ls),
(81,52,o),
(133,0,o),
(201,0,cs),
(518,0,l),
(518,332,ls),
(518,400,o),
(467,452,o),
(399,452,cs),
(112,452,l),
(112,392,l),
(399,392,ls),
(433,392,o),
(458,366,o),
(458,332,cs),
(458,30,l),
(488,60,l),
(201,60,ls),
(167,60,o),
(141,86,o),
(142,120,cs),
(142,150,ls),
(141,184,o),
(167,210,o),
(201,210,cs),
(488,210,l)
);
}
);
width = 600;
},
{
associatedMasterId = "D8CC3DFA-F3EA-4C7D-84FB-05FCEA5C6558";
layerId = "50B656A0-B421-4AE1-84BE-0758F485499E";
width = 600;
},
{
anchors = (
{
name = bottom;
pos = (300,0);
},
{
name = ogonek;
pos = (466,0);
},
{
name = top;
pos = (300,452);
}
);
layerId = "BDCBA76E-5474-4BD3-A1CC-9641C626CFE7";
shapes = (
{
closed = 1;
nodes = (
(472,285,l),
(201,285,ls),
(133,285,o),
(81,233,o),
(82,165,cs),
(82,119,ls),
(82,51,o),
(134,-1,o),
(202,0,cs),
(518,0,l),
(518,333,ls),
(518,401,o),
(466,453,o),
(398,452,cs),
(112,452,l),
(112,362,l),
(398,362,ls),
(415,362,o),
(428,349,o),
(428,332,cs),
(428,45,l),
(473,90,l),
(202,90,ls),
(185,90,o),
(172,103,o),
(172,120,cs),
(172,165,ls),
(172,182,o),
(185,195,o),
(202,195,cs),
(472,195,l)
);
}
);
width = 600;
},
{
anchors = (
{
name = bottom;
pos = (300,0);
},
{
name = ogonek;
pos = (503,0);
},
{
name = top;
pos = (300,452);
}
);
layerId = "D8CC3DFA-F3EA-4C7D-84FB-05FCEA5C6558";
shapes = (
{
closed = 1;
nodes = (
(502,270,l),
(201,270,ls),
(133,270,o),
(81,218,o),
(82,150,cs),
(82,120,ls),
(81,52,o),
(133,0,o),
(201,0,cs),
(518,0,l),
(518,333,ls),
(518,401,o),
(466,453,o),
(398,452,cs),
(112,452,l),
(112,422,l),
(398,422,ls),
(449,423,o),
(488,384,o),
(488,333,cs),
(488,15,l),
(502,30,l),
(201,30,ls),
(150,30,o),
(111,69,o),
(112,120,cs),
(112,150,ls),
(111,201,o),
(150,240,o),
(201,240,cs),
(502,240,l)
);
}
);
width = 600;
}
);
unicode = 97;
}
{
color = 4;
glyphname = b;
lastChange = "2025-08-02 18:32:24 +0000";
layers = (
{
anchors = (
{
name = bottom;
pos = (268,0);
},
{
name = center;
pos = (268,225);
},
{
name = top;
pos = (268,450);
}
);
layerId = m01;
shapes = (
{
closed = 1;
nodes = (
(399,392,ls),
(433,392,o),
(458,366,o),
(458,332,cs),
(458,120,ls),
(458,86,o),
(433,60,o),
(399,60,cs),
(112,60,l),
(142,30,l),
(142,620,l),
(82,620,l),
(82,0,l),
(399,0,ls),
(467,0,o),
(518,52,o),
(518,120,cs),
(518,332,ls),
(518,400,o),
(467,452,o),
(399,452,cs),
(112,452,l),
(112,392,l)
);
}
);
width = 600;
},
{
anchors = (
{
name = bottom;
pos = (300,0);
},
{
name = center;
pos = (150,640);
},
{
name = top;
pos = (300,452);
}
);
layerId = "BDCBA76E-5474-4BD3-A1CC-9641C626CFE7";
shapes = (
{
closed = 1;
nodes = (
(398,362,ls),
(415,362,o),
(428,349,o),
(428,332,cs),
(428,120,ls),
(428,103,o),
(415,90,o),
(398,90,cs),
(127,90,l),
(172,45,l),
(172,620,l),
(82,620,l),
(82,0,l),
(399,0,ls),
(467,0,o),
(518,52,o),
(518,120,cs),
(518,333,ls),
(518,401,o),
(466,452,o),
(398,452,cs),
(127,452,l),
(127,362,l)
);
}
);
width = 600;
},
{
anchors = (
{
name = bottom;
pos = (300,0);
},
{
name = center;
pos = (150,640);
},
{
name = top;
pos = (300,452);
}
);
layerId = "D8CC3DFA-F3EA-4C7D-84FB-05FCEA5C6558";
shapes = (
{
closed = 1;
nodes = (
(398,422,ls),
(449,422,o),
(488,384,o),
(488,333,cs),
(488,120,ls),
(488,69,o),
(450,30,o),
(399,30,cs),
(97,30,l),
(112,15,l),
(112,620,l),
(82,620,l),
(82,0,l),
(399,0,ls),
(467,0,o),
(518,52,o),
(518,120,cs),
(518,333,ls),
(518,401,o),
(466,452,o),
(398,452,cs),
(97,452,l),
(97,422,l)
);
}
);
width = 600;
}
);
unicode = 98;
}
{
color = 4;
glyphname = c;
lastChange = "2025-08-02 18:37:19 +0000";
layers = (
{
anchors = (
{
name = bottom;
pos = (300,0);
},
{
name = top;
pos = (300,452);
}
);
layerId = m01;
shapes = (
{
closed = 1;
nodes = (
(518,452,l),
(201,452,ls),
(133,452,o),
(82,400,o),
(82,332,cs),
(82,120,ls),
(82,52,o),
(133,0,o),
(201,0,cs),
(518,0,l),
(518,60,l),
(201,60,ls),
(167,60,o),
(142,86,o),
(142,120,cs),
(142,332,ls),
(142,366,o),
(167,392,o),
(201,392,cs),
(518,392,l)
);
}
);
width = 600;
},
{
anchors = (
{
name = bottom;
pos = (300,0);
},
{
name = top;
pos = (300,452);
}
);
layerId = "BDCBA76E-5474-4BD3-A1CC-9641C626CFE7";
shapes = (
{
closed = 1;
nodes = (
(516,452,l),
(199,452,ls),
(131,452,o),
(80,400,o),
(80,332,cs),
(80,119,ls),
(80,51,o),
(132,-1,o),
(200,0,cs),
(516,0,l),
(516,90,l),
(200,90,ls),
(183,90,o),
(170,103,o),
(170,120,cs),
(170,332,ls),
(170,349,o),
(183,362,o),
(200,362,cs),
(516,362,l)
);
}
);
width = 600;
},
{
anchors = (
{
name = bottom;
pos = (300,0);
},
{
name = top;
pos = (300,452);
}
);
layerId = "D8CC3DFA-F3EA-4C7D-84FB-05FCEA5C6558";
shapes = (
{
closed = 1;
nodes = (
(518,452,l),
(201,452,ls),
(133,452,o),
(82,400,o),
(82,332,cs),
(82,120,ls),
(82,52,o),
(133,0,o),
(201,0,cs),
(518,0,l),
(518,30,l),
(201,30,ls),
(150,30,o),
(112,69,o),
(112,120,cs),
(112,332,ls),
(112,383,o),
(150,422,o),
(201,422,cs),
(518,422,l)
);
}
);
width = 600;
}
);
unicode = 99;
}
{
color = 4;
glyphname = d;
lastChange = "2025-08-02 18:32:52 +0000";
layers = (
{
anchors = (
{
name = bottom;
pos = (268,0);
},
{
name = center;
pos = (268,225);
},
{
name = top;
pos = (268,450);
},
{
name = topright;
pos = (516,800);
}
);
layerId = m01;
shapes = (
{
closed = 1;
nodes = (
(487,452,l),
(201,452,ls),
(133,452,o),
(82,400,o),
(82,332,cs),
(82,120,ls),
(82,52,o),
(133,0,o),
(201,0,cs),
(518,0,l),
(518,620,l),
(458,620,l),
(458,30,l),
(487,60,l),
(201,60,ls),
(167,60,o),
(142,86,o),
(142,120,cs),
(142,332,ls),
(142,366,o),
(167,392,o),
(201,392,cs),
(487,392,l)
);
}
);
width = 600;
},
{
anchors = (
{
name = bottom;
pos = (300,0);
},
{
name = center;
pos = (450,640);
},
{
name = top;
pos = (300,452);
},
{
name = topright;
pos = (580,800);
}
);
layerId = "BDCBA76E-5474-4BD3-A1CC-9641C626CFE7";
shapes = (
{
closed = 1;
nodes = (
(477,452,l),
(201,452,ls),
(133,452,o),
(82,400,o),
(82,332,cs),
(82,119,ls),
(82,51,o),
(134,-1,o),
(202,0,cs),
(518,0,l),
(518,620,l),
(428,620,l),
(428,45,l),
(473,90,l),
(202,90,ls),
(185,90,o),
(172,103,o),
(172,120,cs),
(172,332,ls),
(172,349,o),
(185,362,o),
(202,362,cs),
(477,362,l)
);
}
);
width = 600;
},
{
anchors = (
{
name = bottom;
pos = (300,0);
},
{
name = center;
pos = (450,640);
},
{
name = top;
pos = (300,452);
},
{
name = topright;
pos = (580,800);
}
);
layerId = "D8CC3DFA-F3EA-4C7D-84FB-05FCEA5C6558";
shapes = (
{
closed = 1;
nodes = (
(502,452,l),
(201,452,ls),
(133,452,o),
(82,400,o),
(82,332,cs),
(82,120,ls),
(82,52,o),
(133,0,o),
(201,0,cs),
(518,0,l),
(518,620,l),
(488,620,l),
(488,15,l),
(502,30,l),
(201,30,ls),
(150,30,o),
(112,69,o),
(112,120,cs),
(112,332,ls),
(112,383,o),
(150,422,o),
(201,422,cs),
(502,422,l)
);
}
);
width = 600;
}
);
unicode = 100;
}
{
color = 4;
glyphname = e;
lastChange = "2025-08-10 18:49:48 +0000";
layers = (
{
anchors = (
{
name = bottom;
pos = (300,0);
},
{
name = ogonek;
pos = (540,10);
},
{
name = top;
pos = (300,452);
}
);
layerId = m01;
shapes = (
{
closed = 1;
nodes = (
(397,211,ls),
(465,211,o),
(517,263,o),
(516,331,cs),
(516,332,ls),
(517,400,o),
(465,452,o),
(397,452,cs),
(199,452,ls),
(131,452,o),
(80,400,o),
(80,332,cs),
(80,120,ls),
(80,52,o),
(131,0,o),
(199,0,cs),
(516,0,l),
(516,60,l),
(199,60,ls),
(165,60,o),
(140,86,o),
(140,120,cs),
(140,332,ls),
(140,366,o),
(165,392,o),
(199,392,cs),
(397,392,ls),
(431,392,o),
(457,366,o),
(456,332,cs),
(456,331,ls),
(457,297,o),
(431,271,o),
(397,271,cs),
(110,271,l),
(110,211,l)
);
}
);
width = 600;
},
{
anchors = (
{
name = bottom;
pos = (300,0);
},
{
name = ogonek;
pos = (540,10);
},
{
name = top;
pos = (300,452);
}
);
layerId = "BDCBA76E-5474-4BD3-A1CC-9641C626CFE7";
shapes = (
{
closed = 1;
nodes = (
(399,195,ls),
(467,195,o),
(518,247,o),
(518,315,cs),
(518,332,ls),
(518,400,o),
(467,452,o),
(399,452,cs),
(201,452,ls),
(133,452,o),
(82,400,o),
(82,332,cs),
(82,119,ls),
(82,51,o),
(134,-1,o),
(202,0,cs),
(518,0,l),
(518,90,l),
(202,90,ls),
(185,90,o),
(172,103,o),
(172,120,cs),
(172,332,ls),
(172,349,o),
(185,362,o),
(202,362,cs),
(398,362,ls),
(415,362,o),
(428,349,o),
(428,332,cs),
(428,315,ls),
(428,298,o),
(415,285,o),
(398,285,cs),
(132,285,l),
(132,195,l)
);
}
);
width = 600;
},
{
anchors = (
{
name = bottom;
pos = (300,0);
},
{
name = ogonek;
pos = (540,10);
},
{
name = top;
pos = (300,452);
}
);
layerId = "D8CC3DFA-F3EA-4C7D-84FB-05FCEA5C6558";
shapes = (
{
closed = 1;
nodes = (
(399,211,ls),
(467,211,o),
(518,263,o),
(518,331,cs),
(518,333,ls),
(518,401,o),
(466,453,o),
(398,453,cs),
(201,452,ls),
(133,452,o),
(82,400,o),
(82,332,cs),
(82,120,ls),
(82,52,o),
(133,0,o),
(201,0,cs),
(518,0,l),
(518,30,l),
(201,30,ls),
(150,30,o),
(112,69,o),
(112,120,cs),
(112,332,ls),
(112,383,o),
(150,422,o),
(201,422,cs),
(398,423,ls),
(449,423,o),
(488,384,o),
(488,333,cs),
(488,331,ls),
(488,280,o),
(450,241,o),
(399,241,cs),
(97,241,l),
(97,211,l)
);
}
);
width = 600;
}
);
unicode = 101;
}
{
color = 4;
glyphname = f;
lastChange = "2025-08-02 18:33:06 +0000";
layers = (
{
anchors = (
{
name = bottom;
pos = (268,0);
},
{
name = top;
pos = (268,800);
}
);
layerId = m01;
shapes = (
{
closed = 1;
nodes = (
(528,452,l),
(72,452,l),
(72,392,l),
(528,392,l)
);
},
{
closed = 1;
nodes = (
(528,620,l),
(377,620,ls),
(309,620,o),
(257,568,o),
(258,500,cs),
(258,0,l),
(318,0,l),
(318,500,ls),
(317,534,o),
(343,560,o),
(377,560,cs),
(528,560,l)
);
}
);
width = 600;
},
{
anchors = (
{
name = bottom;
pos = (300,0);
},
{
name = top;
pos = (300,800);
}
);
layerId = "BDCBA76E-5474-4BD3-A1CC-9641C626CFE7";
shapes = (
{
closed = 1;
nodes = (
(528,452,l),
(72,452,l),
(72,362,l),
(528,362,l)
);
},
{
closed = 1;
nodes = (
(528,620,l),
(362,620,ls),
(294,620,o),
(242,568,o),
(243,500,cs),
(243,0,l),
(333,0,l),
(333,500,ls),
(333,517,o),
(346,530,o),
(363,530,cs),
(528,530,l)
);
}
);
width = 600;
},
{
anchors = (
{
name = bottom;
pos = (268,0);
},
{
name = top;
pos = (268,800);
}
);
layerId = "D8CC3DFA-F3EA-4C7D-84FB-05FCEA5C6558";
shapes = (
{
closed = 1;
nodes = (
(528,452,l),
(72,452,l),
(72,422,l),
(528,422,l)
);
},
{
closed = 1;
nodes = (
(528,620,l),
(392,620,ls),
(324,620,o),
(272,568,o),
(273,500,cs),
(273,0,l),
(303,0,l),
(303,500,ls),
(302,551,o),
(341,590,o),
(392,590,cs),
(528,590,l)
);
}
);
width = 600;
}
);
unicode = 102;
}
{
color = 4;
glyphname = h;
lastChange = "2025-08-10 18:51:10 +0000";
layers = (
{
anchors = (
{
name = bottom;
pos = (300,0);
},
{
name = center;
pos = (150,640);
},
{
name = top;
pos = (300,800);
}
);
layerId = m01;
shapes = (
{
closed = 1;
nodes = (
(82,620,l),
(82,0,l),
(142,0,l),
(142,620,l)
);
},
{
closed = 1;
nodes = (
(399,392,ls),
(433,392,o),
(458,366,o),
(458,332,cs),
(458,0,l),
(518,0,l),
(518,332,ls),
(518,400,o),
(467,452,o),
(399,452,cs),
(112,452,l),
(112,392,l)
);
}
);
width = 600;
},
{
anchors = (
{
name = bottom;
pos = (300,0);
},
{
name = center;
pos = (150,640);
},
{
name = top;
pos = (300,800);
}
);
layerId = "BDCBA76E-5474-4BD3-A1CC-9641C626CFE7";
shapes = (
{
closed = 1;
nodes = (
(82,620,l),
(82,0,l),
(172,0,l),
(172,620,l)
);
},
{
closed = 1;
nodes = (
(398,362,ls),
(415,362,o),
(428,349,o),
(428,332,cs),
(428,0,l),
(518,0,l),
(518,333,ls),
(518,401,o),
(466,452,o),
(398,452,cs),
(127,452,l),
(127,362,l)
);
}
);
width = 600;
},
{
anchors = (
{
name = bottom;
pos = (300,0);
},
{
name = center;
pos = (150,640);
},
{
name = top;
pos = (300,800);
}
);
layerId = "D8CC3DFA-F3EA-4C7D-84FB-05FCEA5C6558";
shapes = (
{
closed = 1;
nodes = (
(82,620,l),
(82,0,l),
(112,0,l),
(112,620,l)
);
},
{
closed = 1;
nodes = (
(398,422,ls),
(449,423,o),
(488,384,o),
(488,333,cs),
(488,0,l),
(518,0,l),
(518,333,ls),
(518,401,o),
(466,453,o),
(398,452,cs),
(97,452,l),
(97,422,l)
);
}
);
width = 600;
}
);
unicode = 104;
}
{
color = 4;
glyphname = i;
lastChange = "2025-08-02 18:34:40 +0000";
layers = (
{
anchors = (
{
name = bottom;
pos = (268,0);
}
);
layerId = m01;
shapes = (
{
closed = 1;
nodes = (
(330,25,l),
(330,452,l),
(115,452,l),
(115,392,l),
(302,392,l),
(270,427,l),
(270,25,l)
);
},
{
closed = 1;
nodes = (
(315,520,o),
(333,538,o),
(333,560,cs),
(333,582,o),
(315,600,o),
(293,600,cs),
(271,600,o),
(253,582,o),
(253,560,cs),
(253,538,o),
(271,520,o),
(293,520,cs)
);
},
{
closed = 1;
nodes = (
(82,60,l),
(82,0,l),
(518,0,l),
(518,60,l)
);
}
);
width = 600;
},
{
anchors = (
{
name = bottom;
pos = (300,0);
}
);
layerId = "BDCBA76E-5474-4BD3-A1CC-9641C626CFE7";
shapes = (
{
closed = 1;
nodes = (
(345,45,l),
(345,452,l),
(115,452,l),
(115,362,l),
(300,362,l),
(255,409,l),
(255,45,l)
);
},
{
closed = 1;
nodes = (
(322,499,o),
(347,525,o),
(347,555,cs),
(347,586,o),
(322,611,o),
(291,611,cs),
(261,611,o),
(235,586,o),
(235,555,cs),
(235,525,o),
(261,499,o),
(291,499,cs)
);
},
{
closed = 1;
nodes = (
(82,90,l),
(82,0,l),
(518,0,l),
(518,90,l)
);
}
);
width = 600;
},
{
anchors = (
{
name = bottom;
pos = (268,0);
}
);
layerId = "D8CC3DFA-F3EA-4C7D-84FB-05FCEA5C6558";
shapes = (
{
closed = 1;
nodes = (
(315,15,l),
(315,452,l),
(115,452,l),
(115,422,l),
(302,422,l),
(285,440,l),
(285,15,l)
);
},
{
closed = 1;
nodes = (
(311,513,o),
(324,525,o),
(324,541,cs),
(324,556,o),
(311,568,o),
(296,568,cs),
(281,568,o),
(269,556,o),
(269,541,cs),
(269,525,o),
(281,513,o),
(296,513,cs)
);
},
{
closed = 1;
nodes = (
(82,30,l),
(82,0,l),
(518,0,l),
(518,30,l)
);
}
);
width = 600;
}
);
unicode = 105;
}
{
color = 4;
glyphname = j;
lastChange = "2025-08-02 18:34:49 +0000";
layers = (
{
guides = (
{
angle = 180;
pos = (110,60);
}
);
layerId = m01;
shapes = (
{
closed = 1;
nodes = (
(372,-200,ls),
(440,-200,o),
(492,-148,o),
(491,-80,cs),
(491,452,l),
(256,452,l),
(256,392,l),
(460,392,l),
(431,420,l),
(431,-80,ls),
(431,-114,o),
(406,-140,o),
(372,-140,cs),
(85,-140,l),
(85,-200,l)
);
},
{
closed = 1;
nodes = (
(477,520,o),
(495,538,o),
(495,560,cs),
(495,582,o),
(477,600,o),
(455,600,cs),
(433,600,o),
(415,582,o),
(415,560,cs),
(415,538,o),
(433,520,o),
(455,520,cs)
);
}
);
width = 600;
},
{
guides = (
{
angle = 180;
pos = (110,60);
}
);
layerId = "BDCBA76E-5474-4BD3-A1CC-9641C626CFE7";
shapes = (
{
closed = 1;
nodes = (
(363,-200,ls),
(431,-201,o),
(483,-149,o),
(483,-81,cs),
(483,452,l),
(248,452,l),
(248,362,l),
(438,362,l),
(393,407,l),
(393,-80,ls),
(393,-97,o),
(380,-110,o),
(363,-110,cs),
(77,-110,l),
(77,-200,l)
);
},
{
closed = 1;
nodes = (
(458,500,o),
(483,525,o),
(483,555,cs),
(483,585,o),
(458,610,o),
(428,610,cs),
(398,610,o),
(373,585,o),
(373,555,cs),
(373,525,o),
(398,500,o),
(428,500,cs)
);
}
);
width = 600;
},
{
guides = (
{
angle = 180;
pos = (110,60);
}
);
layerId = "D8CC3DFA-F3EA-4C7D-84FB-05FCEA5C6558";
shapes = (
{
closed = 1;
nodes = (
(372,-200,ls),
(440,-200,o),
(492,-148,o),
(491,-80,cs),
(491,452,l),
(256,452,l),
(256,422,l),
(476,422,l),
(461,437,l),
(461,-80,ls),
(461,-131,o),
(423,-170,o),
(372,-170,cs),
(85,-170,l),
(85,-200,l)
);
},
{
closed = 1;
nodes = (
(483,513,o),
(496,525,o),
(496,541,cs),
(496,556,o),
(483,568,o),
(468,568,cs),
(453,568,o),
(441,556,o),
(441,541,cs),
(441,525,o),
(453,513,o),
(468,513,cs)
);
}
);
width = 600;
}
);
unicode = 106;
}
{
color = 4;
glyphname = k;
lastChange = "2025-08-10 18:51:52 +0000";
layers = (
{
anchors = (
{
name = bottom;
pos = (268,0);
},
{
name = top;
pos = (268,620);
}
);
layerId = m01;
shapes = (
{
closed = 1;
nodes = (
(81,620,l),
(81,0,l),
(141,0,l),
(141,620,l)
);
},
{
closed = 1;
nodes = (
(111,98,l),
(487,452,l),
(401,452,l),
(111,181,l)
);
},
{
closed = 1;
nodes = (
(445,0,l),
(520,0,l),
(290,304,l),
(247,261,l)
);
}
);
width = 600;
},
{
anchors = (
{
name = bottom;
pos = (300,0);
},
{
name = top;
pos = (300,620);
}
);
layerId = "BDCBA76E-5474-4BD3-A1CC-9641C626CFE7";
shapes = (
{
closed = 1;
nodes = (
(82,620,l),
(82,0,l),
(172,0,l),
(172,620,l)
);
},
{
closed = 1;
nodes = (
(119,94,l),
(496,452,l),
(366,452,l),
(119,220,l)
);
},
{
closed = 1;
nodes = (
(406,0,l),
(519,0,l),
(278,318,l),
(212,255,l)
);
}
);
width = 600;
},
{
anchors = (
{
name = bottom;
pos = (268,0);
},
{
name = top;
pos = (268,620);
}
);
layerId = "D8CC3DFA-F3EA-4C7D-84FB-05FCEA5C6558";
shapes = (
{
closed = 1;
nodes = (
(89,620,l),
(89,0,l),
(119,0,l),
(119,620,l)
);
},
{
closed = 1;
nodes = (
(105,83,l),
(445,452,l),
(404,452,l),
(105,127,l)
);
},
{
closed = 1;
nodes = (
(474,0,l),
(512,0,l),
(291,304,l),
(270,282,l)
);
}
);
width = 600;
}
);
unicode = 107;
}
{
color = 4;
glyphname = l;
lastChange = "2025-08-02 18:35:02 +0000";
layers = (
{
anchors = (
{
name = bottom;
pos = (268,0);
},
{
name = center;
pos = (268,225);
},
{
name = top;
pos = (268,800);
},
{
name = topright;
pos = (516,800);
}
);
layerId = m01;
shapes = (
{
closed = 1;
nodes = (
(82,60,l),
(82,0,l),
(518,0,l),
(518,60,l)
);
},
{
closed = 1;
nodes = (
(330,30,l),
(330,620,l),
(115,620,l),
(115,560,l),
(300,560,l),
(270,590,l),
(270,30,l)
);
}
);
width = 600;
},
{
anchors = (
{
name = bottom;
pos = (300,0);
},
{
name = center;
pos = (300,226);
},
{
name = top;
pos = (300,800);
},
{
name = topright;
pos = (580,800);
}
);
layerId = "BDCBA76E-5474-4BD3-A1CC-9641C626CFE7";
shapes = (
{
closed = 1;
nodes = (
(82,90,l),
(82,0,l),
(518,0,l),
(518,90,l)
);
},
{
closed = 1;
nodes = (
(345,45,l),
(345,620,l),
(115,620,l),
(115,530,l),
(300,530,l),
(255,575,l),
(255,45,l)
);
}
);
width = 600;
},
{
anchors = (
{
name = bottom;
pos = (268,0);
},
{
name = center;
pos = (268,225);
},
{
name = top;
pos = (268,800);
},
{
name = topright;
pos = (516,800);
}
);
layerId = "D8CC3DFA-F3EA-4C7D-84FB-05FCEA5C6558";
shapes = (
{
closed = 1;
nodes = (
(82,30,l),
(82,0,l),
(518,0,l),
(518,30,l)
);
},
{
closed = 1;
nodes = (
(315,15,l),
(315,620,l),
(115,620,l),
(115,590,l),
(298,590,l),
(285,605,l),
(285,15,l)
);
}
);
width = 600;
}
);
unicode = 108;
}
{
color = 4;
glyphname = m;
lastChange = "2025-08-02 18:35:28 +0000";
layers = (
{
anchors = (
{
name = bottom;
pos = (300,0);
},
{
name = top;
pos = (300,452);
}
);
layerId = m01;
shapes = (
{
closed = 1;
nodes = (
(62,0,l),
(122,0,l),
(122,392,l),
(211,392,ls),
(244,392,o),
(269,369,o),
(270,336,cs),
(270,0,l),
(330,0,l),
(330,336,ls),
(331,369,o),
(356,392,o),
(389,392,cs),
(419,392,ls),
(453,392,o),
(479,366,o),
(478,332,cs),
(478,0,l),
(538,0,l),
(538,332,ls),
(539,400,o),
(487,452,o),
(419,452,cs),
(389,452,ls),
(353,452,o),
(321,437,o),
(300,414,c),
(278,438,o),
(247,452,o),
(211,452,cs),
(62,452,l)
);
}
);
width = 600;
},
{
anchors = (
{
name = bottom;
pos = (300,0);
},
{
name = top;
pos = (300,452);
}
);
layerId = "BDCBA76E-5474-4BD3-A1CC-9641C626CFE7";
shapes = (
{
closed = 1;
nodes = (
(62,0,l),
(152,0,l),
(152,362,l),
(225,362,ls),
(242,362,o),
(255,349,o),
(255,332,cs),
(255,0,l),
(345,0,l),
(345,332,ls),
(345,349,o),
(358,362,o),
(375,362,cs),
(418,362,ls),
(435,362,o),
(448,349,o),
(448,332,cs),
(448,0,l),
(538,0,l),
(538,333,ls),
(538,401,o),
(486,453,o),
(418,452,cs),
(375,452,ls),
(347,452,o),
(321,444,o),
(300,428,c),
(280,443,o),
(253,452,o),
(225,452,cs),
(62,452,l)
);
}
);
width = 600;
},
{
anchors = (
{
name = bottom;
pos = (300,0);
},
{
name = top;
pos = (300,452);
}
);
layerId = "D8CC3DFA-F3EA-4C7D-84FB-05FCEA5C6558";
shapes = (
{
closed = 1;
nodes = (
(62,0,l),
(92,0,l),
(92,422,l),
(196,422,ls),
(246,422,o),
(284,386,o),
(285,336,cs),
(285,0,l),
(315,0,l),
(315,336,ls),
(316,386,o),
(354,422,o),
(404,422,cs),
(419,422,ls),
(470,422,o),
(509,383,o),
(508,332,cs),
(508,0,l),
(538,0,l),
(538,332,ls),
(539,400,o),
(487,452,o),
(419,452,cs),
(404,452,ls),
(358,452,o),
(320,429,o),
(300,393,c),
(280,429,o),
(242,452,o),
(196,452,cs),
(62,452,l)
);
}
);
width = 600;
}
);
unicode = 109;
}
{
color = 4;
glyphname = p;
lastChange = "2025-08-02 18:35:50 +0000";
layers = (
{
anchors = (
{
name = bottom;
pos = (300,0);
},
{
name = top;
pos = (300,452);
}
);
layerId = m01;
shapes = (
{
closed = 1;
nodes = (
(112,0,l),
(399,0,ls),
(467,0,o),
(519,52,o),
(518,120,cs),
(518,332,ls),
(519,400,o),
(467,452,o),
(399,452,cs),
(82,452,l),
(82,-200,l),
(142,-200,l),
(142,420,l),
(112,392,l),
(399,392,ls),
(433,392,o),
(459,366,o),
(458,332,cs),
(458,120,ls),
(459,86,o),
(433,60,o),
(399,60,cs),
(112,60,l)
);
}
);
width = 600;
},
{
anchors = (
{
name = bottom;
pos = (300,0);
},
{
name = top;
pos = (300,452);
}
);
layerId = "BDCBA76E-5474-4BD3-A1CC-9641C626CFE7";
shapes = (
{
closed = 1;
nodes = (
(127,0,l),
(399,0,ls),
(467,0,o),
(519,52,o),
(518,120,cs),
(518,333,ls),
(518,401,o),
(466,453,o),
(398,452,cs),
(82,452,l),
(82,-200,l),
(172,-200,l),
(172,407,l),
(127,362,l),
(398,362,ls),
(415,362,o),
(428,349,o),
(428,332,cs),
(428,120,ls),
(428,103,o),
(415,90,o),
(398,90,cs),
(127,90,l)
);
}
);
width = 600;
},
{
anchors = (
{
name = bottom;
pos = (300,0);
},
{
name = top;
pos = (300,452);
}
);
layerId = "D8CC3DFA-F3EA-4C7D-84FB-05FCEA5C6558";
shapes = (
{
closed = 1;
nodes = (
(97,0,l),
(399,0,ls),
(467,0,o),
(519,52,o),
(518,120,cs),
(518,332,ls),
(519,400,o),
(467,452,o),
(399,452,cs),
(82,452,l),
(82,-200,l),
(112,-200,l),
(112,435,l),
(97,422,l),
(399,422,ls),
(450,422,o),
(489,383,o),
(488,332,cs),
(488,120,ls),
(489,69,o),
(450,30,o),
(399,30,cs),
(97,30,l)
);
}
);
width = 600;
}
);
unicode = 112;
}
{
color = 4;
glyphname = q;
lastChange = "2025-08-02 18:35:55 +0000";
layers = (
{
anchors = (
{
name = bottom;
pos = (300,0);
},
{
name = top;
pos = (300,452);
}
);
layerId = m01;
shapes = (
{
closed = 1;
nodes = (
(201,60,ls),
(167,60,o),
(142,86,o),
(142,120,cs),
(142,332,ls),
(142,366,o),
(167,392,o),
(201,392,cs),
(487,392,l),
(458,417,l),
(458,-200,l),
(518,-200,l),
(518,452,l),
(201,452,ls),
(133,452,o),
(82,400,o),
(82,332,cs),
(82,120,ls),
(82,52,o),
(133,0,o),
(201,0,cs),
(487,0,l),
(487,60,l)
);
}
);
width = 600;
},
{
anchors = (
{
name = bottom;
pos = (300,0);
},
{
name = top;
pos = (300,452);
}
);
layerId = "BDCBA76E-5474-4BD3-A1CC-9641C626CFE7";
shapes = (
{
closed = 1;
nodes = (
(202,90,ls),
(185,90,o),
(172,103,o),
(172,120,cs),
(172,332,ls),
(172,349,o),
(185,362,o),
(202,362,cs),
(473,362,l),
(428,407,l),
(428,-200,l),
(518,-200,l),
(518,452,l),
(202,452,ls),
(134,453,o),
(82,401,o),
(82,333,cs),
(82,120,ls),
(82,52,o),
(133,0,o),
(201,0,cs),
(473,0,l),
(473,90,l)
);
}
);
width = 600;
},
{
anchors = (
{
name = bottom;
pos = (300,0);
},
{
name = top;
pos = (300,452);
}
);
layerId = "D8CC3DFA-F3EA-4C7D-84FB-05FCEA5C6558";
shapes = (
{
closed = 1;
nodes = (
(201,30,ls),
(150,30,o),
(112,69,o),
(112,120,cs),
(112,332,ls),
(112,383,o),
(150,422,o),
(201,422,cs),
(502,422,l),
(488,437,l),
(488,-200,l),
(518,-200,l),
(518,452,l),
(201,452,ls),
(133,452,o),
(82,400,o),
(82,332,cs),
(82,120,ls),
(82,52,o),
(133,0,o),
(201,0,cs),
(502,0,l),
(502,30,l)
);
}
);
width = 600;
}
);
unicode = 113;
}
{
color = 4;
glyphname = r;
lastChange = "2025-08-02 18:35:59 +0000";
layers = (
{
anchors = (
{
name = bottom;
pos = (300,0);
},
{
name = top;
pos = (300,452);
}
);
layerId = m01;
shapes = (
{
closed = 1;
nodes = (
(518,306,l),
(518,332,ls),
(519,400,o),
(467,452,o),
(399,452,cs),
(82,452,l),
(82,0,l),
(142,0,l),
(142,422,l),
(112,392,l),
(399,392,ls),
(433,392,o),
(459,366,o),
(458,332,cs),
(458,306,l)
);
}
);
width = 600;
},
{
anchors = (
{
name = bottom;
pos = (300,0);
},
{
name = top;
pos = (300,452);
}
);
layerId = "BDCBA76E-5474-4BD3-A1CC-9641C626CFE7";
shapes = (
{
closed = 1;
nodes = (
(518,285,l),
(518,333,ls),
(518,401,o),
(466,453,o),
(398,452,cs),
(82,452,l),
(82,0,l),
(172,0,l),
(172,407,l),
(127,362,l),
(398,362,ls),
(415,362,o),
(428,349,o),
(428,332,cs),
(428,285,l)
);
}
);
width = 600;
},
{
anchors = (
{
name = bottom;
pos = (300,0);
},
{
name = top;
pos = (300,452);
}
);
layerId = "D8CC3DFA-F3EA-4C7D-84FB-05FCEA5C6558";
shapes = (
{
closed = 1;
nodes = (
(518,306,l),
(518,333,ls),
(518,401,o),
(466,453,o),
(398,452,cs),
(82,452,l),
(82,0,l),
(112,0,l),
(112,437,l),
(97,422,l),
(398,422,ls),
(449,422,o),
(488,384,o),
(488,333,cs),
(488,306,l)
);
}
);
width = 600;
}
);
unicode = 114;
}
{
color = 4;
glyphname = s;
lastChange = "2025-08-02 18:36:03 +0000";
layers = (
{
anchors = (
{
name = bottom;
pos = (300,0);
},
{
name = top;
pos = (300,452);
}
);
layerId = m01;
shapes = (
{
closed = 1;
nodes = (
(478,452,l),
(201,452,ls),
(133,452,o),
(81,400,o),
(82,332,cs),
(82,329,ls),
(81,261,o),
(133,209,o),
(201,209,cs),
(399,209,ls),
(433,209,o),
(459,183,o),
(458,149,cs),
(458,120,ls),
(459,86,o),
(433,60,o),
(399,60,cs),
(83,60,l),
(83,0,l),
(399,0,ls),
(467,0,o),
(519,52,o),
(518,120,cs),
(518,149,ls),
(519,217,o),
(467,269,o),
(399,269,cs),
(201,269,ls),
(167,269,o),
(141,295,o),
(142,329,cs),
(142,332,ls),
(141,366,o),
(167,392,o),
(201,392,cs),
(478,392,l)
);
}
);
width = 600;
},
{
anchors = (
{
name = bottom;
pos = (300,0);
},
{
name = top;
pos = (300,452);
}
);
layerId = "BDCBA76E-5474-4BD3-A1CC-9641C626CFE7";
shapes = (
{
closed = 1;
nodes = (
(478,452,l),
(201,452,ls),
(133,452,o),
(81,400,o),
(82,332,cs),
(82,314,ls),
(82,246,o),
(134,194,o),
(202,195,cs),
(398,195,ls),
(415,195,o),
(428,182,o),
(428,165,cs),
(428,120,ls),
(428,103,o),
(415,90,o),
(398,90,cs),
(83,90,l),
(83,0,l),
(399,0,ls),
(467,0,o),
(519,52,o),
(518,120,cs),
(518,166,ls),
(518,234,o),
(466,286,o),
(398,285,cs),
(202,285,ls),
(185,285,o),
(172,298,o),
(172,315,cs),
(172,332,ls),
(172,349,o),
(185,362,o),
(202,362,cs),
(478,362,l)
);
}
);
width = 600;
},
{
anchors = (
{
name = bottom;
pos = (300,0);
},
{
name = top;
pos = (300,452);
}
);
layerId = "D8CC3DFA-F3EA-4C7D-84FB-05FCEA5C6558";
shapes = (
{
closed = 1;
nodes = (
(478,452,l),
(201,452,ls),
(133,452,o),
(81,400,o),
(82,332,cs),
(82,331,ls),
(81,263,o),
(133,211,o),
(201,211,cs),
(399,211,ls),
(450,211,o),
(489,172,o),
(488,121,cs),
(488,120,ls),
(489,69,o),
(450,30,o),
(399,30,cs),
(83,30,l),
(83,0,l),
(399,0,ls),
(467,0,o),
(519,52,o),
(518,120,cs),
(518,121,ls),
(519,189,o),
(467,241,o),
(399,241,cs),
(201,241,ls),
(150,241,o),
(111,280,o),
(112,331,cs),
(112,332,ls),
(111,383,o),
(150,422,o),
(201,422,cs),
(478,422,l)
);
}
);
width = 600;
}
);
unicode = 115;
}
{
color = 4;
glyphname = t;
lastChange = "2025-08-02 18:36:08 +0000";
layers = (
{
anchors = (
{
name = bottom;
pos = (300,0);
},
{
name = center;
pos = (300,226);
},
{
name = top;
pos = (300,620);
},
{
name = topright;
pos = (580,800);
}
);
layerId = m01;
shapes = (
{
closed = 1;
nodes = (
(248,620,l),
(248,120,ls),
(247,52,o),
(299,0,o),
(367,0,cs),
(516,0,l),
(516,60,l),
(367,60,ls),
(333,60,o),
(307,86,o),
(308,120,cs),
(308,620,l)
);
},
{
closed = 1;
nodes = (
(496,452,l),
(60,452,l),
(60,392,l),
(496,392,l)
);
}
);
width = 600;
},
{
anchors = (
{
name = bottom;
pos = (300,0);
},
{
name = center;
pos = (300,226);
},
{
name = top;
pos = (300,620);
},
{
name = topright;
pos = (580,800);
}
);
layerId = "BDCBA76E-5474-4BD3-A1CC-9641C626CFE7";
shapes = (
{
closed = 1;
nodes = (
(245,620,l),
(245,119,ls),
(245,51,o),
(297,-1,o),
(365,0,cs),
(528,0,l),
(528,90,l),
(365,90,ls),
(348,90,o),
(335,103,o),
(335,120,cs),
(335,620,l)
);
},
{
closed = 1;
nodes = (
(508,452,l),
(72,452,l),
(72,362,l),
(508,362,l)
);
}
);
width = 600;
},
{
anchors = (
{
name = bottom;
pos = (300,0);
},
{
name = center;
pos = (300,226);
},
{
name = top;
pos = (300,620);
},
{
name = topright;
pos = (580,800);
}
);
layerId = "D8CC3DFA-F3EA-4C7D-84FB-05FCEA5C6558";
shapes = (
{
closed = 1;
nodes = (
(275,620,l),
(275,119,ls),
(275,51,o),
(327,-1,o),
(395,0,cs),
(528,0,l),
(528,30,l),
(395,30,ls),
(344,29,o),
(305,68,o),
(305,119,cs),
(305,620,l)
);
},
{
closed = 1;
nodes = (
(508,452,l),
(72,452,l),
(72,422,l),
(508,422,l)
);
}
);
width = 600;
}
);
unicode = 116;
}
{
color = 4;
glyphname = u;
lastChange = "2025-08-02 18:36:12 +0000";
layers = (
{
anchors = (
{
name = bottom;
pos = (300,0);
},
{
name = ogonek;
pos = (540,10);
},
{
name = top;
pos = (300,452);
},
{
name = topright;
pos = (580,452);
}
);
layerId = m01;
shapes = (
{
closed = 1;
nodes = (
(458,452,l),
(458,28,l),
(487,60,l),
(201,60,ls),
(167,60,o),
(141,86,o),
(142,120,cs),
(142,452,l),
(82,452,l),
(82,120,ls),
(81,52,o),
(133,0,o),
(201,0,cs),
(518,0,l),
(518,452,l)
);
}
);
width = 600;
},
{
anchors = (
{
name = bottom;
pos = (300,0);
},
{
name = ogonek;
pos = (540,10);
},
{
name = top;
pos = (300,452);
},
{
name = topright;
pos = (580,452);
}
);
layerId = "BDCBA76E-5474-4BD3-A1CC-9641C626CFE7";
shapes = (
{
closed = 1;
nodes = (
(428,452,l),
(428,45,l),
(473,90,l),
(202,90,ls),
(185,90,o),
(172,103,o),
(172,120,cs),
(172,452,l),
(82,452,l),
(82,119,ls),
(82,51,o),
(134,-1,o),
(202,0,cs),
(518,0,l),
(518,452,l)
);
}
);
width = 600;
},
{
anchors = (
{
name = bottom;
pos = (300,0);
},
{
name = ogonek;
pos = (540,10);
},
{
name = top;
pos = (300,452);
},
{
name = topright;
pos = (580,452);
}
);
layerId = "D8CC3DFA-F3EA-4C7D-84FB-05FCEA5C6558";
shapes = (
{
closed = 1;
nodes = (
(488,452,l),
(488,15,l),
(502,30,l),
(201,30,ls),
(150,30,o),
(111,69,o),
(112,120,cs),
(112,452,l),
(82,452,l),
(82,120,ls),
(81,52,o),
(133,0,o),
(201,0,cs),
(518,0,l),
(518,452,l)
);
}
);
width = 600;
}
);
unicode = 117;
}
{
color = 4;
glyphname = v;
lastChange = "2025-08-02 18:36:18 +0000";
layers = (
{
anchors = (
{
name = bottom;
pos = (300,0);
},
{
name = top;
pos = (300,452);
}
);
layerId = m01;
shapes = (
{
closed = 1;
nodes = (
(336,0,l),
(519,452,l),
(455,452,l),
(279,19,l),
(321,19,l),
(145,452,l),
(81,452,l),
(264,0,l)
);
}
);
width = 600;
},
{
anchors = (
{
name = bottom;
pos = (300,0);
},
{
name = top;
pos = (300,452);
}
);
layerId = "BDCBA76E-5474-4BD3-A1CC-9641C626CFE7";
shapes = (
{
closed = 1;
nodes = (
(348,0,l),
(530,452,l),
(434,452,l),
(263,29,l),
(337,29,l),
(166,452,l),
(70,452,l),
(252,0,l)
);
}
);
width = 600;
},
{
anchors = (
{
name = bottom;
pos = (300,0);
},
{
name = top;
pos = (300,452);
}
);
layerId = "D8CC3DFA-F3EA-4C7D-84FB-05FCEA5C6558";
shapes = (
{
closed = 1;
nodes = (
(315,0,l),
(518,452,l),
(486,452,l),
(288,13,l),
(312,13,l),
(114,452,l),
(82,452,l),
(285,0,l)
);
}
);
width = 600;
}
);
unicode = 118;
}
{
color = 4;
glyphname = w;
lastChange = "2025-08-02 18:36:23 +0000";
layers = (
{
anchors = (
{
name = bottom;
pos = (300,0);
},
{
name = top;
pos = (300,452);
}
);
layerId = m01;
shapes = (
{
closed = 1;
nodes = (
(62,120,ls),
(62,52,o),
(113,0,o),
(181,0,cs),
(211,0,ls),
(247,0,o),
(279,15,o),
(300,38,c),
(322,14,o),
(353,0,o),
(389,0,cs),
(419,0,ls),
(487,0,o),
(539,52,o),
(538,120,cs),
(538,452,l),
(478,452,l),
(478,120,ls),
(479,86,o),
(453,60,o),
(419,60,cs),
(389,60,ls),
(356,60,o),
(331,83,o),
(330,116,c),
(330,390,l),
(270,390,l),
(270,116,l),
(269,83,o),
(244,60,o),
(211,60,cs),
(181,60,ls),
(147,60,o),
(121,86,o),
(122,120,cs),
(122,452,l),
(62,452,l)
);
}
);
width = 600;
},
{
anchors = (
{
name = bottom;
pos = (300,0);
},
{
name = top;
pos = (300,452);
}
);
layerId = "BDCBA76E-5474-4BD3-A1CC-9641C626CFE7";
shapes = (
{
closed = 1;
nodes = (
(62,119,ls),
(62,51,o),
(114,-1,o),
(182,0,cs),
(226,0,ls),
(254,0,o),
(280,9,o),
(300,24,c),
(320,9,o),
(346,0,o),
(374,0,cs),
(419,0,ls),
(487,0,o),
(539,52,o),
(538,120,cs),
(538,452,l),
(448,452,l),
(448,120,ls),
(448,103,o),
(435,90,o),
(418,90,cs),
(375,90,ls),
(358,90,o),
(345,103,o),
(345,120,cs),
(345,390,l),
(255,390,l),
(255,120,ls),
(255,103,o),
(242,90,o),
(225,90,cs),
(182,90,ls),
(165,90,o),
(152,103,o),
(152,120,cs),
(152,452,l),
(62,452,l)
);
}
);
width = 600;
},
{
anchors = (
{
name = bottom;
pos = (300,0);
},
{
name = top;
pos = (300,452);
}
);
layerId = "D8CC3DFA-F3EA-4C7D-84FB-05FCEA5C6558";
shapes = (
{
closed = 1;
nodes = (
(62,120,ls),
(61,52,o),
(113,0,o),
(181,0,cs),
(196,0,ls),
(242,0,o),
(280,23,o),
(300,59,c),
(320,23,o),
(358,0,o),
(404,0,cs),
(419,0,ls),
(487,0,o),
(539,52,o),
(538,120,cs),
(539,452,l),
(509,452,l),
(508,120,ls),
(509,69,o),
(470,30,o),
(419,30,cs),
(404,30,ls),
(354,30,o),
(316,66,o),
(315,116,c),
(315,390,l),
(285,390,l),
(285,116,l),
(284,66,o),
(246,30,o),
(196,30,cs),
(181,30,ls),
(130,30,o),
(91,69,o),
(92,120,cs),
(92,452,l),
(62,452,l)
);
}
);
width = 600;
}
);
unicode = 119;
}
{
color = 4;
glyphname = x;
lastChange = "2025-08-02 18:36:28 +0000";
layers = (
{
anchors = (
{
name = bottom;
pos = (300,0);
},
{
name = top;
pos = (300,452);
}
);
layerId = m01;
shapes = (
{
closed = 1;
nodes = (
(106,452,l),
(444,0,l),
(515,0,l),
(177,452,l)
);
},
{
closed = 1;
nodes = (
(326,222,l),
(490,452,l),
(419,452,l),
(285,270,l)
);
},
{
closed = 1;
nodes = (
(269,264,l),
(85,0,l),
(156,0,l),
(308,216,l)
);
}
);
width = 600;
},
{
anchors = (
{
name = bottom;
pos = (300,0);
},
{
name = top;
pos = (300,452);
}
);
layerId = "BDCBA76E-5474-4BD3-A1CC-9641C626CFE7";
shapes = (
{
closed = 1;
nodes = (
(79,452,l),
(426,0,l),
(538,0,l),
(191,452,l)
);
},
{
closed = 1;
nodes = (
(331,194,l),
(518,452,l),
(407,452,l),
(276,272,l)
);
},
{
closed = 1;
nodes = (
(249,257,l),
(63,0,l),
(174,0,l),
(312,188,l)
);
}
);
width = 600;
},
{
anchors = (
{
name = bottom;
pos = (300,0);
},
{
name = top;
pos = (300,452);
}
);
layerId = "D8CC3DFA-F3EA-4C7D-84FB-05FCEA5C6558";
shapes = (
{
closed = 1;
nodes = (
(115,452,l),
(475,0,l),
(513,0,l),
(153,452,l)
);
},
{
closed = 1;
nodes = (
(311,236,l),
(485,452,l),
(447,452,l),
(291,258,l)
);
},
{
closed = 1;
nodes = (
(284,256,l),
(87,0,l),
(125,0,l),
(304,233,l)
);
}
);
width = 600;
}
);
unicode = 120;
}
{
color = 4;
glyphname = y;
lastChange = "2025-08-02 18:36:34 +0000";
layers = (
{
anchors = (
{
name = bottom;
pos = (300,0);
},
{
name = top;
pos = (300,452);
}
);
layerId = m01;
shapes = (
{
closed = 1;
nodes = (
(82,-200,l),
(399,-200,ls),
(467,-200,o),
(519,-148,o),
(518,-80,cs),
(518,452,l),
(458,452,l),
(458,-80,ls),
(459,-114,o),
(433,-140,o),
(399,-140,cs),
(82,-140,l)
);
},
{
closed = 1;
nodes = (
(202,60,ls),
(168,60,o),
(142,86,o),
(143,120,cs),
(142,452,l),
(82,452,l),
(83,120,ls),
(82,52,o),
(134,0,o),
(202,0,cs),
(487,0,l),
(487,60,l)
);
}
);
width = 600;
},
{
anchors = (
{
name = bottom;
pos = (300,0);
},
{
name = top;
pos = (300,452);
}
);
layerId = "BDCBA76E-5474-4BD3-A1CC-9641C626CFE7";
shapes = (
{
closed = 1;
nodes = (
(82,-200,l),
(399,-200,ls),
(467,-200,o),
(519,-148,o),
(518,-80,cs),
(518,452,l),
(428,452,l),
(428,-80,ls),
(428,-97,o),
(415,-110,o),
(398,-110,cs),
(82,-110,l)
);
},
{
closed = 1;
nodes = (
(203,90,ls),
(186,90,o),
(173,103,o),
(173,120,cs),
(172,452,l),
(82,452,l),
(83,119,ls),
(83,51,o),
(135,0,o),
(203,0,cs),
(473,0,l),
(473,90,l)
);
}
);
width = 600;
},
{
anchors = (
{
name = bottom;
pos = (300,0);
},
{
name = top;
pos = (300,452);
}
);
layerId = "D8CC3DFA-F3EA-4C7D-84FB-05FCEA5C6558";
shapes = (
{
closed = 1;
nodes = (
(82,-200,l),
(399,-200,ls),
(467,-200,o),
(519,-148,o),
(518,-80,cs),
(518,452,l),
(488,452,l),
(488,-80,ls),
(489,-131,o),
(450,-170,o),
(399,-170,cs),
(82,-170,l)
);
},
{
closed = 1;
nodes = (
(203,30,ls),
(152,30,o),
(113,68,o),
(113,119,cs),
(112,452,l),
(82,452,l),
(83,119,ls),
(83,51,o),
(135,0,o),
(203,0,cs),
(503,0,l),
(503,30,l)
);
}
);
width = 600;
}
);
unicode = 121;
}
{
color = 4;
glyphname = z;
lastChange = "2025-08-02 18:36:45 +0000";
layers = (
{
anchors = (
{
name = bottom;
pos = (300,0);
},
{
name = center;
pos = (300,226);
},
{
name = top;
pos = (300,452);
}
);
layerId = m01;
shapes = (
{
closed = 1;
nodes = (
(132,60,l),
(132,25,l),
(487,392,l),
(487,452,l),
(102,452,l),
(102,392,l),
(438,392,l),
(438,427,l),
(83,60,l),
(83,0,l),
(518,0,l),
(518,60,l)
);
}
);
width = 600;
},
{
anchors = (
{
name = bottom;
pos = (300,0);
},
{
name = center;
pos = (300,226);
},
{
name = top;
pos = (300,452);
}
);
layerId = "BDCBA76E-5474-4BD3-A1CC-9641C626CFE7";
shapes = (
{
closed = 1;
nodes = (
(132,90,l),
(161,34,l),
(490,364,l),
(490,452,l),
(107,452,l),
(107,362,l),
(426,362,l),
(426,427,l),
(88,88,l),
(88,0,l),
(513,0,l),
(513,90,l)
);
}
);
width = 600;
},
{
anchors = (
{
name = bottom;
pos = (300,0);
},
{
name = center;
pos = (300,226);
},
{
name = top;
pos = (300,452);
}
);
layerId = "D8CC3DFA-F3EA-4C7D-84FB-05FCEA5C6558";
shapes = (
{
closed = 1;
nodes = (
(110,30,l),
(119,25,l),
(492,421,l),
(492,452,l),
(102,452,l),
(102,422,l),
(469,422,l),
(458,430,l),
(83,30,l),
(83,0,l),
(518,0,l),
(518,30,l)
);
}
);
width = 600;
}
);
unicode = 122;
}
{
glyphname = braceleft;
lastChange = "2025-08-07 23:06:11 +0000";
layers = (
{
layerId = m01;
shapes = (
{
closed = 1;
nodes = (
(459,-110,l),
(459,-50,l),
(320,-50,ls),
(286,-50,o),
(260,-24,o),
(261,10,cs),
(261,285,ls),
(261,319,o),
(235,345,o),
(201,345,c),
(235,345,o),
(261,371,o),
(261,405,cs),
(261,680,ls),
(260,714,o),
(286,740,o),
(320,740,cs),
(459,740,l),
(459,800,l),
(320,800,ls),
(252,800,o),
(200,748,o),
(201,680,cs),
(201,395,l),
(186,395,ls),
(161,395,o),
(141,376,o),
(141,350,cs),
(141,340,ls),
(141,315,o),
(161,295,o),
(186,295,cs),
(201,295,l),
(201,10,ls),
(200,-58,o),
(252,-110,o),
(320,-110,cs)
);
}
);
width = 600;
},
{
layerId = "BDCBA76E-5474-4BD3-A1CC-9641C626CFE7";
shapes = (
{
closed = 1;
nodes = (
(459,-110,l),
(459,-20,l),
(321,-20,ls),
(304,-20,o),
(291,-7,o),
(291,10,cs),
(291,285,ls),
(291,319,o),
(265,345,o),
(231,345,c),
(265,345,o),
(291,371,o),
(291,405,cs),
(291,680,ls),
(291,697,o),
(304,710,o),
(321,710,cs),
(459,710,l),
(459,800,l),
(320,800,ls),
(252,800,o),
(200,748,o),
(201,680,cs),
(201,395,l),
(186,395,ls),
(161,395,o),
(141,376,o),
(141,350,cs),
(141,340,ls),
(141,315,o),
(161,295,o),
(186,295,cs),
(201,295,l),
(201,9,ls),
(201,-59,o),
(253,-111,o),
(321,-110,cs)
);
}
);
width = 600;
},
{
layerId = "D8CC3DFA-F3EA-4C7D-84FB-05FCEA5C6558";
shapes = (
{
closed = 1;
nodes = (
(444,-110,l),
(444,-80,l),
(305,-80,ls),
(254,-80,o),
(215,-41,o),
(216,10,cs),
(216,315,ls),
(216,332,o),
(203,345,o),
(186,345,c),
(203,345,o),
(216,358,o),
(216,375,cs),
(216,680,ls),
(215,731,o),
(254,770,o),
(305,770,cs),
(444,770,l),
(444,800,l),
(305,800,ls),
(237,800,o),
(185,748,o),
(186,680,cs),
(186,375,l),
(185,375,ls),
(168,375,o),
(156,363,o),
(156,346,cs),
(156,345,ls),
(156,328,o),
(169,315,o),
(185,315,cs),
(186,315,l),
(186,10,ls),
(185,-58,o),
(237,-110,o),
(305,-110,cs)
);
}
);
width = 600;
}
);
unicode = 123;
}
{
glyphname = bar;
lastChange = "2025-08-07 23:32:32 +0000";
layers = (
{
layerId = m01;
shapes = (
{
closed = 1;
nodes = (
(270,-110,l),
(330,-110,l),
(330,800,l),
(270,800,l)
);
}
);
width = 600;
},
{
layerId = "BDCBA76E-5474-4BD3-A1CC-9641C626CFE7";
shapes = (
{
closed = 1;
nodes = (
(255,-110,l),
(345,-110,l),
(345,800,l),
(255,800,l)
);
}
);
width = 600;
},
{
layerId = "D8CC3DFA-F3EA-4C7D-84FB-05FCEA5C6558";
shapes = (
{
closed = 1;
nodes = (
(285,-110,l),
(315,-110,l),
(315,800,l),
(285,800,l)
);
}
);
width = 600;
}
);
unicode = 124;
}
{
glyphname = asciitilde;
lastChange = "2025-08-08 00:44:51 +0000";
layers = (
{
layerId = m01;
shapes = (
{
attr = {
strokeWidth = 60;
};
closed = 0;
nodes = (
(110,215,l),
(110,284,o),
(152,332,o),
(204,332,cs),
(292,332,o),
(296,216,o),
(389,216,cs),
(449,216,o),
(491,264,o),
(491,332,cs)
);
}
);
width = 600;
},
{
layerId = "BDCBA76E-5474-4BD3-A1CC-9641C626CFE7";
shapes = (
{
attr = {
strokeWidth = 90;
};
closed = 0;
nodes = (
(110,215,l),
(110,284,o),
(152,332,o),
(204,332,cs),
(292,332,o),
(296,216,o),
(389,216,cs),
(449,216,o),
(491,264,o),
(491,332,cs)
);
}
);
width = 600;
},
{
layerId = "D8CC3DFA-F3EA-4C7D-84FB-05FCEA5C6558";
shapes = (
{
attr = {
strokeWidth = 30;
};
closed = 0;
nodes = (
(110,215,l),
(110,284,o),
(152,332,o),
(204,332,cs),
(292,332,o),
(296,216,o),
(389,216,cs),
(449,216,o),
(491,264,o),
(491,332,cs)
);
}
);
width = 600;
}
);
unicode = 126;
}
{
glyphname = cent;
lastChange = "2025-08-07 23:35:58 +0000";
layers = (
{
layerId = m01;
shapes = (
{
closed = 1;
nodes = (
(518,100,l),
(518,160,l),
(201,160,ls),
(167,160,o),
(141,186,o),
(142,220,cs),
(142,480,ls),
(141,514,o),
(167,540,o),
(201,540,cs),
(518,540,l),
(518,600,l),
(201,600,ls),
(133,600,o),
(81,548,o),
(82,480,cs),
(82,220,ls),
(81,152,o),
(133,100,o),
(201,100,cs)
);
},
{
closed = 1;
nodes = (
(350,-16,l),
(350,716,l),
(290,716,l),
(290,-16,l)
);
}
);
width = 600;
},
{
layerId = "BDCBA76E-5474-4BD3-A1CC-9641C626CFE7";
shapes = (
{
closed = 1;
nodes = (
(518,100,l),
(518,190,l),
(202,190,ls),
(185,190,o),
(172,203,o),
(172,220,cs),
(172,480,ls),
(172,497,o),
(185,510,o),
(202,510,cs),
(518,510,l),
(518,600,l),
(201,600,ls),
(133,600,o),
(81,548,o),
(82,480,cs),
(82,220,ls),
(81,152,o),
(133,100,o),
(201,100,cs)
);
},
{
closed = 1;
nodes = (
(365,-16,l),
(365,716,l),
(275,716,l),
(275,-16,l)
);
}
);
width = 600;
},
{
layerId = "D8CC3DFA-F3EA-4C7D-84FB-05FCEA5C6558";
shapes = (
{
closed = 1;
nodes = (
(518,100,l),
(518,130,l),
(201,130,ls),
(150,130,o),
(111,169,o),
(112,220,cs),
(112,480,ls),
(111,531,o),
(150,570,o),
(201,570,cs),
(518,570,l),
(518,600,l),
(201,600,ls),
(133,600,o),
(81,548,o),
(82,480,cs),
(82,220,ls),
(81,152,o),
(133,100,o),
(201,100,cs)
);
},
{
closed = 1;
nodes = (
(335,-16,l),
(335,716,l),
(305,716,l),
(305,-16,l)
);
}
);
width = 600;
}
);
unicode = 162;
}
{
glyphname = sterling;
lastChange = "2025-08-07 23:41:33 +0000";
layers = (
{
layerId = m01;
shapes = (
{
closed = 1;
nodes = (
(510,0,l),
(510,60,l),
(140,60,l),
(156,16,l),
(227,309,l),
(227,500,ls),
(226,534,o),
(252,560,o),
(286,560,cs),
(315,560,ls),
(349,560,o),
(375,534,o),
(374,500,cs),
(374,473,l),
(434,473,l),
(434,500,ls),
(435,568,o),
(383,620,o),
(315,620,cs),
(286,620,ls),
(218,620,o),
(166,568,o),
(167,500,cs),
(167,309,l),
(91,0,l)
);
},
{
closed = 1;
nodes = (
(374,270,l),
(374,330,l),
(94,330,l),
(94,270,l)
);
}
);
width = 600;
},
{
layerId = "BDCBA76E-5474-4BD3-A1CC-9641C626CFE7";
shapes = (
{
closed = 1;
nodes = (
(517,0,l),
(517,90,l),
(151,90,l),
(186,46,l),
(249,313,l),
(249,500,ls),
(249,517,o),
(262,530,o),
(279,530,cs),
(336,530,ls),
(353,530,o),
(366,517,o),
(366,500,cs),
(366,453,l),
(456,453,l),
(456,500,ls),
(457,568,o),
(405,620,o),
(337,620,cs),
(278,620,ls),
(210,620,o),
(158,568,o),
(159,500,cs),
(159,313,l),
(83,0,l)
);
},
{
closed = 1;
nodes = (
(381,255,l),
(381,345,l),
(101,345,l),
(101,255,l)
);
}
);
width = 600;
},
{
layerId = "D8CC3DFA-F3EA-4C7D-84FB-05FCEA5C6558";
shapes = (
{
closed = 1;
nodes = (
(510,0,l),
(510,30,l),
(114,30,l),
(124,9,l),
(197,299,l),
(197,500,ls),
(196,551,o),
(235,590,o),
(286,590,cs),
(315,590,ls),
(366,590,o),
(405,551,o),
(404,500,cs),
(404,473,l),
(434,473,l),
(434,500,ls),
(435,568,o),
(383,620,o),
(315,620,cs),
(286,620,ls),
(218,620,o),
(166,568,o),
(167,500,cs),
(167,299,l),
(91,0,l)
);
},
{
closed = 1;
nodes = (
(374,286,l),
(374,316,l),
(94,316,l),
(94,286,l)
);
}
);
width = 600;
}
);
unicode = 163;
}
{
glyphname = currency;
lastChange = "2025-08-07 23:36:36 +0000";
layers = (
{
layerId = m01;
shapes = (
{
closed = 1;
nodes = (
(402,142,o),
(485,225,o),
(485,327,cs),
(485,429,o),
(402,512,o),
(300,512,cs),
(198,512,o),
(115,429,o),
(115,327,cs),
(115,225,o),
(198,142,o),
(300,142,cs)
);
},
{
closed = 1;
nodes = (
(231,202,o),
(175,258,o),
(175,327,cs),
(175,396,o),
(231,452,o),
(300,452,cs),
(369,452,o),
(425,396,o),
(425,327,cs),
(425,258,o),
(369,202,o),
(300,202,cs)
);
},
{
closed = 1;
nodes = (
(427,412,l),
(518,503,l),
(476,545,l),
(384,453,l)
);
},
{
closed = 1;
nodes = (
(210,459,l),
(124,545,l),
(82,503,l),
(168,417,l)
);
},
{
closed = 1;
nodes = (
(168,237,l),
(82,151,l),
(124,109,l),
(211,196,l)
);
},
{
closed = 1;
nodes = (
(387,198,l),
(476,109,l),
(518,151,l),
(428,241,l)
);
}
);
width = 600;
},
{
layerId = "BDCBA76E-5474-4BD3-A1CC-9641C626CFE7";
shapes = (
{
closed = 1;
nodes = (
(402,142,o),
(485,225,o),
(485,327,cs),
(485,429,o),
(402,512,o),
(300,512,cs),
(198,512,o),
(115,429,o),
(115,327,cs),
(115,225,o),
(198,142,o),
(300,142,cs)
);
},
{
closed = 1;
nodes = (
(245,227,o),
(200,272,o),
(200,327,cs),
(200,382,o),
(245,427,o),
(300,427,cs),
(355,427,o),
(400,382,o),
(400,327,cs),
(400,272,o),
(355,227,o),
(300,227,cs)
);
},
{
closed = 1;
nodes = (
(434,404,l),
(525,496,l),
(469,552,l),
(377,460,l)
);
},
{
closed = 1;
nodes = (
(217,466,l),
(131,552,l),
(75,496,l),
(161,410,l)
);
},
{
closed = 1;
nodes = (
(161,244,l),
(75,158,l),
(131,102,l),
(218,189,l)
);
},
{
closed = 1;
nodes = (
(380,191,l),
(469,102,l),
(525,158,l),
(436,247,l)
);
}
);
width = 600;
},
{
layerId = "D8CC3DFA-F3EA-4C7D-84FB-05FCEA5C6558";
shapes = (
{
closed = 1;
nodes = (
(402,142,o),
(485,225,o),
(485,327,cs),
(485,429,o),
(402,512,o),
(300,512,cs),
(198,512,o),
(115,429,o),
(115,327,cs),
(115,225,o),
(198,142,o),
(300,142,cs)
);
},
{
closed = 1;
nodes = (
(217,177,o),
(150,244,o),
(150,327,cs),
(150,410,o),
(217,477,o),
(300,477,cs),
(383,477,o),
(450,410,o),
(450,327,cs),
(450,244,o),
(383,177,o),
(300,177,cs)
);
},
{
closed = 1;
nodes = (
(422,428,l),
(508,513,l),
(486,535,l),
(400,449,l)
);
},
{
closed = 1;
nodes = (
(200,448,l),
(113,535,l),
(92,514,l),
(179,427,l)
);
},
{
closed = 1;
nodes = (
(179,226,l),
(92,140,l),
(114,119,l),
(201,206,l)
);
},
{
closed = 1;
nodes = (
(398,209,l),
(487,119,l),
(508,141,l),
(418,231,l)
);
}
);
width = 600;
}
);
unicode = 164;
}
{
glyphname = yen;
lastChange = "2025-08-07 23:42:45 +0000";
layers = (
{
layerId = m01;
shapes = (
{
ref = Y;
},
{
closed = 1;
nodes = (
(82,300,l),
(518,300,l),
(518,360,l),
(82,360,l)
);
},
{
closed = 1;
nodes = (
(82,180,l),
(518,180,l),
(518,240,l),
(82,240,l)
);
}
);
width = 600;
},
{
layerId = "BDCBA76E-5474-4BD3-A1CC-9641C626CFE7";
shapes = (
{
ref = Y;
},
{
closed = 1;
nodes = (
(82,265,l),
(518,265,l),
(518,355,l),
(82,355,l)
);
},
{
closed = 1;
nodes = (
(82,130,l),
(518,130,l),
(518,220,l),
(82,220,l)
);
}
);
width = 600;
},
{
layerId = "D8CC3DFA-F3EA-4C7D-84FB-05FCEA5C6558";
shapes = (
{
ref = Y;
},
{
closed = 1;
nodes = (
(82,270,l),
(518,270,l),
(518,300,l),
(82,300,l)
);
},
{
closed = 1;
nodes = (
(82,195,l),
(518,195,l),
(518,225,l),
(82,225,l)
);
}
);
width = 600;
}
);
unicode = 165;
}
{
glyphname = brokenbar;
lastChange = "2025-08-07 23:33:03 +0000";
layers = (
{
layerId = m01;
shapes = (
{
closed = 1;
nodes = (
(270,385,l),
(330,385,l),
(330,800,l),
(270,800,l)
);
},
{
closed = 1;
nodes = (
(270,-110,l),
(330,-110,l),
(330,305,l),
(270,305,l)
);
}
);
width = 600;
},
{
layerId = "BDCBA76E-5474-4BD3-A1CC-9641C626CFE7";
shapes = (
{
closed = 1;
nodes = (
(255,385,l),
(345,385,l),
(345,800,l),
(255,800,l)
);
},
{
closed = 1;
nodes = (
(255,-110,l),
(345,-110,l),
(345,305,l),
(255,305,l)
);
}
);
width = 600;
},
{
layerId = "D8CC3DFA-F3EA-4C7D-84FB-05FCEA5C6558";
shapes = (
{
closed = 1;
nodes = (
(285,385,l),
(315,385,l),
(315,800,l),
(285,800,l)
);
},
{
closed = 1;
nodes = (
(285,-110,l),
(315,-110,l),
(315,305,l),
(285,305,l)
);
}
);
width = 600;
}
);
unicode = 166;
}
{
glyphname = section;
lastChange = "2025-08-07 23:29:29 +0000";
layers = (
{
layerId = m01;
shapes = (
{
closed = 1;
nodes = (
(372,-80,ls),
(440,-80,o),
(492,-28,o),
(492,40,cs),
(492,90,ls),
(492,158,o),
(440,210,o),
(372,210,cs),
(364,210,l),
(427,238,ls),
(471,257,o),
(504,308,o),
(504,356,cs),
(504,368,ls),
(504,436,o),
(452,488,o),
(384,488,cs),
(228,488,ls),
(194,488,o),
(168,514,o),
(168,548,cs),
(168,598,ls),
(168,632,o),
(194,658,o),
(228,658,cs),
(429,658,l),
(429,718,l),
(228,718,ls),
(160,718,o),
(108,666,o),
(108,598,cs),
(108,548,ls),
(108,481,o),
(158,428,o),
(225,428,cs),
(228,428,l),
(172,401,ls),
(129,381,o),
(96,330,o),
(96,282,cs),
(96,270,ls),
(96,202,o),
(148,150,o),
(216,150,cs),
(372,150,ls),
(406,150,o),
(432,124,o),
(432,90,cs),
(432,40,ls),
(432,6,o),
(406,-20,o),
(372,-20,cs),
(171,-20,l),
(171,-80,l)
);
},
{
closed = 1;
nodes = (
(182,210,o),
(156,236,o),
(156,270,cs),
(156,279,ls),
(156,313,o),
(179,342,o),
(210,357,cs),
(355,428,l),
(384,428,ls),
(418,428,o),
(444,402,o),
(444,368,cs),
(444,356,ls),
(444,322,o),
(420,296,o),
(390,282,cs),
(234,210,l),
(216,210,ls)
);
}
);
width = 600;
},
{
layerId = "BDCBA76E-5474-4BD3-A1CC-9641C626CFE7";
shapes = (
{
closed = 1;
nodes = (
(372,-80,ls),
(440,-80,o),
(492,-28,o),
(492,40,cs),
(492,105,ls),
(492,159,o),
(456,196,o),
(410,219,cs),
(408,220,l),
(430,232,ls),
(472,255,o),
(504,308,o),
(504,356,cs),
(504,383,ls),
(504,451,o),
(452,503,o),
(384,503,cs),
(258,503,ls),
(224,503,o),
(198,529,o),
(198,563,cs),
(198,568,ls),
(198,602,o),
(224,628,o),
(258,628,cs),
(429,628,l),
(429,718,l),
(228,718,ls),
(160,718,o),
(108,666,o),
(108,598,cs),
(108,548,ls),
(108,484,o),
(153,428,o),
(217,428,cs),
(219,428,l),
(171,404,ls),
(128,383,o),
(96,329,o),
(96,268,cs),
(96,254,ls),
(96,186,o),
(148,134,o),
(216,134,cs),
(342,134,ls),
(376,134,o),
(402,108,o),
(402,74,cs),
(402,70,ls),
(402,36,o),
(376,10,o),
(342,10,cs),
(171,10,l),
(171,-80,l)
);
},
{
closed = 1;
nodes = (
(212,225,o),
(186,251,o),
(186,285,cs),
(186,296,ls),
(186,330,o),
(209,358,o),
(240,373,cs),
(351,428,l),
(366,428,ls),
(393,428,o),
(414,407,o),
(414,380,cs),
(414,351,ls),
(414,317,o),
(391,279,o),
(361,264,cs),
(284,225,l),
(246,225,ls)
);
}
);
width = 600;
},
{
layerId = "D8CC3DFA-F3EA-4C7D-84FB-05FCEA5C6558";
shapes = (
{
closed = 1;
nodes = (
(373,-80,ls),
(441,-80,o),
(493,-28,o),
(492,40,cs),
(492,60,ls),
(493,128,o),
(441,180,o),
(373,180,cs),
(337,180,l),
(442,242,ls),
(477,262,o),
(504,309,o),
(504,350,cs),
(504,368,ls),
(505,436,o),
(453,488,o),
(385,488,cs),
(227,488,ls),
(176,488,o),
(137,527,o),
(138,578,cs),
(138,598,ls),
(137,649,o),
(176,688,o),
(227,688,cs),
(429,688,l),
(429,718,l),
(227,718,ls),
(159,718,o),
(107,666,o),
(108,598,cs),
(108,578,ls),
(107,510,o),
(159,458,o),
(227,458,cs),
(289,458,l),
(158,383,ls),
(123,363,o),
(96,316,o),
(96,275,cs),
(96,270,ls),
(95,202,o),
(147,150,o),
(215,150,cs),
(373,150,ls),
(424,150,o),
(463,111,o),
(462,60,cs),
(462,40,ls),
(463,-11,o),
(424,-50,o),
(373,-50,cs),
(151,-50,l),
(151,-80,l)
);
},
{
closed = 1;
nodes = (
(164,180,o),
(126,218,o),
(126,269,cs),
(126,275,ls),
(126,309,o),
(149,344,o),
(178,361,cs),
(349,458,l),
(385,458,ls),
(436,458,o),
(475,419,o),
(474,368,cs),
(474,354,ls),
(474,320,o),
(452,281,o),
(422,264,cs),
(277,180,l),
(215,180,ls)
);
}
);
width = 600;
}
);
unicode = 167;
}
{
glyphname = dieresis;
lastChange = "2025-08-07 23:20:43 +0000";
layers = (
{
layerId = m01;
shapes = (
{
closed = 1;
nodes = (
(382,581,o),
(400,599,o),
(400,621,cs),
(400,643,o),
(382,661,o),
(360,661,cs),
(338,661,o),
(320,643,o),
(320,621,cs),
(320,599,o),
(338,581,o),
(360,581,cs)
);
},
{
closed = 1;
nodes = (
(262,581,o),
(280,599,o),
(280,621,cs),
(280,643,o),
(262,661,o),
(240,661,cs),
(218,661,o),
(200,643,o),
(200,621,cs),
(200,599,o),
(218,581,o),
(240,581,cs)
);
}
);
width = 600;
},
{
layerId = "BDCBA76E-5474-4BD3-A1CC-9641C626CFE7";
shapes = (
{
closed = 1;
nodes = (
(413,561,o),
(440,588,o),
(440,621,cs),
(440,654,o),
(413,681,o),
(380,681,cs),
(347,681,o),
(320,654,o),
(320,621,cs),
(320,588,o),
(347,561,o),
(380,561,cs)
);
},
{
closed = 1;
nodes = (
(253,561,o),
(280,588,o),
(280,621,cs),
(280,654,o),
(253,681,o),
(220,681,cs),
(187,681,o),
(160,654,o),
(160,621,cs),
(160,588,o),
(187,561,o),
(220,561,cs)
);
}
);
width = 600;
},
{
layerId = "D8CC3DFA-F3EA-4C7D-84FB-05FCEA5C6558";
shapes = (
{
closed = 1;
nodes = (
(382,581,o),
(400,599,o),
(400,621,cs),
(400,643,o),
(382,661,o),
(360,661,cs),
(338,661,o),
(320,643,o),
(320,621,cs),
(320,599,o),
(338,581,o),
(360,581,cs)
);
},
{
closed = 1;
nodes = (
(262,581,o),
(280,599,o),
(280,621,cs),
(280,643,o),
(262,661,o),
(240,661,cs),
(218,661,o),
(200,643,o),
(200,621,cs),
(200,599,o),
(218,581,o),
(240,581,cs)
);
}
);
width = 600;
}
);
unicode = 168;
}
{
glyphname = copyright;
lastChange = "2025-08-07 23:30:09 +0000";
layers = (
{
layerId = m01;
shapes = (
{
closed = 1;
nodes = (
(308,0,l),
(444,0,o),
(548,104,o),
(548,240,c),
(548,460,l),
(548,596,o),
(444,700,o),
(308,700,c),
(292,700,l),
(156,700,o),
(52,596,o),
(52,460,c),
(52,240,l),
(52,104,o),
(156,0,o),
(292,0,c)
);
},
{
closed = 1;
nodes = (
(190,60,o),
(112,138,o),
(112,240,c),
(112,460,l),
(112,562,o),
(190,640,o),
(292,640,c),
(308,640,l),
(410,640,o),
(488,562,o),
(488,460,c),
(488,240,l),
(488,138,o),
(410,60,o),
(308,60,c),
(292,60,l)
);
},
{
closed = 1;
nodes = (
(314,127,l),
(382,127,o),
(434,179,o),
(434,247,c),
(434,252,l),
(374,252,l),
(374,247,l),
(374,213,o),
(348,187,o),
(314,187,c),
(286,187,l),
(252,187,o),
(226,213,o),
(226,247,c),
(226,455,l),
(226,489,o),
(252,515,o),
(286,515,c),
(314,515,l),
(348,515,o),
(374,489,o),
(374,455,c),
(374,450,l),
(434,450,l),
(434,455,l),
(434,523,o),
(382,575,o),
(314,575,c),
(286,575,l),
(218,575,o),
(166,523,o),
(166,455,c),
(166,247,l),
(166,179,o),
(218,127,o),
(286,127,c)
);
}
);
width = 600;
},
{
layerId = "BDCBA76E-5474-4BD3-A1CC-9641C626CFE7";
shapes = (
{
closed = 1;
nodes = (
(308,0,l),
(444,0,o),
(548,104,o),
(548,240,c),
(548,460,l),
(548,596,o),
(444,700,o),
(308,700,c),
(292,700,l),
(156,700,o),
(52,596,o),
(52,460,c),
(52,240,l),
(52,104,o),
(156,0,o),
(292,0,c)
);
},
{
closed = 1;
nodes = (
(207,90,o),
(142,155,o),
(142,240,c),
(142,460,l),
(142,545,o),
(207,610,o),
(292,610,c),
(308,610,l),
(393,610,o),
(458,545,o),
(458,460,c),
(458,240,l),
(458,155,o),
(393,90,o),
(308,90,c),
(292,90,l)
);
},
{
closed = 1;
nodes = (
(304,127,l),
(372,127,o),
(424,179,o),
(424,247,c),
(424,282,l),
(334,282,l),
(334,247,l),
(334,230,o),
(321,217,o),
(304,217,c),
(296,217,l),
(279,217,o),
(266,230,o),
(266,247,c),
(266,455,l),
(266,472,o),
(279,485,o),
(296,485,c),
(304,485,l),
(321,485,o),
(334,472,o),
(334,455,c),
(334,420,l),
(424,420,l),
(424,455,l),
(424,523,o),
(372,575,o),
(304,575,c),
(296,575,l),
(228,575,o),
(176,523,o),
(176,455,c),
(176,247,l),
(176,179,o),
(228,127,o),
(296,127,c)
);
}
);
width = 600;
},
{
layerId = "D8CC3DFA-F3EA-4C7D-84FB-05FCEA5C6558";
shapes = (
{
closed = 1;
nodes = (
(308,0,ls),
(444,0,o),
(548,104,o),
(548,240,cs),
(548,460,ls),
(548,596,o),
(444,700,o),
(308,700,cs),
(292,700,ls),
(156,700,o),
(52,596,o),
(52,460,cs),
(52,240,ls),
(52,104,o),
(156,0,o),
(292,0,cs)
);
},
{
closed = 1;
nodes = (
(173,30,o),
(82,121,o),
(82,240,cs),
(82,460,ls),
(82,579,o),
(173,670,o),
(292,670,cs),
(308,670,ls),
(427,670,o),
(518,579,o),
(518,460,cs),
(518,240,ls),
(518,121,o),
(427,30,o),
(308,30,cs),
(292,30,ls)
);
},
{
closed = 1;
nodes = (
(315,127,ls),
(383,127,o),
(435,179,o),
(434,247,cs),
(434,252,l),
(404,252,l),
(404,247,ls),
(405,196,o),
(366,157,o),
(315,157,cs),
(285,157,ls),
(234,157,o),
(195,196,o),
(196,247,cs),
(196,455,ls),
(195,506,o),
(234,545,o),
(285,545,cs),
(315,545,ls),
(366,545,o),
(405,506,o),
(404,455,cs),
(404,450,l),
(434,450,l),
(434,455,ls),
(435,523,o),
(383,575,o),
(315,575,cs),
(285,575,ls),
(217,575,o),
(165,523,o),
(166,455,cs),
(166,247,ls),
(165,179,o),
(217,127,o),
(285,127,cs)
);
}
);
width = 600;
}
);
unicode = 169;
}
{
glyphname = ordfeminine;
lastChange = "2025-08-04 01:28:54 +0000";
layers = (
{
layerId = m01;
shapes = (
{
closed = 1;
nodes = (
(438,452,l),
(438,680,ls),
(439,748,o),
(387,800,o),
(319,800,cs),
(181,800,l),
(181,740,l),
(319,740,ls),
(355,740,o),
(380,712,o),
(378,677,c),
(378,648,l),
(378,512,l),
(281,512,ls),
(247,512,o),
(221,538,o),
(222,572,cs),
(222,573,ls),
(221,607,o),
(247,633,o),
(281,633,cs),
(403,633,l),
(402,693,l),
(281,693,ls),
(213,693,o),
(161,641,o),
(162,573,cs),
(162,572,ls),
(161,504,o),
(213,452,o),
(281,452,cs)
);
}
);
width = 600;
},
{
layerId = "BDCBA76E-5474-4BD3-A1CC-9641C626CFE7";
shapes = (
{
closed = 1;
nodes = (
(445,452,l),
(445,680,ls),
(446,748,o),
(394,800,o),
(326,800,cs),
(188,800,l),
(188,710,l),
(325,710,ls),
(346,710,o),
(360,692,o),
(355,662,c),
(355,636,l),
(355,542,l),
(276,542,ls),
(259,542,o),
(246,555,o),
(246,572,cs),
(246,573,ls),
(246,590,o),
(259,603,o),
(276,603,cs),
(391,603,l),
(388,693,l),
(275,693,ls),
(207,693,o),
(155,641,o),
(156,573,cs),
(156,572,ls),
(155,504,o),
(207,452,o),
(275,452,cs)
);
}
);
width = 600;
},
{
layerId = "D8CC3DFA-F3EA-4C7D-84FB-05FCEA5C6558";
shapes = (
{
closed = 1;
nodes = (
(438,452,l),
(438,681,ls),
(438,749,o),
(386,801,o),
(318,800,cs),
(181,800,l),
(181,770,l),
(318,770,ls),
(369,771,o),
(406,733,o),
(408,685,c),
(408,671,l),
(408,482,l),
(281,482,ls),
(230,482,o),
(191,521,o),
(192,572,cs),
(192,573,ls),
(191,624,o),
(230,663,o),
(281,663,cs),
(426,663,l),
(425,693,l),
(281,693,ls),
(213,693,o),
(161,641,o),
(162,573,cs),
(162,572,ls),
(161,504,o),
(213,452,o),
(281,452,cs)
);
}
);
width = 600;
}
);
unicode = 170;
}
{
glyphname = logicalnot;
lastChange = "2025-08-08 00:45:21 +0000";
layers = (
{
hints = (
{
name = _corner.round;
origin = (0,1);
type = Corner;
}
);
layerId = m01;
shapes = (
{
attr = {
strokeWidth = 60;
};
closed = 0;
nodes = (
(82,279,l),
(488,279,l),
(488,41,l)
);
}
);
width = 600;
},
{
hints = (
{
name = _corner.round;
origin = (0,1);
type = Corner;
}
);
layerId = "BDCBA76E-5474-4BD3-A1CC-9641C626CFE7";
shapes = (
{
attr = {
strokeWidth = 90;
};
closed = 0;
nodes = (
(75,279,l),
(481,279,l),
(481,41,l)
);
}
);
width = 600;
},
{
hints = (
{
name = _corner.round;
origin = (0,1);
type = Corner;
}
);
layerId = "D8CC3DFA-F3EA-4C7D-84FB-05FCEA5C6558";
shapes = (
{
attr = {
strokeWidth = 30;
};
closed = 0;
nodes = (
(90,279,l),
(496,279,l),
(496,41,l)
);
}
);
width = 600;
}
);
unicode = 172;
}
{
glyphname = registered;
lastChange = "2025-08-07 23:30:47 +0000";
layers = (
{
hints = (
{
name = _corner.round;
origin = (2,1);
scale = (0.7,0.7);
type = Corner;
},
{
name = _corner.round;
options = 2;
origin = (2,2);
scale = (0.7,0.7);
type = Corner;
},
{
name = _corner.round;
origin = (2,10,2,12);
scale = (0.2,0.2);
stem = 1000;
type = Corner;
},
{
name = _corner.round;
origin = (3,5);
scale = (0.7,0.7);
type = Corner;
},
{
name = _corner.round;
origin = (2,8,2,10);
scale = (0.2,0.2);
stem = 1000;
type = Corner;
},
{
name = _corner.round;
origin = (2,1,3,3);
scale = (0.2,0.2);
stem = 1000;
type = Corner;
}
);
layerId = m01;
shapes = (
{
closed = 1;
nodes = (
(428,290,o),
(531,393,o),
(531,521,cs),
(531,649,o),
(428,752,o),
(300,752,cs),
(172,752,o),
(69,649,o),
(69,521,cs),
(69,393,o),
(172,290,o),
(300,290,cs)
);
},
{
closed = 1;
nodes = (
(199,340,o),
(119,420,o),
(119,521,cs),
(119,622,o),
(199,702,o),
(300,702,cs),
(401,702,o),
(481,622,o),
(481,521,c),
(481,420,o),
(401,340,o),
(300,340,cs)
);
},
{
closed = 1;
nodes = (
(234,506,l),
(376,506,l),
(376,635,l),
(224,635,l),
(224,402,l),
(264,402,l),
(264,630,l),
(230,595,l),
(370,595,l),
(336,630,l),
(336,520,l),
(370,546,l),
(234,546,l)
);
},
{
closed = 1;
nodes = (
(234,514,l),
(365,514,l),
(336,525,l),
(336,402,l),
(376,402,l),
(376,546,l),
(234,546,l)
);
}
);
width = 600;
},
{
hints = (
{
name = _corner.round;
origin = (2,1);
scale = (0.7,0.7);
type = Corner;
},
{
name = _corner.round;
options = 2;
origin = (2,2);
scale = (0.7,0.7);
type = Corner;
},
{
name = _corner.round;
origin = (2,10,2,12);
scale = (0.2,0.2);
stem = 1000;
type = Corner;
},
{
name = _corner.round;
origin = (3,5);
scale = (0.7,0.7);
type = Corner;
},
{
name = _corner.round;
origin = (2,8,2,10);
scale = (0.2,0.2);
stem = 1000;
type = Corner;
},
{
name = _corner.round;
origin = (2,1,3,3);
scale = (0.2,0.2);
stem = 1000;
type = Corner;
}
);
layerId = "BDCBA76E-5474-4BD3-A1CC-9641C626CFE7";
shapes = (
{
closed = 1;
nodes = (
(428,290,o),
(531,393,o),
(531,521,cs),
(531,649,o),
(428,752,o),
(300,752,cs),
(172,752,o),
(69,649,o),
(69,521,cs),
(69,393,o),
(172,290,o),
(300,290,cs)
);
},
{
closed = 1;
nodes = (
(205,351,o),
(130,426,o),
(130,521,cs),
(130,616,o),
(205,691,o),
(300,691,cs),
(395,691,o),
(470,616,o),
(470,521,c),
(470,426,o),
(395,351,o),
(300,351,cs)
);
},
{
closed = 1;
nodes = (
(234,496,l),
(376,496,l),
(376,635,l),
(224,635,l),
(224,402,l),
(274,402,l),
(274,630,l),
(230,585,l),
(370,585,l),
(326,630,l),
(326,520,l),
(370,546,l),
(234,546,l)
);
},
{
closed = 1;
nodes = (
(234,514,l),
(365,514,l),
(326,525,l),
(326,402,l),
(376,402,l),
(376,546,l),
(234,546,l)
);
}
);
width = 600;
},
{
hints = (
{
name = _corner.round;
origin = (2,1);
scale = (0.7,0.7);
type = Corner;
},
{
name = _corner.round;
options = 2;
origin = (2,2);
scale = (0.7,0.7);
type = Corner;
},
{
name = _corner.round;
origin = (2,10,2,12);
scale = (0.2,0.2);
stem = 1000;
type = Corner;
},
{
name = _corner.round;
origin = (3,5);
scale = (0.7,0.7);
type = Corner;
},
{
name = _corner.round;
origin = (2,8,2,10);
scale = (0.2,0.2);
stem = 1000;
type = Corner;
},
{
name = _corner.round;
origin = (2,1,3,3);
scale = (0.2,0.2);
stem = 1000;
type = Corner;
}
);
layerId = "D8CC3DFA-F3EA-4C7D-84FB-05FCEA5C6558";
shapes = (
{
closed = 1;
nodes = (
(428,290,o),
(531,393,o),
(531,521,cs),
(531,649,o),
(428,752,o),
(300,752,cs),
(172,752,o),
(69,649,o),
(69,521,cs),
(69,393,o),
(172,290,o),
(300,290,cs)
);
},
{
closed = 1;
nodes = (
(186,316,o),
(95,407,o),
(95,521,cs),
(95,635,o),
(186,726,o),
(300,726,cs),
(414,726,o),
(505,635,o),
(505,521,c),
(505,407,o),
(414,316,o),
(300,316,cs)
);
},
{
closed = 1;
nodes = (
(234,516,l),
(376,516,l),
(376,635,l),
(224,635,l),
(224,402,l),
(254,402,l),
(254,630,l),
(230,605,l),
(370,605,l),
(346,630,l),
(346,520,l),
(370,546,l),
(234,546,l)
);
},
{
closed = 1;
nodes = (
(234,516,l),
(365,516,l),
(346,525,l),
(346,402,l),
(376,402,l),
(376,546,l),
(234,546,l)
);
}
);
width = 600;
}
);
unicode = 174;
}
{
glyphname = macron;
lastChange = "2025-08-07 23:20:43 +0000";
layers = (
{
layerId = m01;
shapes = (
{
closed = 1;
nodes = (
(180,693,l),
(420,693,l),
(420,743,l),
(180,743,l)
);
}
);
width = 600;
},
{
layerId = "BDCBA76E-5474-4BD3-A1CC-9641C626CFE7";
shapes = (
{
closed = 1;
nodes = (
(180,663,l),
(420,663,l),
(420,743,l),
(180,743,l)
);
}
);
width = 600;
},
{
layerId = "D8CC3DFA-F3EA-4C7D-84FB-05FCEA5C6558";
shapes = (
{
closed = 1;
nodes = (
(180,703,l),
(420,703,l),
(420,733,l),
(180,733,l)
);
}
);
width = 600;
}
);
unicode = 175;
}
{
glyphname = degree;
lastChange = "2025-08-07 23:31:58 +0000";
layers = (
{
layerId = m01;
shapes = (
{
closed = 1;
nodes = (
(382,391,o),
(449,458,o),
(449,540,cs),
(449,622,o),
(382,689,o),
(300,689,cs),
(218,689,o),
(151,622,o),
(151,540,cs),
(151,458,o),
(218,391,o),
(300,391,cs)
);
},
{
closed = 1;
nodes = (
(251,451,o),
(211,491,o),
(211,540,cs),
(211,589,o),
(251,629,o),
(300,629,cs),
(349,629,o),
(389,589,o),
(389,540,cs),
(389,491,o),
(349,451,o),
(300,451,cs)
);
}
);
width = 600;
},
{
layerId = "BDCBA76E-5474-4BD3-A1CC-9641C626CFE7";
shapes = (
{
closed = 1;
nodes = (
(382,391,o),
(449,458,o),
(449,540,cs),
(449,622,o),
(382,689,o),
(300,689,cs),
(218,689,o),
(151,622,o),
(151,540,cs),
(151,458,o),
(218,391,o),
(300,391,cs)
);
},
{
closed = 1;
nodes = (
(261,470,o),
(230,501,o),
(230,540,cs),
(230,579,o),
(261,610,o),
(300,610,cs),
(339,610,o),
(370,579,o),
(370,540,cs),
(370,501,o),
(339,470,o),
(300,470,cs)
);
}
);
width = 600;
},
{
layerId = "D8CC3DFA-F3EA-4C7D-84FB-05FCEA5C6558";
shapes = (
{
closed = 1;
nodes = (
(382,391,o),
(449,458,o),
(449,540,cs),
(449,622,o),
(382,689,o),
(300,689,cs),
(218,689,o),
(151,622,o),
(151,540,cs),
(151,458,o),
(218,391,o),
(300,391,cs)
);
},
{
closed = 1;
nodes = (
(242,435,o),
(195,482,o),
(195,540,cs),
(195,598,o),
(242,645,o),
(300,645,cs),
(358,645,o),
(405,598,o),
(405,540,cs),
(405,482,o),
(358,435,o),
(300,435,cs)
);
}
);
width = 600;
}
);
unicode = 176;
}
{
glyphname = twosuperior;
lastChange = "2025-08-07 18:22:29 +0000";
layers = (
{
hints = (
{
name = _corner.round;
origin = (0,9);
scale = (1.16667,1.16667);
type = Corner;
},
{
name = _corner.round;
origin = (0,12,0,14);
scale = (0.58333,0.58333);
stem = 1000;
type = Corner;
},
{
name = _corner.round;
origin = (0,0);
scale = (1.16667,1.16667);
type = Corner;
},
{
name = _corner.round;
origin = (0,6,0,8);
scale = (0.58333,0.58333);
stem = 1000;
type = Corner;
},
{
name = _corner.round;
origin = (0,0,0,14);
scale = (0.58333,0.58333);
stem = 1000;
type = Corner;
},
{
name = _corner.round;
origin = (0,8);
scale = (1.16667,1.16667);
type = Corner;
}
);
layerId = m01;
shapes = (
{
closed = 1;
nodes = (
(173,665,l),
(173,450,l),
(428,450,l),
(428,500,l),
(190,500,l),
(223,465,l),
(223,636,l),
(190,615,l),
(428,615,l),
(428,800,l),
(189,800,l),
(189,750,l),
(411,750,l),
(378,791,l),
(378,630,l),
(411,665,l)
);
}
);
width = 600;
},
{
hints = (
{
name = _corner.round;
origin = (0,9);
type = Corner;
},
{
name = _corner.round;
origin = (0,12,0,14);
scale = (0.3,0.3);
stem = 1000;
type = Corner;
},
{
name = _corner.round;
origin = (0,0);
type = Corner;
},
{
name = _corner.round;
origin = (0,6,0,8);
scale = (0.3,0.3);
stem = 1000;
type = Corner;
},
{
name = _corner.round;
origin = (0,0,0,14);
scale = (0.3,0.3);
stem = 1000;
type = Corner;
},
{
name = _corner.round;
origin = (0,8);
type = Corner;
}
);
layerId = "BDCBA76E-5474-4BD3-A1CC-9641C626CFE7";
shapes = (
{
closed = 1;
nodes = (
(173,685,l),
(173,450,l),
(428,450,l),
(428,520,l),
(190,520,l),
(243,465,l),
(243,636,l),
(190,615,l),
(428,615,l),
(428,800,l),
(189,800,l),
(189,730,l),
(411,730,l),
(358,791,l),
(358,630,l),
(411,685,l)
);
}
);
width = 600;
},
{
hints = (
{
name = _corner.round;
origin = (0,9);
type = Corner;
},
{
name = _corner.round;
origin = (0,12,0,14);
scale = (0.5,0.5);
stem = 1000;
type = Corner;
},
{
name = _corner.round;
origin = (0,0);
type = Corner;
},
{
name = _corner.round;
origin = (0,6,0,8);
scale = (0.5,0.5);
stem = 1000;
type = Corner;
},
{
name = _corner.round;
origin = (0,0,0,14);
scale = (0.5,0.5);
stem = 1000;
type = Corner;
},
{
name = _corner.round;
origin = (0,8);
type = Corner;
}
);
layerId = "D8CC3DFA-F3EA-4C7D-84FB-05FCEA5C6558";
shapes = (
{
closed = 1;
nodes = (
(173,655,l),
(173,450,l),
(428,450,l),
(428,480,l),
(190,480,l),
(203,465,l),
(203,636,l),
(190,625,l),
(428,625,l),
(428,800,l),
(189,800,l),
(189,770,l),
(411,770,l),
(398,791,l),
(398,630,l),
(411,655,l)
);
}
);
width = 600;
}
);
unicode = 178;
}
{
glyphname = threesuperior;
lastChange = "2025-08-07 18:22:55 +0000";
layers = (
{
hints = (
{
name = _corner.round;
origin = (0,1);
scale = (1.16732,1.16732);
type = Corner;
},
{
name = _corner.round;
options = 2;
origin = (0,2);
scale = (1.16732,1.16732);
type = Corner;
},
{
name = _corner.round;
origin = (0,5,0,7);
scale = (0.58366,0.58366);
stem = 1000;
type = Corner;
},
{
name = _corner.round;
origin = (0,7,0,9);
scale = (0.58366,0.58366);
stem = 1000;
type = Corner;
},
{
name = _corner.round;
origin = (1,1);
scale = (1.16732,1.16732);
type = Corner;
},
{
name = _corner.round;
options = 2;
origin = (1,2);
scale = (1.16732,1.16732);
type = Corner;
},
{
name = _corner.round;
origin = (1,5,1,7);
scale = (0.58366,0.58366);
stem = 1000;
type = Corner;
},
{
name = _corner.round;
origin = (1,7,1,9);
scale = (0.58366,0.58366);
stem = 1000;
type = Corner;
}
);
layerId = m01;
shapes = (
{
closed = 1;
nodes = (
(225,615,l),
(428,615,l),
(428,800,l),
(189,800,l),
(189,750,l),
(411,750,l),
(378,784,l),
(378,636,l),
(411,665,l),
(225,665,l)
);
},
{
closed = 1;
nodes = (
(173,450,l),
(428,450,l),
(428,665,l),
(225,665,l),
(225,615,l),
(407,615,l),
(378,633,l),
(378,470,l),
(407,500,l),
(173,500,l)
);
}
);
width = 600;
},
{
hints = (
{
name = _corner.round;
origin = (0,1);
type = Corner;
},
{
name = _corner.round;
options = 2;
origin = (0,2);
type = Corner;
},
{
name = _corner.round;
origin = (0,5,0,7);
scale = (0.4,0.4);
stem = 1000;
type = Corner;
},
{
name = _corner.round;
origin = (0,7,0,9);
scale = (0.4,0.4);
stem = 1000;
type = Corner;
},
{
name = _corner.round;
origin = (1,1);
type = Corner;
},
{
name = _corner.round;
options = 2;
origin = (1,2);
type = Corner;
},
{
name = _corner.round;
origin = (1,5,1,7);
scale = (0.4,0.4);
stem = 1000;
type = Corner;
},
{
name = _corner.round;
origin = (1,7,1,9);
scale = (0.4,0.4);
stem = 1000;
type = Corner;
}
);
layerId = "BDCBA76E-5474-4BD3-A1CC-9641C626CFE7";
shapes = (
{
closed = 1;
nodes = (
(225,605,l),
(428,605,l),
(428,800,l),
(189,800,l),
(189,730,l),
(411,730,l),
(358,784,l),
(358,636,l),
(411,675,l),
(225,675,l)
);
},
{
closed = 1;
nodes = (
(173,450,l),
(428,450,l),
(428,675,l),
(225,675,l),
(225,605,l),
(407,605,l),
(358,633,l),
(358,470,l),
(407,520,l),
(173,520,l)
);
}
);
width = 600;
},
{
hints = (
{
name = _corner.round;
origin = (0,1);
type = Corner;
},
{
name = _corner.round;
options = 2;
origin = (0,2);
type = Corner;
},
{
name = _corner.round;
origin = (0,5,0,7);
scale = (0.5,0.5);
stem = 1000;
type = Corner;
},
{
name = _corner.round;
origin = (0,7,0,9);
scale = (0.5,0.5);
stem = 1000;
type = Corner;
},
{
name = _corner.round;
origin = (1,1);
type = Corner;
},
{
name = _corner.round;
options = 2;
origin = (1,2);
type = Corner;
},
{
name = _corner.round;
origin = (1,5,1,7);
scale = (0.5,0.5);
stem = 1000;
type = Corner;
},
{
name = _corner.round;
origin = (1,7,1,9);
scale = (0.5,0.5);
stem = 1000;
type = Corner;
}
);
layerId = "D8CC3DFA-F3EA-4C7D-84FB-05FCEA5C6558";
shapes = (
{
closed = 1;
nodes = (
(225,625,l),
(428,625,l),
(428,800,l),
(189,800,l),
(189,770,l),
(411,770,l),
(398,784,l),
(398,636,l),
(411,655,l),
(225,655,l)
);
},
{
closed = 1;
nodes = (
(173,450,l),
(428,450,l),
(428,655,l),
(225,655,l),
(225,625,l),
(407,625,l),
(398,633,l),
(398,470,l),
(407,480,l),
(173,480,l)
);
}
);
width = 600;
}
);
unicode = 179;
}
{
glyphname = micro;
lastChange = "2025-08-08 00:52:05 +0000";
layers = (
{
layerId = m01;
shapes = (
{
closed = 1;
nodes = (
(122,-200,l),
(122,15,l),
(140,5,o),
(159,0,o),
(181,0,cs),
(476,0,l),
(476,452,l),
(416,452,l),
(416,31,l),
(446,60,l),
(181,60,ls),
(148,60,o),
(123,83,o),
(122,116,cs),
(122,452,l),
(62,452,l),
(62,-200,l)
);
},
{
pos = (366,620);
ref = "_part-rounded-corner";
scale = (1,-1);
},
{
closed = 1;
nodes = (
(538,0,l),
(538,60,l),
(535,60,l),
(535,0,l)
);
}
);
width = 600;
},
{
layerId = "BDCBA76E-5474-4BD3-A1CC-9641C626CFE7";
shapes = (
{
closed = 1;
nodes = (
(152,-200,l),
(152,3,l),
(162,1,o),
(171,0,o),
(181,0,cs),
(476,0,l),
(476,452,l),
(386,452,l),
(386,45,l),
(431,90,l),
(182,90,ls),
(165,90,o),
(152,103,o),
(152,120,cs),
(152,452,l),
(62,452,l),
(62,-200,l)
);
},
{
pos = (386,620);
ref = "_part-rounded-corner";
scale = (1,-1);
},
{
closed = 1;
nodes = (
(538,0,l),
(538,90,l),
(436,90,l),
(436,0,l)
);
}
);
width = 600;
},
{
layerId = "D8CC3DFA-F3EA-4C7D-84FB-05FCEA5C6558";
shapes = (
{
closed = 1;
nodes = (
(92,-200,l),
(92,38,l),
(114,14,o),
(145,0,o),
(181,0,cs),
(446,0,l),
(446,450,l),
(416,450,l),
(416,15,l),
(430,30,l),
(181,30,ls),
(131,30,o),
(93,66,o),
(92,116,cs),
(92,450,l),
(62,450,l),
(62,-200,l)
);
},
{
pos = (416,570);
ref = "_part-rounded-corner";
scale = (1,-1);
},
{
closed = 1;
nodes = (
(538,0,l),
(538,30,l),
(535,30,l),
(535,0,l)
);
}
);
width = 600;
}
);
unicode = 181;
}
{
glyphname = paragraph;
lastChange = "2025-08-07 23:28:40 +0000";
layers = (
{
layerId = m01;
shapes = (
{
closed = 1;
nodes = (
(433,-100,l),
(493,-100,l),
(493,700,l),
(433,700,l)
);
},
{
closed = 1;
nodes = (
(313,383,l),
(313,-100,l),
(373,-100,l),
(373,700,l),
(227,700,l),
(159,700,o),
(107,648,o),
(107,580,c),
(107,503,l),
(107,435,o),
(159,383,o),
(227,383,c)
);
}
);
width = 600;
},
{
layerId = "BDCBA76E-5474-4BD3-A1CC-9641C626CFE7";
shapes = (
{
closed = 1;
nodes = (
(416,-100,l),
(506,-100,l),
(506,700,l),
(416,700,l)
);
},
{
closed = 1;
nodes = (
(271,383,l),
(271,-100,l),
(361,-100,l),
(361,700,l),
(215,700,l),
(147,700,o),
(95,648,o),
(95,580,c),
(95,503,l),
(95,435,o),
(147,383,o),
(215,383,c)
);
}
);
width = 600;
},
{
layerId = "D8CC3DFA-F3EA-4C7D-84FB-05FCEA5C6558";
shapes = (
{
closed = 1;
nodes = (
(455,-100,l),
(485,-100,l),
(485,700,l),
(455,700,l)
);
},
{
closed = 1;
nodes = (
(352,383,l),
(352,-100,l),
(382,-100,l),
(382,700,l),
(236,700,l),
(168,700,o),
(116,648,o),
(116,580,c),
(116,503,l),
(116,435,o),
(168,383,o),
(236,383,c)
);
}
);
width = 600;
}
);
unicode = 182;
}
{
glyphname = onesuperior;
lastChange = "2025-08-07 18:22:01 +0000";
layers = (
{
layerId = m01;
shapes = (
{
closed = 1;
nodes = (
(173,495,l),
(173,450,l),
(427,450,l),
(427,495,l)
);
},
{
closed = 1;
nodes = (
(272,466,l),
(322,466,l),
(322,799,l),
(272,799,l)
);
},
{
closed = 1;
nodes = (
(175,743,l),
(197,704,l),
(294,760,l),
(272,799,l)
);
}
);
width = 600;
},
{
layerId = "BDCBA76E-5474-4BD3-A1CC-9641C626CFE7";
shapes = (
{
closed = 1;
nodes = (
(177,520,l),
(177,450,l),
(431,450,l),
(431,520,l)
);
},
{
closed = 1;
nodes = (
(266,466,l),
(336,466,l),
(336,799,l),
(266,799,l)
);
},
{
closed = 1;
nodes = (
(169,743,l),
(204,682,l),
(301,738,l),
(266,799,l)
);
}
);
width = 600;
},
{
layerId = "D8CC3DFA-F3EA-4C7D-84FB-05FCEA5C6558";
shapes = (
{
closed = 1;
nodes = (
(173,480,l),
(173,450,l),
(427,450,l),
(427,480,l)
);
},
{
closed = 1;
nodes = (
(282,466,l),
(312,466,l),
(312,799,l),
(282,799,l)
);
},
{
closed = 1;
nodes = (
(185,743,l),
(200,717,l),
(297,773,l),
(282,799,l)
);
}
);
width = 600;
}
);
unicode = 185;
}
{
glyphname = ordmasculine;
lastChange = "2025-08-04 01:29:30 +0000";
layers = (
{
layerId = m01;
shapes = (
{
closed = 1;
nodes = (
(343,466,ls),
(411,466,o),
(463,518,o),
(462,586,cs),
(462,680,ls),
(463,748,o),
(411,800,o),
(343,800,cs),
(258,800,ls),
(190,800,o),
(138,748,o),
(139,680,cs),
(139,586,ls),
(138,518,o),
(190,466,o),
(258,466,cs)
);
},
{
closed = 1;
nodes = (
(224,526,o),
(198,552,o),
(199,586,cs),
(199,680,ls),
(198,714,o),
(224,740,o),
(258,740,cs),
(343,740,ls),
(377,740,o),
(403,714,o),
(402,680,cs),
(402,586,ls),
(403,552,o),
(377,526,o),
(343,526,cs),
(258,526,ls)
);
}
);
width = 600;
},
{
layerId = "BDCBA76E-5474-4BD3-A1CC-9641C626CFE7";
shapes = (
{
closed = 1;
nodes = (
(343,466,ls),
(411,466,o),
(463,518,o),
(462,586,cs),
(462,680,ls),
(463,748,o),
(411,800,o),
(343,800,cs),
(258,800,ls),
(190,800,o),
(138,748,o),
(139,680,cs),
(139,586,ls),
(138,518,o),
(190,466,o),
(258,466,cs)
);
},
{
closed = 1;
nodes = (
(242,556,o),
(229,569,o),
(229,586,cs),
(229,680,ls),
(229,697,o),
(242,710,o),
(259,710,cs),
(342,710,ls),
(359,710,o),
(372,697,o),
(372,680,cs),
(372,586,ls),
(372,569,o),
(359,556,o),
(342,556,cs),
(259,556,ls)
);
}
);
width = 600;
},
{
layerId = "D8CC3DFA-F3EA-4C7D-84FB-05FCEA5C6558";
shapes = (
{
closed = 1;
nodes = (
(258,496,ls),
(207,496,o),
(168,535,o),
(169,586,cs),
(169,680,ls),
(168,731,o),
(207,770,o),
(258,770,cs),
(343,770,ls),
(394,770,o),
(433,731,o),
(432,680,cs),
(432,586,ls),
(433,535,o),
(394,496,o),
(343,496,cs)
);
},
{
closed = 1;
nodes = (
(138,518,o),
(190,466,o),
(258,466,cs),
(343,466,ls),
(411,466,o),
(463,518,o),
(462,586,cs),
(462,680,ls),
(463,748,o),
(411,800,o),
(343,800,cs),
(258,800,ls),
(190,800,o),
(138,748,o),
(139,680,cs),
(139,586,ls)
);
}
);
width = 600;
}
);
unicode = 186;
}
{
glyphname = AE;
lastChange = "2025-08-03 15:28:58 +0000";
layers = (
{
anchors = (
{
name = bottom;
pos = (300,0);
},
{
name = top;
pos = (300,620);
}
);
layerId = m01;
shapes = (
{
closed = 1;
nodes = (
(133,0,l),
(132,500,ls),
(131,534,o),
(157,560,o),
(191,560,cs),
(528,560,l),
(528,620,l),
(191,620,ls),
(123,620,o),
(71,568,o),
(72,500,cs),
(73,0,l)
);
},
{
closed = 1;
nodes = (
(492,330,l),
(492,390,l),
(101,390,l),
(101,330,l)
);
},
{
closed = 1;
nodes = (
(528,0,l),
(528,60,l),
(319,60,l),
(349,25,l),
(348,595,l),
(288,595,l),
(289,0,l)
);
}
);
width = 600;
},
{
anchors = (
{
name = bottom;
pos = (300,0);
},
{
name = top;
pos = (300,620);
}
);
layerId = "BDCBA76E-5474-4BD3-A1CC-9641C626CFE7";
shapes = (
{
closed = 1;
nodes = (
(163,0,l),
(162,500,ls),
(162,517,o),
(175,530,o),
(192,530,cs),
(528,530,l),
(528,620,l),
(191,620,ls),
(123,620,o),
(71,568,o),
(72,500,cs),
(73,0,l)
);
},
{
closed = 1;
nodes = (
(492,290,l),
(492,380,l),
(114,380,l),
(114,290,l)
);
},
{
closed = 1;
nodes = (
(528,0,l),
(528,90,l),
(319,90,l),
(364,45,l),
(363,588,l),
(273,588,l),
(274,0,l)
);
}
);
width = 600;
},
{
anchors = (
{
name = bottom;
pos = (300,0);
},
{
name = top;
pos = (300,620);
}
);
layerId = "D8CC3DFA-F3EA-4C7D-84FB-05FCEA5C6558";
shapes = (
{
closed = 1;
nodes = (
(103,0,l),
(102,500,ls),
(101,551,o),
(140,590,o),
(191,590,cs),
(528,590,l),
(528,620,l),
(191,620,ls),
(123,620,o),
(71,568,o),
(72,500,cs),
(73,0,l)
);
},
{
closed = 1;
nodes = (
(492,346,l),
(492,376,l),
(88,376,l),
(88,346,l)
);
},
{
closed = 1;
nodes = (
(528,0,l),
(528,30,l),
(320,30,l),
(334,15,l),
(333,607,l),
(303,607,l),
(304,0,l)
);
}
);
width = 600;
}
);
unicode = 198;
}
{
glyphname = Eth;
lastChange = "2025-08-10 18:39:57 +0000";
layers = (
{
layerId = m01;
shapes = (
{
ref = D;
},
{
closed = 1;
nodes = (
(42,335,l),
(42,285,l),
(368,285,l),
(368,335,l)
);
}
);
width = 600;
},
{
layerId = "BDCBA76E-5474-4BD3-A1CC-9641C626CFE7";
shapes = (
{
ref = D;
},
{
closed = 1;
nodes = (
(42,350,l),
(42,270,l),
(368,270,l),
(368,350,l)
);
}
);
width = 600;
},
{
layerId = "D8CC3DFA-F3EA-4C7D-84FB-05FCEA5C6558";
shapes = (
{
ref = D;
},
{
closed = 1;
nodes = (
(42,325,l),
(42,295,l),
(368,295,l),
(368,325,l)
);
}
);
width = 600;
}
);
unicode = 208;
}
{
glyphname = multiply;
lastChange = "2025-08-07 23:44:06 +0000";
layers = (
{
layerId = m01;
shapes = (
{
closed = 1;
nodes = (
(167,112,l),
(475,420,l),
(433,462,l),
(125,154,l)
);
},
{
closed = 1;
nodes = (
(125,420,l),
(433,112,l),
(475,154,l),
(167,462,l)
);
}
);
width = 600;
},
{
layerId = "BDCBA76E-5474-4BD3-A1CC-9641C626CFE7";
shapes = (
{
closed = 1;
nodes = (
(178,101,l),
(486,409,l),
(422,473,l),
(114,165,l)
);
},
{
closed = 1;
nodes = (
(114,409,l),
(422,101,l),
(486,165,l),
(178,473,l)
);
}
);
width = 600;
},
{
layerId = "D8CC3DFA-F3EA-4C7D-84FB-05FCEA5C6558";
shapes = (
{
closed = 1;
nodes = (
(157,123,l),
(465,431,l),
(444,452,l),
(135,144,l)
);
},
{
closed = 1;
nodes = (
(135,431,l),
(444,123,l),
(466,143,l),
(157,451,l)
);
}
);
width = 600;
}
);
unicode = 215;
}
{
glyphname = Thorn;
lastChange = "2025-08-03 16:01:35 +0000";
layers = (
{
anchors = (
{
name = bottom;
pos = (300,0);
},
{
name = top;
pos = (300,620);
}
);
layerId = m01;
shapes = (
{
closed = 1;
nodes = (
(119,0,l),
(179,0,l),
(179,620,l),
(119,620,l)
);
},
{
closed = 1;
nodes = (
(363,165,ls),
(431,165,o),
(483,217,o),
(482,285,cs),
(482,335,ls),
(483,403,o),
(431,455,o),
(363,455,cs),
(161,455,l),
(161,395,l),
(363,395,ls),
(397,395,o),
(423,369,o),
(422,335,cs),
(422,285,ls),
(423,251,o),
(397,225,o),
(363,225,cs),
(161,225,l),
(161,165,l)
);
}
);
width = 600;
},
{
anchors = (
{
name = bottom;
pos = (300,0);
},
{
name = top;
pos = (300,620);
}
);
layerId = "BDCBA76E-5474-4BD3-A1CC-9641C626CFE7";
shapes = (
{
closed = 1;
nodes = (
(119,0,l),
(209,0,l),
(209,620,l),
(119,620,l)
);
},
{
closed = 1;
nodes = (
(363,155,ls),
(431,155,o),
(483,207,o),
(482,275,cs),
(482,346,ls),
(482,414,o),
(430,466,o),
(362,465,cs),
(161,465,l),
(161,375,l),
(362,375,ls),
(379,375,o),
(392,362,o),
(392,345,cs),
(392,275,ls),
(392,258,o),
(379,245,o),
(362,245,cs),
(161,245,l),
(161,155,l)
);
}
);
width = 600;
},
{
anchors = (
{
name = bottom;
pos = (300,0);
},
{
name = top;
pos = (300,620);
}
);
layerId = "D8CC3DFA-F3EA-4C7D-84FB-05FCEA5C6558";
shapes = (
{
closed = 1;
nodes = (
(119,0,l),
(149,0,l),
(149,620,l),
(119,620,l)
);
},
{
closed = 1;
nodes = (
(362,165,ls),
(430,164,o),
(482,216,o),
(482,284,cs),
(482,336,ls),
(482,404,o),
(430,456,o),
(362,455,cs),
(133,455,l),
(133,425,l),
(362,425,ls),
(413,426,o),
(452,387,o),
(452,336,cs),
(452,284,ls),
(452,233,o),
(413,194,o),
(362,195,cs),
(133,195,l),
(133,165,l)
);
}
);
width = 600;
}
);
unicode = 222;
}
{
glyphname = germandbls;
lastChange = "2025-08-03 17:49:10 +0000";
layers = (
{
anchors = (
{
name = bottom;
pos = (300,0);
},
{
name = top;
pos = (300,800);
}
);
layerId = m01;
shapes = (
{
closed = 1;
nodes = (
(142,0,l),
(142,500,ls),
(141,534,o),
(167,560,o),
(201,560,cs),
(339,560,ls),
(373,560,o),
(399,534,o),
(398,500,cs),
(398,450,ls),
(399,416,o),
(373,390,o),
(339,390,cs),
(192,390,l),
(192,330,l),
(399,330,ls),
(433,330,o),
(459,304,o),
(458,270,cs),
(458,120,ls),
(459,86,o),
(433,60,o),
(399,60,cs),
(192,60,l),
(192,0,l),
(399,0,ls),
(467,0,o),
(519,52,o),
(518,120,cs),
(518,270,ls),
(519,324,o),
(487,367,o),
(440,383,c),
(452,403,o),
(458,426,o),
(458,450,cs),
(458,500,ls),
(459,568,o),
(407,620,o),
(339,620,cs),
(201,620,ls),
(133,620,o),
(81,568,o),
(82,500,cs),
(82,0,l)
);
}
);
width = 600;
},
{
anchors = (
{
name = bottom;
pos = (300,0);
},
{
name = top;
pos = (300,800);
}
);
layerId = "BDCBA76E-5474-4BD3-A1CC-9641C626CFE7";
shapes = (
{
closed = 1;
nodes = (
(165,0,l),
(165,500,ls),
(165,517,o),
(178,530,o),
(195,530,cs),
(346,530,ls),
(363,530,o),
(376,517,o),
(376,500,cs),
(376,435,ls),
(376,418,o),
(363,405,o),
(346,405,cs),
(215,405,l),
(215,315,l),
(406,315,ls),
(423,315,o),
(436,302,o),
(436,285,cs),
(436,120,ls),
(436,103,o),
(423,90,o),
(406,90,cs),
(215,90,l),
(215,0,l),
(407,0,ls),
(475,0,o),
(527,52,o),
(526,120,cs),
(526,285,ls),
(527,335,o),
(500,375,o),
(460,394,c),
(464,406,o),
(466,421,o),
(466,435,cs),
(466,500,ls),
(467,568,o),
(415,620,o),
(347,620,cs),
(194,620,ls),
(126,620,o),
(74,568,o),
(75,500,cs),
(75,0,l)
);
}
);
width = 600;
},
{
anchors = (
{
name = bottom;
pos = (300,0);
},
{
name = top;
pos = (300,800);
}
);
layerId = "D8CC3DFA-F3EA-4C7D-84FB-05FCEA5C6558";
shapes = (
{
closed = 1;
nodes = (
(115,0,l),
(115,500,ls),
(114,551,o),
(153,590,o),
(204,590,cs),
(342,590,ls),
(393,590,o),
(432,551,o),
(431,500,cs),
(431,465,ls),
(432,414,o),
(393,375,o),
(342,375,cs),
(195,375,l),
(195,345,l),
(397,345,ls),
(448,345,o),
(487,306,o),
(486,255,cs),
(486,120,ls),
(487,69,o),
(448,30,o),
(397,30,cs),
(195,30,l),
(195,0,l),
(397,0,ls),
(465,0,o),
(517,52,o),
(516,120,cs),
(516,255,ls),
(517,316,o),
(476,363,o),
(420,373,c),
(445,394,o),
(462,427,o),
(461,465,cs),
(461,500,ls),
(462,568,o),
(410,620,o),
(342,620,cs),
(204,620,ls),
(136,620,o),
(84,568,o),
(85,500,cs),
(85,0,l)
);
}
);
width = 600;
}
);
unicode = 223;
}
{
glyphname = ae;
lastChange = "2025-08-03 16:22:41 +0000";
layers = (
{
anchors = (
{
name = bottom;
pos = (300,0);
},
{
name = top;
pos = (300,452);
}
);
layerId = m01;
shapes = (
{
closed = 1;
nodes = (
(83,392,l),
(210,392,ls),
(243,392,o),
(269,369,o),
(269,336,c),
(269,116,ls),
(269,83,o),
(243,60,o),
(210,60,cs),
(172,60,ls),
(138,60,o),
(112,86,o),
(113,120,cs),
(113,140,ls),
(112,174,o),
(138,200,o),
(172,200,cs),
(289,200,l),
(289,260,l),
(172,260,ls),
(104,260,o),
(52,208,o),
(53,140,cs),
(53,120,ls),
(52,52,o),
(104,0,o),
(172,0,cs),
(210,0,ls),
(246,0,o),
(278,15,o),
(299,38,c),
(321,14,o),
(352,0,o),
(388,0,cs),
(548,0,l),
(548,60,l),
(388,60,ls),
(355,60,o),
(329,83,o),
(329,116,cs),
(329,336,l),
(329,369,o),
(355,392,o),
(388,392,cs),
(426,392,ls),
(460,392,o),
(486,366,o),
(485,332,cs),
(485,320,ls),
(486,286,o),
(460,260,o),
(426,260,cs),
(309,260,l),
(309,200,l),
(426,200,ls),
(494,200,o),
(546,252,o),
(545,320,cs),
(545,332,ls),
(546,400,o),
(494,452,o),
(426,452,cs),
(388,452,ls),
(352,452,o),
(320,437,o),
(299,414,c),
(277,438,o),
(246,452,o),
(210,452,cs),
(83,452,l)
);
}
);
width = 600;
},
{
anchors = (
{
name = bottom;
pos = (300,0);
},
{
name = top;
pos = (300,452);
}
);
layerId = "BDCBA76E-5474-4BD3-A1CC-9641C626CFE7";
shapes = (
{
closed = 1;
nodes = (
(92,362,l),
(225,362,ls),
(242,362,o),
(255,349,o),
(255,332,cs),
(255,120,ls),
(255,103,o),
(242,90,o),
(225,90,cs),
(172,90,ls),
(155,90,o),
(142,103,o),
(142,120,cs),
(142,165,ls),
(142,182,o),
(155,195,o),
(172,195,cs),
(291,195,l),
(291,285,l),
(171,285,ls),
(103,285,o),
(51,233,o),
(52,165,cs),
(52,120,ls),
(51,52,o),
(103,0,o),
(171,0,cs),
(226,0,ls),
(254,0,o),
(280,9,o),
(300,24,c),
(320,9,o),
(346,0,o),
(374,0,cs),
(548,0,l),
(548,90,l),
(375,90,ls),
(358,90,o),
(345,103,o),
(345,120,cs),
(345,332,ls),
(345,349,o),
(358,362,o),
(375,362,cs),
(428,362,ls),
(445,362,o),
(458,349,o),
(458,332,cs),
(458,315,ls),
(458,298,o),
(445,285,o),
(428,285,cs),
(309,285,l),
(309,195,l),
(429,195,ls),
(497,195,o),
(549,247,o),
(548,315,cs),
(548,332,ls),
(549,400,o),
(497,452,o),
(429,452,cs),
(374,452,ls),
(346,452,o),
(320,443,o),
(300,428,c),
(280,443,o),
(254,452,o),
(226,452,cs),
(92,452,l)
);
}
);
width = 600;
},
{
anchors = (
{
name = bottom;
pos = (300,0);
},
{
name = top;
pos = (300,452);
}
);
layerId = "D8CC3DFA-F3EA-4C7D-84FB-05FCEA5C6558";
shapes = (
{
closed = 1;
nodes = (
(92,422,l),
(201,422,ls),
(251,422,o),
(290,386,o),
(290,336,c),
(290,116,ls),
(290,66,o),
(251,30,o),
(201,30,cs),
(171,30,ls),
(120,30,o),
(81,69,o),
(82,120,cs),
(82,121,ls),
(81,172,o),
(120,211,o),
(171,211,cs),
(300,211,l),
(300,241,l),
(171,241,ls),
(103,241,o),
(51,189,o),
(52,121,cs),
(52,120,ls),
(51,52,o),
(103,0,o),
(171,0,cs),
(201,0,ls),
(247,0,o),
(285,23,o),
(305,59,c),
(325,23,o),
(363,0,o),
(409,0,cs),
(548,0,l),
(548,30,l),
(409,30,ls),
(359,30,o),
(320,66,o),
(320,116,cs),
(320,336,l),
(320,386,o),
(359,422,o),
(409,422,cs),
(429,422,ls),
(480,422,o),
(519,383,o),
(518,332,cs),
(518,331,ls),
(519,280,o),
(480,241,o),
(429,241,cs),
(310,241,l),
(310,211,l),
(429,211,ls),
(497,211,o),
(549,263,o),
(548,331,cs),
(548,332,ls),
(549,400,o),
(497,452,o),
(429,452,cs),
(409,452,ls),
(363,452,o),
(325,429,o),
(305,393,c),
(285,429,o),
(247,452,o),
(201,452,cs),
(92,452,l)
);
}
);
width = 600;
}
);
unicode = 230;
}
{
glyphname = igrave;
lastChange = "2025-08-03 16:59:25 +0000";
layers = (
{
layerId = m01;
shapes = (
{
closed = 1;
nodes = (
(330,30,l),
(330,452,l),
(115,452,l),
(115,392,l),
(285,392,l),
(270,427,l),
(270,30,l)
);
},
{
closed = 1;
nodes = (
(518,0,l),
(518,60,l),
(82,60,l),
(82,0,l)
);
},
{
pos = (-50,1);
ref = gravecomb;
}
);
width = 600;
},
{
layerId = "BDCBA76E-5474-4BD3-A1CC-9641C626CFE7";
shapes = (
{
closed = 1;
nodes = (
(345,45,l),
(345,452,l),
(115,452,l),
(115,362,l),
(285,362,l),
(255,427,l),
(255,45,l)
);
},
{
closed = 1;
nodes = (
(518,0,l),
(518,90,l),
(82,90,l),
(82,0,l)
);
},
{
pos = (-50,1);
ref = gravecomb;
}
);
width = 600;
},
{
layerId = "D8CC3DFA-F3EA-4C7D-84FB-05FCEA5C6558";
shapes = (
{
closed = 1;
nodes = (
(315,15,l),
(315,452,l),
(115,452,l),
(115,422,l),
(305,422,l),
(285,437,l),
(285,15,l)
);
},
{
closed = 1;
nodes = (
(518,0,l),
(518,30,l),
(82,30,l),
(82,0,l)
);
},
{
pos = (-50,1);
ref = gravecomb;
}
);
width = 600;
}
);
unicode = 236;
}
{
glyphname = eth;
lastChange = "2025-08-03 16:33:00 +0000";
layers = (
{
anchors = (
{
name = bottom;
pos = (300,0);
},
{
name = top;
pos = (300,800);
}
);
layerId = m01;
shapes = (
{
attr = {
strokeWidth = 60;
};
closed = 0;
nodes = (
(275,703,l),
(401,601,o),
(484,430,o),
(484,258,cs),
(484,132,o),
(407,43,o),
(299,44,cs),
(191,44,o),
(115,131,o),
(116,259,cs),
(117,373,o),
(195,455,o),
(307,455,cs),
(409,455,o),
(482,373,o),
(484,258,cs)
);
},
{
closed = 1;
nodes = (
(248,534,l),
(483,619,l),
(466,666,l),
(231,581,l)
);
}
);
width = 600;
},
{
anchors = (
{
name = bottom;
pos = (300,0);
},
{
name = top;
pos = (300,800);
}
);
layerId = "BDCBA76E-5474-4BD3-A1CC-9641C626CFE7";
shapes = (
{
attr = {
strokeWidth = 90;
};
closed = 0;
nodes = (
(275,703,l),
(401,601,o),
(484,430,o),
(484,258,cs),
(484,132,o),
(407,43,o),
(299,44,cs),
(191,44,o),
(115,131,o),
(116,259,cs),
(117,373,o),
(195,455,o),
(307,455,cs),
(409,455,o),
(482,373,o),
(484,258,cs)
);
},
{
closed = 1;
nodes = (
(266,525,l),
(501,610,l),
(470,695,l),
(235,610,l)
);
}
);
width = 600;
},
{
anchors = (
{
name = bottom;
pos = (300,0);
},
{
name = top;
pos = (300,800);
}
);
layerId = "D8CC3DFA-F3EA-4C7D-84FB-05FCEA5C6558";
shapes = (
{
attr = {
strokeWidth = 30;
};
closed = 0;
nodes = (
(275,703,l),
(401,601,o),
(484,430,o),
(484,258,cs),
(484,132,o),
(407,43,o),
(299,44,cs),
(191,44,o),
(115,131,o),
(116,259,cs),
(117,373,o),
(195,455,o),
(307,455,cs),
(409,455,o),
(482,373,o),
(484,258,cs)
);
},
{
closed = 1;
nodes = (
(241,553,l),
(476,638,l),
(466,666,l),
(231,581,l)
);
}
);
width = 600;
}
);
unicode = 240;
}
{
glyphname = divide;
lastChange = "2025-08-07 23:44:30 +0000";
layers = (
{
layerId = m01;
shapes = (
{
closed = 1;
nodes = (
(82,257,l),
(518,257,l),
(518,317,l),
(82,317,l)
);
},
{
closed = 1;
nodes = (
(328,397,o),
(350,419,o),
(350,447,cs),
(350,475,o),
(328,497,o),
(300,497,cs),
(272,497,o),
(250,475,o),
(250,447,cs),
(250,419,o),
(272,397,o),
(300,397,cs)
);
},
{
closed = 1;
nodes = (
(328,77,o),
(350,99,o),
(350,127,cs),
(350,155,o),
(328,177,o),
(300,177,cs),
(272,177,o),
(250,155,o),
(250,127,cs),
(250,99,o),
(272,77,o),
(300,77,cs)
);
}
);
width = 600;
},
{
layerId = "BDCBA76E-5474-4BD3-A1CC-9641C626CFE7";
shapes = (
{
closed = 1;
nodes = (
(82,242,l),
(518,242,l),
(518,332,l),
(82,332,l)
);
},
{
closed = 1;
nodes = (
(331,391,o),
(356,416,o),
(356,447,cs),
(356,478,o),
(331,503,o),
(300,503,cs),
(269,503,o),
(244,478,o),
(244,447,cs),
(244,416,o),
(269,391,o),
(300,391,cs)
);
},
{
closed = 1;
nodes = (
(331,71,o),
(356,96,o),
(356,127,cs),
(356,158,o),
(331,183,o),
(300,183,cs),
(269,183,o),
(244,158,o),
(244,127,cs),
(244,96,o),
(269,71,o),
(300,71,cs)
);
}
);
width = 600;
},
{
layerId = "D8CC3DFA-F3EA-4C7D-84FB-05FCEA5C6558";
shapes = (
{
closed = 1;
nodes = (
(82,272,l),
(518,272,l),
(518,302,l),
(82,302,l)
);
},
{
closed = 1;
nodes = (
(322,407,o),
(340,425,o),
(340,447,cs),
(340,469,o),
(322,487,o),
(300,487,cs),
(278,487,o),
(260,469,o),
(260,447,cs),
(260,425,o),
(278,407,o),
(300,407,cs)
);
},
{
closed = 1;
nodes = (
(322,87,o),
(340,105,o),
(340,127,cs),
(340,149,o),
(322,167,o),
(300,167,cs),
(278,167,o),
(260,149,o),
(260,127,cs),
(260,105,o),
(278,87,o),
(300,87,cs)
);
}
);
width = 600;
}
);
unicode = 247;
}
{
glyphname = oslash;
lastChange = "2025-08-03 17:33:48 +0000";
layers = (
{
anchors = (
{
name = top;
pos = (300,452);
}
);
layerId = m01;
shapes = (
{
ref = o;
},
{
closed = 1;
nodes = (
(73,0,l),
(133,0,l),
(527,452,l),
(467,452,l)
);
}
);
width = 600;
},
{
anchors = (
{
name = top;
pos = (300,452);
}
);
layerId = "BDCBA76E-5474-4BD3-A1CC-9641C626CFE7";
shapes = (
{
ref = o;
},
{
closed = 1;
nodes = (
(53,-2,l),
(153,-2,l),
(547,452,l),
(447,452,l)
);
}
);
width = 600;
},
{
anchors = (
{
name = top;
pos = (300,452);
}
);
layerId = "D8CC3DFA-F3EA-4C7D-84FB-05FCEA5C6558";
shapes = (
{
ref = o;
},
{
closed = 1;
nodes = (
(83,0,l),
(123,0,l),
(517,452,l),
(477,452,l)
);
}
);
width = 600;
}
);
unicode = 248;
}
{
glyphname = thorn;
lastChange = "2025-07-28 00:29:22 +0000";
layers = (
{
anchors = (
{
name = bottom;
pos = (268,0);
},
{
name = top;
pos = (268,450);
}
);
layerId = m01;
shapes = (
{
closed = 1;
nodes = (
(50,-200,l),
(110,-200,l),
(110,620,l),
(50,620,l)
);
},
{
closed = 1;
nodes = (
(401,392,o),
(427,366,o),
(426,332,cs),
(426,120,ls),
(427,86,o),
(401,60,o),
(367,60,cs),
(82,60,l),
(82,0,l),
(367,0,ls),
(435,0,o),
(487,52,o),
(486,120,cs),
(486,332,ls),
(487,400,o),
(435,452,o),
(367,452,cs),
(82,452,l),
(82,392,l),
(367,392,ls)
);
}
);
width = 600;
},
{
anchors = (
{
name = bottom;
pos = (268,0);
},
{
name = top;
pos = (268,450);
}
);
layerId = "BDCBA76E-5474-4BD3-A1CC-9641C626CFE7";
shapes = (
{
closed = 1;
nodes = (
(50,-200,l),
(140,-200,l),
(140,620,l),
(50,620,l)
);
},
{
closed = 1;
nodes = (
(383,345,o),
(396,332,o),
(396,315,cs),
(396,105,ls),
(396,88,o),
(383,75,o),
(366,75,cs),
(82,75,l),
(82,-15,l),
(367,-15,ls),
(435,-15,o),
(487,37,o),
(486,105,cs),
(486,315,ls),
(487,383,o),
(435,435,o),
(367,435,cs),
(82,435,l),
(82,345,l),
(366,345,ls)
);
}
);
width = 600;
},
{
anchors = (
{
name = bottom;
pos = (268,0);
},
{
name = top;
pos = (268,450);
}
);
layerId = "D8CC3DFA-F3EA-4C7D-84FB-05FCEA5C6558";
shapes = (
{
closed = 1;
nodes = (
(50,-200,l),
(80,-200,l),
(80,620,l),
(50,620,l)
);
},
{
closed = 1;
nodes = (
(418,422,o),
(457,383,o),
(456,332,cs),
(456,120,ls),
(457,69,o),
(418,30,o),
(367,30,cs),
(65,30,l),
(65,0,l),
(367,0,ls),
(435,0,o),
(487,52,o),
(486,120,cs),
(486,332,ls),
(487,400,o),
(435,452,o),
(367,452,cs),
(65,452,l),
(65,422,l),
(367,422,ls)
);
}
);
width = 600;
}
);
unicode = 254;
}
{
glyphname = dcaron;
lastChange = "2025-08-03 16:27:29 +0000";
layers = (
{
layerId = m01;
shapes = (
{
closed = 1;
nodes = (
(423,0,l),
(423,620,l),
(363,620,l),
(363,15,l),
(408,60,l),
(176,60,ls),
(142,60,o),
(116,86,o),
(117,120,cs),
(117,332,ls),
(116,366,o),
(142,392,o),
(176,392,cs),
(393,392,l),
(393,452,l),
(176,452,ls),
(108,452,o),
(56,400,o),
(57,332,cs),
(57,120,ls),
(56,52,o),
(108,0,o),
(176,0,cs)
);
},
{
closed = 1;
nodes = (
(543,617,l),
(494,627,l),
(466,472,l),
(515,462,l)
);
},
{
closed = 1;
nodes = (
(525,581,o),
(543,599,o),
(543,621,cs),
(543,643,o),
(525,661,o),
(503,661,cs),
(481,661,o),
(463,643,o),
(463,621,cs),
(463,599,o),
(481,581,o),
(503,581,cs)
);
}
);
width = 600;
},
{
layerId = "BDCBA76E-5474-4BD3-A1CC-9641C626CFE7";
shapes = (
{
closed = 1;
nodes = (
(410,0,l),
(410,620,l),
(320,620,l),
(320,45,l),
(365,90,l),
(170,90,ls),
(153,90,o),
(140,103,o),
(140,120,cs),
(140,332,ls),
(140,349,o),
(153,362,o),
(170,362,cs),
(367,362,l),
(367,452,l),
(169,452,ls),
(101,452,o),
(49,400,o),
(50,332,cs),
(50,120,ls),
(49,52,o),
(101,0,o),
(169,0,cs)
);
},
{
closed = 1;
nodes = (
(549,589,l),
(477,598,l),
(449,443,l),
(521,434,l)
);
},
{
closed = 1;
nodes = (
(526,549,o),
(551,574,o),
(551,605,cs),
(551,633,o),
(526,661,o),
(495,661,cs),
(464,661,o),
(439,636,o),
(439,605,cs),
(439,574,o),
(464,549,o),
(495,549,cs)
);
}
);
width = 600;
},
{
layerId = "D8CC3DFA-F3EA-4C7D-84FB-05FCEA5C6558";
shapes = (
{
closed = 1;
nodes = (
(423,0,l),
(423,620,l),
(393,620,l),
(393,14,l),
(408,30,l),
(186,30,ls),
(135,30,o),
(96,69,o),
(97,120,cs),
(97,332,ls),
(96,383,o),
(135,422,o),
(186,422,cs),
(408,422,l),
(408,452,l),
(186,452,ls),
(118,452,o),
(66,400,o),
(67,332,cs),
(67,120,ls),
(66,52,o),
(118,0,o),
(186,0,cs)
);
},
{
closed = 1;
nodes = (
(534,616,l),
(505,623,l),
(482,498,l),
(511,491,l)
);
},
{
closed = 1;
nodes = (
(521,591,o),
(534,605,o),
(534,621,cs),
(534,638,o),
(521,651,o),
(504,651,cs),
(488,651,o),
(474,638,o),
(474,621,cs),
(474,605,o),
(488,591,o),
(504,591,cs)
);
}
);
width = 600;
}
);
unicode = 271;
}
{
glyphname = Dcroat;
lastChange = "2025-08-03 15:32:46 +0000";
layers = (
{
layerId = m01;
shapes = (
{
pos = (46,0);
ref = D;
},
{
closed = 1;
nodes = (
(36,335,l),
(36,285,l),
(318,285,l),
(318,335,l)
);
}
);
width = 600;
},
{
layerId = "BDCBA76E-5474-4BD3-A1CC-9641C626CFE7";
shapes = (
{
pos = (46,0);
ref = D;
},
{
closed = 1;
nodes = (
(36,355,l),
(36,265,l),
(318,265,l),
(318,355,l)
);
}
);
width = 600;
},
{
layerId = "D8CC3DFA-F3EA-4C7D-84FB-05FCEA5C6558";
shapes = (
{
pos = (46,0);
ref = D;
},
{
closed = 1;
nodes = (
(36,325,l),
(36,295,l),
(318,295,l),
(318,325,l)
);
}
);
width = 600;
}
);
unicode = 272;
}
{
glyphname = dcroat;
lastChange = "2025-08-03 16:29:36 +0000";
layers = (
{
layerId = m01;
shapes = (
{
pos = (-19,0);
ref = d;
},
{
closed = 1;
nodes = (
(275,592,l),
(275,542,l),
(537,542,l),
(537,592,l)
);
}
);
width = 600;
},
{
layerId = "BDCBA76E-5474-4BD3-A1CC-9641C626CFE7";
shapes = (
{
pos = (-9,0);
ref = d;
},
{
closed = 1;
nodes = (
(267,584,l),
(267,494,l),
(528,494,l),
(528,584,l)
);
}
);
width = 600;
},
{
layerId = "D8CC3DFA-F3EA-4C7D-84FB-05FCEA5C6558";
shapes = (
{
pos = (-27,0);
ref = d;
},
{
closed = 1;
nodes = (
(284,572,l),
(284,542,l),
(546,542,l),
(546,572,l)
);
}
);
width = 600;
}
);
unicode = 273;
}
{
glyphname = Hbar;
lastChange = "2025-08-03 15:41:58 +0000";
layers = (
{
layerId = m01;
shapes = (
{
ref = H;
},
{
closed = 1;
nodes = (
(50,461,l),
(550,461,l),
(550,516,l),
(50,516,l)
);
}
);
width = 600;
},
{
layerId = "BDCBA76E-5474-4BD3-A1CC-9641C626CFE7";
shapes = (
{
ref = H;
},
{
closed = 1;
nodes = (
(50,451,l),
(550,451,l),
(550,541,l),
(50,541,l)
);
}
);
width = 600;
},
{
layerId = "D8CC3DFA-F3EA-4C7D-84FB-05FCEA5C6558";
shapes = (
{
ref = H;
},
{
closed = 1;
nodes = (
(50,472,l),
(550,472,l),
(550,502,l),
(50,502,l)
);
}
);
width = 600;
}
);
unicode = 294;
}
{
glyphname = hbar;
lastChange = "2025-08-03 16:54:55 +0000";
layers = (
{
layerId = m01;
shapes = (
{
pos = (31,0);
ref = h;
},
{
closed = 1;
nodes = (
(51,564,l),
(51,514,l),
(301,514,l),
(301,564,l)
);
}
);
width = 600;
},
{
layerId = "BDCBA76E-5474-4BD3-A1CC-9641C626CFE7";
shapes = (
{
pos = (31,0);
ref = h;
},
{
closed = 1;
nodes = (
(51,574,l),
(51,484,l),
(301,484,l),
(301,574,l)
);
}
);
width = 600;
},
{
layerId = "D8CC3DFA-F3EA-4C7D-84FB-05FCEA5C6558";
shapes = (
{
pos = (31,0);
ref = h;
},
{
closed = 1;
nodes = (
(51,554,l),
(51,524,l),
(301,524,l),
(301,554,l)
);
}
);
width = 600;
}
);
unicode = 295;
}
{
glyphname = Iogonek;
lastChange = "2025-08-03 15:44:29 +0000";
layers = (
{
layerId = m01;
shapes = (
{
closed = 1;
nodes = (
(518,-161,l),
(470,-161,o),
(452,-147,o),
(452,-120,cs),
(452,-84,o),
(518,-53,o),
(518,0,cs),
(518,60,l),
(82,60,l),
(82,0,l),
(458,0,l),
(458,-11,o),
(392,-63,o),
(392,-120,cs),
(392,-184,o),
(441,-221,o),
(518,-221,c)
);
},
{
closed = 1;
nodes = (
(330,27,l),
(330,592,l),
(270,592,l),
(270,27,l)
);
},
{
closed = 1;
nodes = (
(518,560,l),
(518,620,l),
(82,620,l),
(82,560,l)
);
}
);
width = 600;
},
{
layerId = "BDCBA76E-5474-4BD3-A1CC-9641C626CFE7";
shapes = (
{
closed = 1;
nodes = (
(503,-146,l),
(464,-146,o),
(452,-137,o),
(452,-120,cs),
(452,-93,o),
(518,-59,o),
(518,0,cs),
(518,90,l),
(82,90,l),
(82,0,l),
(428,0,l),
(428,-3,o),
(362,-60,o),
(362,-120,cs),
(362,-185,o),
(408,-236,o),
(503,-236,c)
);
},
{
closed = 1;
nodes = (
(345,48,l),
(345,576,l),
(255,576,l),
(255,48,l)
);
},
{
closed = 1;
nodes = (
(518,530,l),
(518,620,l),
(82,620,l),
(82,530,l)
);
}
);
width = 600;
},
{
layerId = "D8CC3DFA-F3EA-4C7D-84FB-05FCEA5C6558";
shapes = (
{
closed = 1;
nodes = (
(514,-176,l),
(459,-176,o),
(433,-156,o),
(433,-120,cs),
(433,-75,o),
(499,-47,o),
(499,0,cs),
(499,30,l),
(82,30,l),
(82,0,l),
(469,0,l),
(469,-27,o),
(403,-63,o),
(403,-120,cs),
(403,-176,o),
(445,-206,o),
(514,-206,c)
);
},
{
closed = 1;
nodes = (
(315,13,l),
(315,605,l),
(285,605,l),
(285,13,l)
);
},
{
closed = 1;
nodes = (
(518,590,l),
(518,620,l),
(82,620,l),
(82,590,l)
);
}
);
width = 600;
}
);
unicode = 302;
}
{
glyphname = idotless;
lastChange = "2025-08-03 16:56:50 +0000";
layers = (
{
anchors = (
{
name = bottom;
pos = (300,0);
},
{
name = ogonek;
pos = (518,0);
},
{
name = top;
pos = (300,452);
}
);
layerId = m01;
shapes = (
{
closed = 1;
nodes = (
(330,30,l),
(330,452,l),
(115,452,l),
(115,392,l),
(285,392,l),
(270,427,l),
(270,30,l)
);
},
{
closed = 1;
nodes = (
(82,60,l),
(82,0,l),
(518,0,l),
(518,60,l)
);
}
);
width = 600;
},
{
anchors = (
{
name = bottom;
pos = (300,0);
},
{
name = ogonek;
pos = (518,0);
},
{
name = top;
pos = (300,452);
}
);
layerId = "BDCBA76E-5474-4BD3-A1CC-9641C626CFE7";
shapes = (
{
closed = 1;
nodes = (
(345,34,l),
(345,452,l),
(115,452,l),
(115,362,l),
(285,362,l),
(255,427,l),
(255,34,l)
);
},
{
closed = 1;
nodes = (
(82,90,l),
(82,0,l),
(518,0,l),
(518,90,l)
);
}
);
width = 600;
},
{
anchors = (
{
name = bottom;
pos = (300,0);
},
{
name = ogonek;
pos = (518,0);
},
{
name = top;
pos = (300,452);
}
);
layerId = "D8CC3DFA-F3EA-4C7D-84FB-05FCEA5C6558";
shapes = (
{
closed = 1;
nodes = (
(315,13,l),
(315,452,l),
(115,452,l),
(115,422,l),
(303,422,l),
(285,438,l),
(285,13,l)
);
},
{
closed = 1;
nodes = (
(82,30,l),
(82,0,l),
(518,0,l),
(518,30,l)
);
}
);
width = 600;
}
);
unicode = 305;
}
{
glyphname = IJ;
lastChange = "2025-08-03 15:43:57 +0000";
layers = (
{
layerId = m01;
shapes = (
{
closed = 1;
nodes = (
(278,120,ls),
(277,52,o),
(329,0,o),
(397,0,cs),
(419,0,ls),
(487,0,o),
(539,52,o),
(538,120,cs),
(538,620,l),
(478,620,l),
(478,120,ls),
(479,86,o),
(453,60,o),
(419,60,cs),
(397,60,ls),
(363,60,o),
(337,86,o),
(338,120,cs),
(338,240,l),
(278,240,l)
);
},
{
closed = 1;
nodes = (
(278,560,l),
(278,620,l),
(62,620,l),
(62,560,l)
);
},
{
closed = 1;
nodes = (
(200,30,l),
(200,590,l),
(140,590,l),
(140,30,l)
);
},
{
closed = 1;
nodes = (
(62,60,l),
(62,0,l),
(268,0,l),
(268,60,l)
);
}
);
width = 600;
},
{
layerId = "BDCBA76E-5474-4BD3-A1CC-9641C626CFE7";
shapes = (
{
closed = 1;
nodes = (
(278,120,ls),
(277,52,o),
(329,0,o),
(397,0,cs),
(419,0,ls),
(487,0,o),
(539,52,o),
(538,120,cs),
(538,620,l),
(448,620,l),
(448,120,ls),
(448,103,o),
(435,90,o),
(418,90,cs),
(398,90,ls),
(381,90,o),
(368,103,o),
(368,120,cs),
(368,240,l),
(278,240,l)
);
},
{
closed = 1;
nodes = (
(278,530,l),
(278,620,l),
(62,620,l),
(62,530,l)
);
},
{
closed = 1;
nodes = (
(215,35,l),
(215,575,l),
(125,575,l),
(125,35,l)
);
},
{
closed = 1;
nodes = (
(62,90,l),
(62,0,l),
(258,0,l),
(258,90,l)
);
}
);
width = 600;
},
{
layerId = "D8CC3DFA-F3EA-4C7D-84FB-05FCEA5C6558";
shapes = (
{
closed = 1;
nodes = (
(278,120,ls),
(277,52,o),
(329,0,o),
(397,0,cs),
(419,0,ls),
(487,0,o),
(539,52,o),
(538,120,cs),
(538,620,l),
(508,620,l),
(508,120,ls),
(509,69,o),
(470,30,o),
(419,30,cs),
(397,30,ls),
(346,30,o),
(307,69,o),
(308,120,cs),
(308,240,l),
(278,240,l)
);
},
{
closed = 1;
nodes = (
(278,590,l),
(278,620,l),
(62,620,l),
(62,590,l)
);
},
{
closed = 1;
nodes = (
(185,15,l),
(185,605,l),
(155,605,l),
(155,15,l)
);
},
{
closed = 1;
nodes = (
(62,30,l),
(62,0,l),
(268,0,l),
(268,30,l)
);
}
);
width = 600;
}
);
unicode = 306;
}
{
glyphname = ij;
lastChange = "2025-08-03 17:03:05 +0000";
layers = (
{
layerId = m01;
shapes = (
{
closed = 1;
nodes = (
(416,-200,ls),
(484,-200,o),
(536,-148,o),
(535,-80,cs),
(535,452,l),
(87,452,l),
(87,392,l),
(504,392,l),
(475,419,l),
(475,-80,ls),
(475,-114,o),
(450,-140,o),
(416,-140,cs),
(239,-140,l),
(239,-200,l)
);
},
{
closed = 1;
nodes = (
(380,0,l),
(380,60,l),
(64,60,l),
(64,0,l)
);
},
{
closed = 1;
nodes = (
(252,30,l),
(252,422,l),
(192,422,l),
(192,30,l)
);
},
{
closed = 1;
nodes = (
(237,520,o),
(255,538,o),
(255,560,cs),
(255,582,o),
(237,600,o),
(215,600,cs),
(193,600,o),
(175,582,o),
(175,560,cs),
(175,538,o),
(193,520,o),
(215,520,cs)
);
},
{
closed = 1;
nodes = (
(518,520,o),
(536,538,o),
(536,560,cs),
(536,582,o),
(518,600,o),
(496,600,cs),
(474,600,o),
(456,582,o),
(456,560,cs),
(456,538,o),
(474,520,o),
(496,520,cs)
);
}
);
width = 600;
},
{
layerId = "BDCBA76E-5474-4BD3-A1CC-9641C626CFE7";
shapes = (
{
closed = 1;
nodes = (
(417,-200,ls),
(485,-200,o),
(537,-148,o),
(536,-80,cs),
(536,452,l),
(88,452,l),
(88,362,l),
(491,362,l),
(446,407,l),
(446,-80,ls),
(446,-97,o),
(433,-110,o),
(416,-110,cs),
(240,-110,l),
(240,-200,l)
);
},
{
closed = 1;
nodes = (
(381,0,l),
(381,90,l),
(65,90,l),
(65,0,l)
);
},
{
closed = 1;
nodes = (
(268,35,l),
(268,407,l),
(178,407,l),
(178,35,l)
);
},
{
closed = 1;
nodes = (
(246,504,o),
(271,529,o),
(271,560,cs),
(271,591,o),
(246,616,o),
(215,616,cs),
(184,616,o),
(159,591,o),
(159,560,cs),
(159,529,o),
(184,504,o),
(215,504,cs)
);
},
{
closed = 1;
nodes = (
(511,504,o),
(536,529,o),
(536,560,cs),
(536,591,o),
(511,616,o),
(480,616,cs),
(449,616,o),
(424,591,o),
(424,560,cs),
(424,529,o),
(449,504,o),
(480,504,cs)
);
}
);
width = 600;
},
{
layerId = "D8CC3DFA-F3EA-4C7D-84FB-05FCEA5C6558";
shapes = (
{
closed = 1;
nodes = (
(404,-200,ls),
(472,-200,o),
(523,-148,o),
(523,-80,cs),
(523,452,l),
(90,452,l),
(90,422,l),
(508,422,l),
(493,437,l),
(493,-80,ls),
(493,-131,o),
(455,-170,o),
(404,-170,cs),
(242,-170,l),
(242,-200,l)
);
},
{
closed = 1;
nodes = (
(383,0,l),
(383,30,l),
(67,30,l),
(67,0,l)
);
},
{
closed = 1;
nodes = (
(240,14,l),
(240,435,l),
(210,435,l),
(210,14,l)
);
},
{
closed = 1;
nodes = (
(236,530,o),
(249,544,o),
(249,560,cs),
(249,577,o),
(236,590,o),
(219,590,cs),
(203,590,o),
(189,577,o),
(189,560,cs),
(189,544,o),
(203,530,o),
(219,530,cs)
);
},
{
closed = 1;
nodes = (
(520,530,o),
(533,544,o),
(533,560,cs),
(533,577,o),
(520,590,o),
(503,590,cs),
(487,590,o),
(473,577,o),
(473,560,cs),
(473,544,o),
(487,530,o),
(503,530,cs)
);
}
);
width = 600;
}
);
unicode = 307;
}
{
glyphname = Lslash;
lastChange = "2025-08-03 15:49:27 +0000";
layers = (
{
layerId = m01;
shapes = (
{
closed = 1;
nodes = (
(142,620,l),
(142,0,l),
(528,0,l),
(528,60,l),
(175,60,l),
(202,31,l),
(202,620,l)
);
},
{
closed = 1;
nodes = (
(102,283,l),
(318,408,l),
(288,460,l),
(72,335,l)
);
}
);
width = 600;
},
{
layerId = "BDCBA76E-5474-4BD3-A1CC-9641C626CFE7";
shapes = (
{
closed = 1;
nodes = (
(146,620,l),
(146,0,l),
(532,0,l),
(532,90,l),
(179,90,l),
(236,31,l),
(236,620,l)
);
},
{
closed = 1;
nodes = (
(113,270,l),
(330,395,l),
(285,473,l),
(68,348,l)
);
}
);
width = 600;
},
{
layerId = "D8CC3DFA-F3EA-4C7D-84FB-05FCEA5C6558";
shapes = (
{
closed = 1;
nodes = (
(139,620,l),
(139,0,l),
(525,0,l),
(525,30,l),
(155,30,l),
(169,11,l),
(169,620,l)
);
},
{
closed = 1;
nodes = (
(90,294,l),
(307,419,l),
(292,445,l),
(76,320,l)
);
}
);
width = 600;
}
);
unicode = 321;
}
{
glyphname = lslash;
lastChange = "2025-08-03 17:11:32 +0000";
layers = (
{
layerId = m01;
shapes = (
{
ref = l;
},
{
closed = 1;
nodes = (
(210,274,l),
(427,399,l),
(397,451,l),
(180,326,l)
);
}
);
width = 600;
},
{
layerId = "BDCBA76E-5474-4BD3-A1CC-9641C626CFE7";
shapes = (
{
ref = l;
},
{
closed = 1;
nodes = (
(217,261,l),
(435,386,l),
(390,464,l),
(172,339,l)
);
}
);
width = 600;
},
{
layerId = "D8CC3DFA-F3EA-4C7D-84FB-05FCEA5C6558";
shapes = (
{
ref = l;
},
{
closed = 1;
nodes = (
(204,284,l),
(421,409,l),
(406,435,l),
(189,310,l)
);
}
);
width = 600;
}
);
unicode = 322;
}
{
glyphname = Eng;
lastChange = "2025-08-03 15:51:04 +0000";
layers = (
{
anchors = (
{
name = bottom;
pos = (300,-200);
},
{
name = top;
pos = (300,620);
}
);
layerId = m01;
shapes = (
{
closed = 1;
nodes = (
(157,620,l),
(93,620,l),
(384,0,l),
(444,0,l)
);
},
{
closed = 1;
nodes = (
(66,620,l),
(62,0,l),
(122,0,l),
(122,620,l)
);
},
{
closed = 1;
nodes = (
(444,0,l),
(444,620,l),
(384,620,l),
(384,0,l)
);
},
{
alignment = -1;
angle = 90;
pos = (1004,-535);
ref = _part.hook;
}
);
width = 600;
},
{
anchors = (
{
name = bottom;
pos = (300,-200);
},
{
name = top;
pos = (300,620);
}
);
layerId = "BDCBA76E-5474-4BD3-A1CC-9641C626CFE7";
shapes = (
{
closed = 1;
nodes = (
(179,620,l),
(77,620,l),
(378,0,l),
(466,0,l)
);
},
{
closed = 1;
nodes = (
(74,620,l),
(70,0,l),
(161,0,l),
(161,620,l)
);
},
{
closed = 1;
nodes = (
(467,0,l),
(467,620,l),
(377,620,l),
(377,0,l)
);
},
{
alignment = -1;
angle = 90;
pos = (997,-535);
ref = _part.hook;
}
);
width = 600;
},
{
anchors = (
{
name = bottom;
pos = (300,-200);
},
{
name = top;
pos = (300,620);
}
);
layerId = "D8CC3DFA-F3EA-4C7D-84FB-05FCEA5C6558";
shapes = (
{
closed = 1;
nodes = (
(104,620,l),
(70,620,l),
(384,0,l),
(414,0,l)
);
},
{
closed = 1;
nodes = (
(66,620,l),
(62,0,l),
(93,0,l),
(93,620,l)
);
},
{
closed = 1;
nodes = (
(414,0,l),
(414,620,l),
(384,620,l),
(384,0,l)
);
},
{
alignment = -1;
angle = 90;
pos = (1004,-535);
ref = _part.hook;
}
);
width = 600;
}
);
unicode = 330;
}
{
glyphname = OE;
lastChange = "2025-08-03 15:59:42 +0000";
layers = (
{
anchors = (
{
name = bottom;
pos = (300,0);
},
{
name = top;
pos = (300,620);
}
);
layerId = m01;
shapes = (
{
closed = 1;
nodes = (
(533,0,l),
(533,60,l),
(338,60,l),
(348,77,o),
(353,99,o),
(353,120,cs),
(353,500,ls),
(353,521,o),
(348,542,o),
(338,560,c),
(533,560,l),
(533,620,l),
(186,620,ls),
(118,620,o),
(66,568,o),
(67,500,cs),
(67,120,ls),
(66,52,o),
(118,0,o),
(186,0,cs)
);
},
{
closed = 1;
nodes = (
(293,120,ls),
(294,86,o),
(268,60,o),
(234,60,cs),
(186,60,ls),
(152,60,o),
(126,86,o),
(127,120,cs),
(127,500,ls),
(126,534,o),
(152,560,o),
(186,560,cs),
(234,560,ls),
(268,560,o),
(294,534,o),
(293,500,cs)
);
},
{
closed = 1;
nodes = (
(487,330,l),
(487,390,l),
(323,390,l),
(323,330,l)
);
}
);
width = 600;
},
{
anchors = (
{
name = bottom;
pos = (300,0);
},
{
name = top;
pos = (300,620);
}
);
layerId = "BDCBA76E-5474-4BD3-A1CC-9641C626CFE7";
shapes = (
{
closed = 1;
nodes = (
(533,0,l),
(533,90,l),
(380,90,l),
(382,99,o),
(383,110,o),
(383,120,cs),
(383,500,ls),
(383,510,o),
(382,521,o),
(380,530,c),
(533,530,l),
(533,620,l),
(187,620,ls),
(119,621,o),
(67,569,o),
(67,501,cs),
(67,119,ls),
(67,51,o),
(119,0,o),
(187,0,cs)
);
},
{
closed = 1;
nodes = (
(293,120,ls),
(293,103,o),
(280,90,o),
(263,90,cs),
(187,90,ls),
(170,90,o),
(157,103,o),
(157,120,cs),
(157,500,ls),
(157,517,o),
(170,530,o),
(187,530,cs),
(263,530,ls),
(280,530,o),
(293,517,o),
(293,500,cs)
);
},
{
closed = 1;
nodes = (
(487,290,l),
(487,380,l),
(338,380,l),
(338,290,l)
);
}
);
width = 600;
},
{
anchors = (
{
name = bottom;
pos = (300,0);
},
{
name = top;
pos = (300,620);
}
);
layerId = "D8CC3DFA-F3EA-4C7D-84FB-05FCEA5C6558";
shapes = (
{
closed = 1;
nodes = (
(533,0,l),
(533,30,l),
(300,30,l),
(323,51,o),
(339,83,o),
(338,120,cs),
(338,500,ls),
(339,537,o),
(323,569,o),
(300,590,c),
(533,590,l),
(533,620,l),
(186,620,ls),
(118,620,o),
(66,568,o),
(67,500,cs),
(67,120,ls),
(66,52,o),
(118,0,o),
(186,0,cs)
);
},
{
closed = 1;
nodes = (
(308,120,ls),
(309,69,o),
(270,30,o),
(219,30,cs),
(186,30,ls),
(135,30,o),
(96,69,o),
(97,120,cs),
(97,500,ls),
(96,551,o),
(135,590,o),
(186,590,cs),
(219,590,ls),
(270,590,o),
(309,551,o),
(308,500,cs)
);
},
{
closed = 1;
nodes = (
(487,345,l),
(487,375,l),
(323,375,l),
(323,345,l)
);
}
);
width = 600;
}
);
unicode = 338;
}
{
glyphname = oe;
lastChange = "2025-08-03 17:41:08 +0000";
layers = (
{
anchors = (
{
name = bottom;
pos = (300,0);
},
{
name = top;
pos = (300,452);
}
);
layerId = m01;
shapes = (
{
closed = 1;
nodes = (
(211,0,ls),
(247,0,o),
(279,15,o),
(300,38,c),
(322,14,o),
(353,0,o),
(389,0,cs),
(538,0,l),
(538,60,l),
(389,60,ls),
(356,60,o),
(330,83,o),
(330,116,cs),
(330,336,ls),
(330,369,o),
(356,392,o),
(389,392,cs),
(419,392,ls),
(453,392,o),
(479,366,o),
(478,332,cs),
(478,330,ls),
(479,296,o),
(453,270,o),
(419,270,cs),
(300,270,l),
(300,210,l),
(419,210,ls),
(487,210,o),
(539,262,o),
(538,330,cs),
(538,332,ls),
(539,400,o),
(487,452,o),
(419,452,cs),
(389,452,ls),
(353,452,o),
(321,437,o),
(300,414,c),
(278,438,o),
(247,452,o),
(211,452,cs),
(181,452,ls),
(113,452,o),
(61,400,o),
(62,332,cs),
(62,120,ls),
(61,52,o),
(113,0,o),
(181,0,cs)
);
},
{
closed = 1;
nodes = (
(147,60,o),
(121,86,o),
(122,120,cs),
(122,332,ls),
(121,366,o),
(147,392,o),
(181,392,cs),
(211,392,ls),
(244,392,o),
(270,369,o),
(270,336,cs),
(270,116,l),
(270,83,o),
(244,60,o),
(211,60,cs),
(181,60,ls)
);
}
);
width = 600;
},
{
anchors = (
{
name = bottom;
pos = (300,0);
},
{
name = top;
pos = (300,452);
}
);
layerId = "BDCBA76E-5474-4BD3-A1CC-9641C626CFE7";
shapes = (
{
closed = 1;
nodes = (
(211,0,ls),
(239,0,o),
(265,9,o),
(285,24,c),
(305,9,o),
(331,0,o),
(359,0,cs),
(538,0,l),
(538,90,l),
(360,90,ls),
(343,90,o),
(330,103,o),
(330,120,cs),
(330,330,ls),
(330,347,o),
(343,360,o),
(360,360,cs),
(418,360,ls),
(435,360,o),
(448,347,o),
(448,330,cs),
(448,315,ls),
(448,298,o),
(435,285,o),
(418,285,cs),
(285,285,l),
(285,195,l),
(419,195,ls),
(487,195,o),
(539,247,o),
(538,315,cs),
(538,330,ls),
(539,398,o),
(487,450,o),
(419,450,cs),
(359,450,ls),
(331,450,o),
(305,441,o),
(285,426,c),
(265,441,o),
(239,450,o),
(211,450,cs),
(181,450,ls),
(113,450,o),
(61,398,o),
(62,330,cs),
(62,120,ls),
(61,52,o),
(113,0,o),
(181,0,cs)
);
},
{
closed = 1;
nodes = (
(165,90,o),
(152,103,o),
(152,120,cs),
(152,330,ls),
(152,347,o),
(165,360,o),
(182,360,cs),
(210,360,ls),
(227,360,o),
(240,347,o),
(240,330,cs),
(240,120,ls),
(240,103,o),
(227,90,o),
(210,90,cs),
(182,90,ls)
);
}
);
width = 600;
},
{
anchors = (
{
name = bottom;
pos = (300,0);
},
{
name = top;
pos = (300,452);
}
);
layerId = "D8CC3DFA-F3EA-4C7D-84FB-05FCEA5C6558";
shapes = (
{
closed = 1;
nodes = (
(209,0,ls),
(255,0,o),
(293,23,o),
(313,59,c),
(333,23,o),
(371,0,o),
(417,0,cs),
(538,0,l),
(538,30,l),
(417,30,ls),
(367,30,o),
(328,66,o),
(328,116,c),
(328,336,ls),
(328,386,o),
(367,422,o),
(417,422,cs),
(419,422,ls),
(470,422,o),
(509,383,o),
(508,332,cs),
(508,330,ls),
(509,279,o),
(470,240,o),
(419,240,cs),
(313,240,l),
(313,210,l),
(419,210,ls),
(487,210,o),
(539,262,o),
(538,330,cs),
(538,332,ls),
(539,400,o),
(487,452,o),
(419,452,cs),
(417,452,ls),
(371,452,o),
(333,429,o),
(313,393,c),
(293,429,o),
(255,452,o),
(209,452,cs),
(181,452,ls),
(113,452,o),
(61,400,o),
(62,332,cs),
(62,120,ls),
(61,52,o),
(113,0,o),
(181,0,cs)
);
},
{
closed = 1;
nodes = (
(130,30,o),
(91,69,o),
(92,120,cs),
(92,332,ls),
(91,383,o),
(130,422,o),
(181,422,cs),
(209,422,ls),
(259,422,o),
(298,386,o),
(298,336,cs),
(298,116,l),
(298,66,o),
(259,30,o),
(209,30,cs),
(181,30,ls)
);
}
);
width = 600;
}
);
unicode = 339;
}
{
glyphname = Tcedilla;
lastChange = "2025-08-03 16:04:51 +0000";
layers = (
{
layerId = m01;
shapes = (
{
ref = T;
},
{
attr = {
identifier = ID0x136ce20c0;
lineCapEnd = 3;
strokeWidth = 50;
};
closed = 0;
nodes = (
(295,0,l),
(295,-65,l),
(375,-65,o),
(385,-90,o),
(384,-128,cs),
(383,-170,o),
(354,-191,o),
(295,-191,cs)
);
},
{
closed = 1;
nodes = (
(270,-43,l),
(330,-43,l),
(330,0,l),
(270,0,l)
);
}
);
width = 600;
},
{
layerId = "BDCBA76E-5474-4BD3-A1CC-9641C626CFE7";
shapes = (
{
ref = T;
},
{
attr = {
identifier = ID0x136ce20c0;
lineCapEnd = 3;
strokeWidth = 90;
};
closed = 0;
nodes = (
(300,0,l),
(300,-65,l),
(380,-65,o),
(390,-100,o),
(389,-131,cs),
(388,-180,o),
(359,-201,o),
(300,-201,cs)
);
},
{
closed = 1;
nodes = (
(270,-43,l),
(330,-43,l),
(330,0,l),
(270,0,l)
);
}
);
width = 600;
},
{
layerId = "D8CC3DFA-F3EA-4C7D-84FB-05FCEA5C6558";
shapes = (
{
ref = T;
},
{
attr = {
identifier = ID0x136ce20c0;
lineCapEnd = 3;
strokeWidth = 30;
};
closed = 0;
nodes = (
(300,0,l),
(300,-65,l),
(380,-65,o),
(390,-90,o),
(389,-128,cs),
(388,-170,o),
(359,-191,o),
(300,-191,cs)
);
},
{
closed = 1;
nodes = (
(286,-43,l),
(315,-43,l),
(315,0,l),
(286,0,l)
);
}
);
width = 600;
}
);
unicode = 354;
}
{
glyphname = Bhook;
lastChange = "2025-08-03 15:30:10 +0000";
layers = (
{
anchors = (
{
name = bottom;
pos = (300,0);
},
{
name = top;
pos = (300,620);
}
);
layerId = m01;
shapes = (
{
closed = 1;
nodes = (
(437,0,ls),
(505,0,o),
(557,52,o),
(556,120,cs),
(556,270,ls),
(557,307,o),
(541,339,o),
(518,360,c),
(541,381,o),
(557,413,o),
(556,450,cs),
(556,500,ls),
(557,568,o),
(505,620,o),
(437,620,cs),
(165,620,ls),
(97,620,o),
(45,568,o),
(45,500,cs),
(45,466,l),
(105,466,l),
(105,500,ls),
(105,534,o),
(131,560,o),
(165,560,cs),
(170,560,l),
(170,0,l)
);
},
{
closed = 1;
nodes = (
(230,592,l),
(199,560,l),
(437,560,ls),
(471,560,o),
(497,534,o),
(496,500,cs),
(496,450,ls),
(497,416,o),
(471,390,o),
(437,390,cs),
(199,390,l),
(199,330,l),
(437,330,ls),
(471,330,o),
(497,304,o),
(496,270,cs),
(496,120,ls),
(497,86,o),
(471,60,o),
(437,60,cs),
(199,60,l),
(230,31,l)
);
}
);
width = 600;
},
{
anchors = (
{
name = bottom;
pos = (300,0);
},
{
name = top;
pos = (300,620);
}
);
layerId = "BDCBA76E-5474-4BD3-A1CC-9641C626CFE7";
shapes = (
{
closed = 1;
nodes = (
(441,0,ls),
(509,-1,o),
(561,51,o),
(561,119,cs),
(561,271,ls),
(561,299,o),
(552,325,o),
(537,345,c),
(552,365,o),
(561,391,o),
(561,419,cs),
(561,501,ls),
(561,569,o),
(509,621,o),
(441,620,cs),
(184,620,ls),
(102,620,o),
(40,558,o),
(40,476,cs),
(40,466,l),
(130,466,l),
(130,470,ls),
(130,504,o),
(156,530,o),
(190,530,cs),
(195,530,l),
(195,0,l)
);
},
{
closed = 1;
nodes = (
(285,575,l),
(240,530,l),
(441,530,ls),
(458,530,o),
(471,517,o),
(471,500,cs),
(471,420,ls),
(471,403,o),
(458,390,o),
(441,390,cs),
(240,390,l),
(240,300,l),
(441,300,ls),
(458,300,o),
(471,287,o),
(471,270,cs),
(471,120,ls),
(471,103,o),
(458,90,o),
(441,90,cs),
(240,90,l),
(285,45,l)
);
}
);
width = 600;
},
{
anchors = (
{
name = bottom;
pos = (300,0);
},
{
name = top;
pos = (300,620);
}
);
layerId = "D8CC3DFA-F3EA-4C7D-84FB-05FCEA5C6558";
shapes = (
{
closed = 1;
nodes = (
(437,0,ls),
(505,0,o),
(557,52,o),
(556,120,cs),
(556,270,ls),
(557,317,o),
(533,355,o),
(497,375,c),
(533,395,o),
(557,433,o),
(556,480,cs),
(556,500,ls),
(557,568,o),
(505,620,o),
(437,620,cs),
(165,620,ls),
(97,620,o),
(45,568,o),
(45,500,cs),
(45,466,l),
(75,466,l),
(75,500,ls),
(75,551,o),
(114,590,o),
(165,590,cs),
(170,590,l),
(170,0,l)
);
},
{
closed = 1;
nodes = (
(200,605,l),
(185,590,l),
(437,590,ls),
(488,590,o),
(527,551,o),
(526,500,cs),
(526,480,ls),
(527,429,o),
(488,390,o),
(437,390,cs),
(183,390,l),
(183,360,l),
(437,360,ls),
(488,360,o),
(527,321,o),
(526,270,cs),
(526,120,ls),
(527,69,o),
(488,30,o),
(437,30,cs),
(183,30,l),
(200,13,l)
);
}
);
width = 600;
}
);
unicode = 385;
}
{
glyphname = Oopen;
lastChange = "2025-08-03 15:58:20 +0000";
layers = (
{
anchors = (
{
name = bottom;
pos = (300,0);
},
{
name = top;
pos = (300,620);
}
);
layerId = m01;
shapes = (
{
closed = 1;
nodes = (
(82,0,l),
(399,0,ls),
(467,0,o),
(519,52,o),
(518,120,cs),
(518,500,ls),
(519,568,o),
(467,620,o),
(399,620,cs),
(82,620,l),
(82,560,l),
(399,560,ls),
(433,560,o),
(459,534,o),
(458,500,cs),
(458,120,ls),
(459,86,o),
(433,60,o),
(399,60,cs),
(82,60,l)
);
}
);
width = 600;
},
{
anchors = (
{
name = bottom;
pos = (300,0);
},
{
name = top;
pos = (300,620);
}
);
layerId = "BDCBA76E-5474-4BD3-A1CC-9641C626CFE7";
shapes = (
{
closed = 1;
nodes = (
(82,0,l),
(398,0,ls),
(466,-1,o),
(518,51,o),
(518,119,cs),
(518,501,ls),
(518,569,o),
(466,621,o),
(398,620,cs),
(82,620,l),
(82,530,l),
(398,530,ls),
(415,530,o),
(428,517,o),
(428,500,cs),
(428,120,ls),
(428,103,o),
(415,90,o),
(398,90,cs),
(82,90,l)
);
}
);
width = 600;
},
{
anchors = (
{
name = bottom;
pos = (300,0);
},
{
name = top;
pos = (300,620);
}
);
layerId = "D8CC3DFA-F3EA-4C7D-84FB-05FCEA5C6558";
shapes = (
{
closed = 1;
nodes = (
(82,0,l),
(399,0,ls),
(467,0,o),
(519,52,o),
(518,120,cs),
(518,500,ls),
(519,568,o),
(467,620,o),
(399,620,cs),
(82,620,l),
(82,590,l),
(399,590,ls),
(450,590,o),
(489,551,o),
(488,500,cs),
(488,120,ls),
(489,69,o),
(450,30,o),
(399,30,cs),
(82,30,l)
);
}
);
width = 600;
}
);
unicode = 390;
}
{
glyphname = Chook;
lastChange = "2025-08-03 15:31:53 +0000";
layers = (
{
anchors = (
{
name = bottom;
pos = (300,0);
},
{
name = top;
pos = (300,620);
}
);
layerId = m01;
shapes = (
{
closed = 1;
nodes = (
(486,0,l),
(486,60,l),
(169,60,ls),
(135,60,o),
(109,86,o),
(110,120,cs),
(110,500,ls),
(109,534,o),
(135,560,o),
(169,560,cs),
(486,560,l),
(486,654,ls),
(486,688,o),
(512,714,o),
(546,714,cs),
(551,714,l),
(551,774,l),
(546,774,ls),
(478,774,o),
(426,722,o),
(426,654,cs),
(426,595,l),
(457,620,l),
(169,620,ls),
(101,620,o),
(49,568,o),
(50,500,cs),
(50,120,ls),
(49,52,o),
(101,0,o),
(169,0,cs)
);
}
);
width = 600;
},
{
anchors = (
{
name = bottom;
pos = (300,0);
},
{
name = top;
pos = (300,620);
}
);
layerId = "BDCBA76E-5474-4BD3-A1CC-9641C626CFE7";
shapes = (
{
closed = 1;
nodes = (
(486,0,l),
(486,90,l),
(170,90,ls),
(153,90,o),
(140,103,o),
(140,120,cs),
(140,500,ls),
(140,517,o),
(153,530,o),
(170,530,cs),
(486,530,l),
(486,624,ls),
(486,658,o),
(512,684,o),
(546,684,cs),
(551,684,l),
(551,774,l),
(540,774,ls),
(458,774,o),
(396,712,o),
(396,630,cs),
(396,575,l),
(441,620,l),
(169,620,ls),
(101,620,o),
(49,568,o),
(50,500,cs),
(50,120,ls),
(49,52,o),
(101,0,o),
(169,0,cs)
);
}
);
width = 600;
},
{
anchors = (
{
name = bottom;
pos = (300,0);
},
{
name = top;
pos = (300,620);
}
);
layerId = "D8CC3DFA-F3EA-4C7D-84FB-05FCEA5C6558";
shapes = (
{
closed = 1;
nodes = (
(486,0,l),
(486,30,l),
(169,30,ls),
(118,30,o),
(79,69,o),
(80,120,cs),
(80,500,ls),
(79,551,o),
(118,590,o),
(169,590,cs),
(456,590,l),
(456,654,ls),
(456,705,o),
(495,744,o),
(546,744,cs),
(551,744,l),
(551,774,l),
(546,774,ls),
(478,774,o),
(426,722,o),
(426,654,cs),
(426,607,l),
(441,620,l),
(169,620,ls),
(101,620,o),
(49,568,o),
(50,500,cs),
(50,120,ls),
(49,52,o),
(101,0,o),
(169,0,cs)
);
}
);
width = 600;
}
);
unicode = 391;
}
{
glyphname = Dtail;
lastChange = "2025-08-03 15:34:40 +0000";
layers = (
{
layerId = m01;
shapes = (
{
pos = (36,0);
ref = D;
},
{
closed = 1;
nodes = (
(46,280,l),
(326,280,l),
(326,340,l),
(46,340,l)
);
}
);
width = 600;
},
{
layerId = "BDCBA76E-5474-4BD3-A1CC-9641C626CFE7";
shapes = (
{
pos = (36,0);
ref = D;
},
{
closed = 1;
nodes = (
(46,260,l),
(326,260,l),
(326,360,l),
(46,360,l)
);
}
);
width = 600;
},
{
layerId = "D8CC3DFA-F3EA-4C7D-84FB-05FCEA5C6558";
shapes = (
{
pos = (36,0);
ref = D;
},
{
closed = 1;
nodes = (
(46,295,l),
(326,295,l),
(326,325,l),
(46,325,l)
);
}
);
width = 600;
}
);
unicode = 393;
}
{
glyphname = Dhook;
lastChange = "2025-08-03 15:33:52 +0000";
layers = (
{
anchors = (
{
name = bottom;
pos = (300,0);
},
{
name = top;
pos = (300,620);
}
);
layerId = m01;
shapes = (
{
closed = 1;
nodes = (
(110,500,ls),
(110,534,o),
(136,560,o),
(170,560,cs),
(194,560,l),
(174,582,l),
(174,0,l),
(431,0,ls),
(499,0,o),
(551,52,o),
(550,120,cs),
(550,500,ls),
(551,568,o),
(499,620,o),
(431,620,cs),
(170,620,ls),
(102,620,o),
(50,568,o),
(50,500,cs),
(50,466,l),
(110,466,l)
);
},
{
closed = 1;
nodes = (
(234,582,l),
(212,560,l),
(431,560,ls),
(465,560,o),
(491,534,o),
(490,500,cs),
(490,120,ls),
(491,86,o),
(465,60,o),
(431,60,cs),
(208,60,l),
(234,31,l)
);
}
);
width = 600;
},
{
anchors = (
{
name = bottom;
pos = (300,0);
},
{
name = top;
pos = (300,620);
}
);
layerId = "BDCBA76E-5474-4BD3-A1CC-9641C626CFE7";
shapes = (
{
closed = 1;
nodes = (
(135,470,ls),
(135,504,o),
(161,530,o),
(195,530,cs),
(229,530,l),
(199,575,l),
(199,0,l),
(435,0,ls),
(503,-1,o),
(555,51,o),
(555,119,cs),
(555,501,ls),
(555,569,o),
(503,621,o),
(435,620,cs),
(189,620,ls),
(107,620,o),
(45,558,o),
(45,476,cs),
(45,466,l),
(135,466,l)
);
},
{
closed = 1;
nodes = (
(289,575,l),
(265,530,l),
(435,530,ls),
(452,530,o),
(465,517,o),
(465,500,cs),
(465,120,ls),
(465,103,o),
(452,90,o),
(435,90,cs),
(244,90,l),
(289,45,l)
);
}
);
width = 600;
},
{
anchors = (
{
name = bottom;
pos = (300,0);
},
{
name = top;
pos = (300,620);
}
);
layerId = "D8CC3DFA-F3EA-4C7D-84FB-05FCEA5C6558";
shapes = (
{
closed = 1;
nodes = (
(80,500,ls),
(80,551,o),
(119,590,o),
(170,590,cs),
(185,590,l),
(174,603,l),
(174,0,l),
(431,0,ls),
(499,0,o),
(551,52,o),
(550,120,cs),
(550,500,ls),
(551,568,o),
(499,620,o),
(431,620,cs),
(170,620,ls),
(102,620,o),
(50,568,o),
(50,500,cs),
(50,466,l),
(80,466,l)
);
},
{
closed = 1;
nodes = (
(204,603,l),
(192,590,l),
(431,590,ls),
(482,590,o),
(521,551,o),
(520,500,cs),
(520,120,ls),
(521,69,o),
(482,30,o),
(431,30,cs),
(188,30,l),
(204,14,l)
);
}
);
width = 600;
}
);
unicode = 394;
}
{
glyphname = Schwa;
lastChange = "2025-08-03 15:36:52 +0000";
layers = (
{
anchors = (
{
name = bottom;
pos = (300,0);
},
{
name = top;
pos = (300,620);
}
);
layerId = m01;
shapes = (
{
closed = 1;
nodes = (
(399,560,ls),
(433,560,o),
(459,534,o),
(458,500,cs),
(458,120,ls),
(459,86,o),
(433,60,o),
(399,60,cs),
(201,60,ls),
(167,60,o),
(141,86,o),
(142,120,cs),
(142,220,ls),
(141,254,o),
(167,280,o),
(201,280,cs),
(486,280,l),
(486,340,l),
(201,340,ls),
(133,340,o),
(81,288,o),
(82,220,cs),
(82,120,ls),
(81,52,o),
(133,0,o),
(201,0,cs),
(399,0,ls),
(467,0,o),
(519,52,o),
(518,120,cs),
(518,500,ls),
(519,568,o),
(467,620,o),
(399,620,cs),
(82,620,l),
(82,560,l)
);
}
);
width = 600;
},
{
anchors = (
{
name = bottom;
pos = (300,0);
},
{
name = top;
pos = (300,620);
}
);
layerId = "BDCBA76E-5474-4BD3-A1CC-9641C626CFE7";
shapes = (
{
closed = 1;
nodes = (
(398,530,ls),
(415,530,o),
(428,517,o),
(428,500,cs),
(428,120,ls),
(428,103,o),
(415,90,o),
(398,90,cs),
(202,90,ls),
(185,90,o),
(172,103,o),
(172,120,cs),
(172,260,ls),
(172,277,o),
(185,290,o),
(202,290,cs),
(474,290,l),
(474,380,l),
(201,380,ls),
(133,380,o),
(81,328,o),
(82,260,cs),
(82,119,ls),
(82,51,o),
(134,-1,o),
(202,0,cs),
(398,0,ls),
(466,-1,o),
(518,51,o),
(518,119,cs),
(518,501,ls),
(518,569,o),
(466,621,o),
(398,620,cs),
(82,620,l),
(82,530,l)
);
}
);
width = 600;
},
{
anchors = (
{
name = bottom;
pos = (300,0);
},
{
name = top;
pos = (300,620);
}
);
layerId = "D8CC3DFA-F3EA-4C7D-84FB-05FCEA5C6558";
shapes = (
{
closed = 1;
nodes = (
(399,590,ls),
(450,590,o),
(489,551,o),
(488,500,cs),
(488,120,ls),
(489,69,o),
(450,30,o),
(399,30,cs),
(201,30,ls),
(150,30,o),
(111,69,o),
(112,120,cs),
(112,220,ls),
(111,271,o),
(150,310,o),
(201,310,cs),
(503,310,l),
(503,340,l),
(201,340,ls),
(133,340,o),
(81,288,o),
(82,220,cs),
(82,120,ls),
(81,52,o),
(133,0,o),
(201,0,cs),
(399,0,ls),
(467,0,o),
(519,52,o),
(518,120,cs),
(518,500,ls),
(519,568,o),
(467,620,o),
(399,620,cs),
(82,620,l),
(82,590,l)
);
}
);
width = 600;
}
);
unicode = 399;
}
